<?xml version="1.0" standalone="no"?>
<!DOCTYPE svg PUBLIC "-//W3C//DTD SVG 1.1//EN" "http://www.w3.org/Graphics/SVG/1.1/DTD/svg11.dtd" >
<svg xmlns="http://www.w3.org/2000/svg" xmlns:xlink="http://www.w3.org/1999/xlink" version="1.1">
<metadata>
Created by FontForge 20201107 at Wed Sep 11 12:37:47 2024
 By 
Copyright 2022 The Mona Sans Project Authors (https://github.com/github/mona-sans), with Reserved Font Name "Mona"
</metadata>
<defs>
<font id="MonaSans-ExtraLight" horiz-adv-x="0" >
  <font-face 
    font-family="Mona Sans ExtraLight"
    font-weight="200"
    font-stretch="normal"
    units-per-em="1000"
    panose-1="0 0 0 0 0 0 0 0 0 0"
    ascent="800"
    descent="-200"
    x-height="517"
    cap-height="729"
    bbox="-209 -233.04 1102 1037"
    underline-thickness="320"
    underline-position="-300"
    unicode-range="U+0020-FB02"
  />
<missing-glyph horiz-adv-x="866" 
d="M310 -8q-78 25 -136.5 76.5t-91 125t-32.5 162.5q0 115 48 200.5t134 133.5t201 48t201 -48t134 -133.5t48 -200.5q0 -89 -32.5 -162.5t-91 -125t-136.5 -76.5q-10 -3 -18.5 1.5t-8.5 16.5v105q0 54 -36 71q86 9 135.5 56.5t49.5 123.5q0 38 -10.5 65t-29.5 46q8 24 7 52
t-11 50q-28 2 -57 -9t-47 -31q-24 8 -48 11t-49 3t-49 -3t-48 -11q-18 20 -46.5 31t-57.5 9q-10 -22 -10.5 -50t6.5 -52q-19 -19 -29.5 -46t-10.5 -65q0 -76 49.5 -123.5t135.5 -56.5q-29 -13 -35 -52q-18 -10 -44 -10q-24 0 -39 13t-26.5 29.5t-25.5 29.5t-36 13
q-14 0 -14 -10t15 -17.5t26 -25.5q11 -17 21 -35.5t28.5 -31.5t54.5 -13q19 0 39 4v-70q0 -12 -8.5 -16.5t-18.5 -1.5zM222 150q-7 0 -7 5t6 5q7 0 7 -5t-6 -5zM191 185q-6 0 -6 4t5 4q6 0 6 -4t-5 -4zM206 171q-6 0 -6 4t5 4q6 0 6 -4t-5 -4zM266 109q-8 0 -8 6t7 6
q8 0 8 -6t-7 -6zM297 104q-8 0 -8 6t7 6q8 0 8 -6t-7 -6zM328 110q-8 0 -8 6t7 6q8 0 8 -6t-7 -6zM240 127q-8 0 -8 6t7 6q8 0 8 -6t-7 -6z" />
    <glyph glyph-name="fi" unicode="fi" horiz-adv-x="512" 
d="M130 0v485h-108v32h108v95q0 59 31 88t83 29h63v-34h-54q-46 0 -66 -21t-20 -68v-89h260v-517h-37v485h-223v-485h-37zM409 625q-14 0 -23 9t-9 22q0 14 9 22.5t23 8.5t23 -8.5t9 -22.5q0 -13 -9 -22t-23 -9z" />
    <glyph glyph-name="fl" unicode="fl" horiz-adv-x="544" 
d="M130 0v485h-108v32h108v95q0 59 31 88t83 29h63v-34h-54q-46 0 -66 -21t-20 -68v-89h255v212h37v-729h-37v485h-255v-485h-37z" />
    <glyph glyph-name="f_f.liga" unicode="ff" horiz-adv-x="593" 
d="M130 0v485h-108v32h108v95q0 59 31 88t83 29h63v-34h-54q-46 0 -66 -21t-20 -68v-89h240v95q0 59 31 88t83 29h63v-34h-54q-46 0 -66 -21t-20 -68v-89h127v-32h-127v-485h-37v485h-240v-485h-37z" />
    <glyph glyph-name="f_f_i.liga" unicode="ffi" horiz-adv-x="789" 
d="M130 0v485h-108v32h108v95q0 59 31 88t83 29h63v-34h-54q-46 0 -66 -21t-20 -68v-89h240v95q0 59 31 88t83 29h63v-34h-54q-46 0 -66 -21t-20 -68v-89h260v-517h-37v485h-223v-485h-37v485h-240v-485h-37zM686 625q-14 0 -23 9t-9 22q0 14 9 22.5t23 8.5t23 -8.5t9 -22.5
q0 -13 -9 -22t-23 -9z" />
    <glyph glyph-name="f_y.liga" unicode="fy" horiz-adv-x="757" 
d="M318 -167v32h47q26 0 44 7.5t31 23t22 39.5l43 110v-27l-201 467h-137v-485h-37v485h-108v32h108v95q0 59 31 88t83 29h63v-34h-54q-46 0 -66 -21t-20 -68v-89h164l124 -294l60 -152h4l56 152l117 294h39l-238 -594q-12 -30 -28 -50t-39.5 -30t-58.5 -10h-49z" />
    <glyph glyph-name="t_i.liga" unicode="ti" horiz-adv-x="537" 
d="M208 0q-28 0 -45.5 8t-25.5 25.5t-8 45.5v406h-107v32h107v164l36 9v-173h287v-517h-37v485h-250v-400q0 -31 10 -41t41 -10h80v-34h-88zM434 625q-14 0 -23 9t-9 22q0 14 9 22.5t23 8.5t23 -8.5t9 -22.5q0 -13 -9 -22t-23 -9z" />
    <glyph glyph-name="t_t.liga" unicode="tt" horiz-adv-x="604" 
d="M225 0q-45 0 -70.5 22.5t-25.5 74.5v388h-107v32h107v164l36 9v-173h238v164l36 9v-173h131v-32h-130v-384q0 -34 15 -49.5t47 -15.5h70v-36h-73q-45 0 -70.5 22.5t-25.5 74.5v388h-237v-384q0 -34 15 -49.5t47 -15.5h70v-36h-73z" />
    <glyph glyph-name=".notdef" horiz-adv-x="866" 
d="M310 -8q-78 25 -136.5 76.5t-91 125t-32.5 162.5q0 115 48 200.5t134 133.5t201 48t201 -48t134 -133.5t48 -200.5q0 -89 -32.5 -162.5t-91 -125t-136.5 -76.5q-10 -3 -18.5 1.5t-8.5 16.5v105q0 54 -36 71q86 9 135.5 56.5t49.5 123.5q0 38 -10.5 65t-29.5 46q8 24 7 52
t-11 50q-28 2 -57 -9t-47 -31q-24 8 -48 11t-49 3t-49 -3t-48 -11q-18 20 -46.5 31t-57.5 9q-10 -22 -10.5 -50t6.5 -52q-19 -19 -29.5 -46t-10.5 -65q0 -76 49.5 -123.5t135.5 -56.5q-29 -13 -35 -52q-18 -10 -44 -10q-24 0 -39 13t-26.5 29.5t-25.5 29.5t-36 13
q-14 0 -14 -10t15 -17.5t26 -25.5q11 -17 21 -35.5t28.5 -31.5t54.5 -13q19 0 39 4v-70q0 -12 -8.5 -16.5t-18.5 -1.5zM222 150q-7 0 -7 5t6 5q7 0 7 -5t-6 -5zM191 185q-6 0 -6 4t5 4q6 0 6 -4t-5 -4zM206 171q-6 0 -6 4t5 4q6 0 6 -4t-5 -4zM266 109q-8 0 -8 6t7 6
q8 0 8 -6t-7 -6zM297 104q-8 0 -8 6t7 6q8 0 8 -6t-7 -6zM328 110q-8 0 -8 6t7 6q8 0 8 -6t-7 -6zM240 127q-8 0 -8 6t7 6q8 0 8 -6t-7 -6z" />
    <glyph glyph-name=".null" 
 />
    <glyph glyph-name="nonmarkingreturn" horiz-adv-x="333" 
 />
    <glyph glyph-name="space" unicode=" " horiz-adv-x="239" 
 />
    <glyph glyph-name="exclam" unicode="!" horiz-adv-x="226" 
d="M103 186l-9 307v236h39v-236l-10 -307h-20zM113 -7q-13 0 -21.5 8t-8.5 21t8.5 21t21.5 8t21.5 -8t8.5 -21t-8.5 -21t-21.5 -8z" />
    <glyph glyph-name="quotedbl" unicode="&#x22;" horiz-adv-x="327" 
d="M73 492l-7 131v106h33v-106l-6 -131h-20zM234 492l-7 131v106h33v-106l-6 -131h-20z" />
    <glyph glyph-name="numbersign" unicode="#" horiz-adv-x="633" 
d="M195 0v245h-163v28h163v207h-163v27h163v222h32v-222h185v222h32v-222h157v-27h-157v-207h157v-28h-157v-245h-32v245h-185v-245h-32zM227 273h185v207h-185v-207z" />
    <glyph glyph-name="dollar" unicode="$" horiz-adv-x="648" 
d="M328 10q-88 0 -145.5 28t-85.5 78t-30 116h41q2 -58 25.5 -100t71.5 -65t121 -23q64 0 112.5 16t75.5 49t27 83q0 51 -21 82.5t-67.5 51t-124.5 33.5q-59 11 -104.5 24t-76.5 32.5t-47 49.5t-16 75q0 54 28 94t80.5 62.5t126.5 22.5q77 0 129.5 -24.5t80 -69t28.5 -104.5
h-40q-2 52 -26 88.5t-68 56t-108 19.5q-60 0 -102.5 -17.5t-65 -49t-22.5 -73.5q0 -49 22 -76t70 -42.5t126 -30.5q51 -9 94 -21.5t75.5 -34t50.5 -57t18 -89.5q0 -55 -29.5 -96.5t-86 -64.5t-137.5 -23zM308 -85v108h33v-108h-33zM308 699v115h33v-115h-33z" />
    <glyph glyph-name="percent" unicode="%" horiz-adv-x="837" 
d="M167 0l461 729h42l-462 -729h-41zM204 324q-42 0 -73.5 23.5t-48.5 69t-17 110.5q0 66 17.5 111t49 68t72.5 23t72 -23t48 -68t17 -111t-17.5 -111t-48 -68.5t-71.5 -23.5zM204 356q32 0 54 19.5t34 57.5t12 94t-12 94t-34 57t-54 19t-55 -19.5t-35 -57t-12 -93.5
q0 -42 7 -74t20 -53.5t32 -32.5t43 -11zM635 -5q-42 0 -73.5 23t-48.5 68.5t-17 111.5t17 111t48.5 68t73.5 23q41 0 72 -23t48 -68.5t17 -111.5q0 -65 -17.5 -110.5t-48 -68.5t-71.5 -23zM635 27q31 0 53 19t34 57t12 94q0 57 -12 95t-34 57t-53 19q-32 0 -55 -19t-35 -57
t-12 -95q0 -56 12 -94t35 -57t55 -19z" />
    <glyph glyph-name="ampersand" unicode="&#x26;" horiz-adv-x="789" 
d="M703 -5q-49 0 -90 22.5t-76.5 57t-68.5 71.5l-175 197q-40 45 -64.5 80.5t-37.5 64t-17.5 51.5t-4.5 43q0 48 22 83t59.5 54.5t85.5 19.5q45 0 79 -18.5t53 -51.5t19 -77q0 -42 -20.5 -78.5t-62 -68.5t-103.5 -62l-23 22q62 29 99.5 57.5t55 60t17.5 67.5q0 55 -31.5 85
t-83.5 30q-58 0 -93 -33t-35 -86q0 -24 6 -48t19.5 -50.5t37 -58t58.5 -70.5l169 -189q46 -52 80.5 -81t65.5 -41.5t65 -12.5q10 0 18 1.5t15 4.5v-41q-7 -2 -17 -3.5t-21 -1.5zM247 -10q-55 0 -97.5 23t-66.5 64.5t-24 94.5q0 51 24.5 93t70 76t108.5 61l21 -26
q-63 -26 -104 -56.5t-61.5 -66.5t-20.5 -80q0 -68 42.5 -109t109.5 -41q81 0 138 35.5t92 98.5l30 -18q-29 -50 -69 -83.5t-88.5 -49.5t-104.5 -16zM514 147l-31 21q17 33 29 73.5t17 84.5v29h157l5 -37l-123 1q-3 -26 -11 -56.5t-19 -60.5t-24 -55z" />
    <glyph glyph-name="quotesingle" unicode="'" horiz-adv-x="166" 
d="M73 492l-7 131v106h33v-106l-6 -131h-20z" />
    <glyph glyph-name="parenleft" unicode="(" horiz-adv-x="321" 
d="M248 -167q-59 54 -100.5 130.5t-63 166.5t-21.5 183q0 70 12.5 138.5t36 131t58 116.5t78.5 94h37q-44 -40 -78.5 -93.5t-58 -116.5t-36 -131.5t-12.5 -138.5q0 -99 23.5 -190t65 -165.5t96.5 -124.5h-37z" />
    <glyph glyph-name="parenright" unicode=")" horiz-adv-x="321" 
d="M73 793q59 -54 100.5 -130.5t63 -166t21.5 -183.5q0 -70 -12.5 -138.5t-36 -131t-58 -116t-78.5 -94.5h-37q44 40 78.5 93.5t58 116.5t36 131.5t12.5 138.5q0 99 -23.5 190t-65 165.5t-96.5 124.5h37z" />
    <glyph glyph-name="asterisk" unicode="*" horiz-adv-x="312" 
d="M141 453v59l9 68l-55 -40l-51 -30l-15 25l51 30l60 27l-60 27l-50 28l14 25l51 -28l55 -39l-9 67v57h29v-57l-8 -67l56 39l51 28l13 -25l-50 -28l-59 -27l59 -27l51 -30l-14 -25l-51 30l-56 40l8 -68v-59h-29z" />
    <glyph glyph-name="plus" unicode="+" horiz-adv-x="600" 
d="M283 122v223h-222v32h222v223h34v-223h222v-32h-222v-223h-34z" />
    <glyph glyph-name="comma" unicode="," horiz-adv-x="179" 
d="M42 -124q30 35 46 70.5t17 62.5l5 -1q-1 -4 -7 -8t-14 -4q-13 0 -20.5 8t-7.5 19q0 13 8.5 20.5t21.5 7.5q14 0 23 -9.5t9 -30.5q0 -18 -5.5 -37.5t-14.5 -38.5t-19 -34.5t-19 -24.5h-23z" />
    <glyph glyph-name="hyphen" unicode="-" horiz-adv-x="380" 
d="M60 242v33h260v-33h-260z" />
    <glyph glyph-name="period" unicode="." horiz-adv-x="170" 
d="M85 -7q-13 0 -21.5 8t-8.5 21t8.5 21t21.5 8t21.5 -8t8.5 -21t-8.5 -21t-21.5 -8z" />
    <glyph glyph-name="slash" unicode="/" horiz-adv-x="358" 
d="M-15 -81l327 810h36l-324 -810h-39z" />
    <glyph glyph-name="zero" unicode="0" horiz-adv-x="612" 
d="M306 -9q-55 0 -99.5 22.5t-77 68t-50 115t-17.5 163.5q0 126 30.5 207.5t85.5 121.5t128 40q55 0 99.5 -22.5t77 -68t50 -115t17.5 -163.5q0 -126 -30.5 -207.5t-85.5 -121.5t-128 -40zM306 25q55 0 94 24t63 68t35.5 106t11.5 137t-11.5 137t-35.5 106t-63 68t-94 24
t-94 -24t-63 -68t-35.5 -106t-11.5 -137t11.5 -137t35.5 -106t63 -68t94 -24z" />
    <glyph glyph-name="one" unicode="1" horiz-adv-x="325" 
d="M194 0v579h-163v29h25q74 0 103 31t33 82h39v-721h-37z" />
    <glyph glyph-name="two" unicode="2" horiz-adv-x="534" 
d="M54 0v20q0 52 21 94t55.5 77t76 66t83 61t76 62t55.5 69t21 83q0 51 -20.5 87.5t-59.5 56t-93 19.5q-56 0 -97.5 -23t-64 -64t-20.5 -95l-38 -1q-2 64 25 112.5t77.5 76.5t117.5 28q66 0 113.5 -24t73 -68.5t25.5 -104.5q0 -50 -20.5 -90t-54.5 -73t-75 -63t-82 -59.5
t-76 -61t-57.5 -68.5t-25.5 -83h397v-34h-433z" />
    <glyph glyph-name="three" unicode="3" horiz-adv-x="563" 
d="M266 -8q-64 0 -113 24.5t-77.5 68.5t-31.5 102h38q3 -48 26.5 -84t64 -56.5t93.5 -20.5q89 0 142 46t53 124q0 55 -22 91t-61 53.5t-91 17.5h-66v33h51q60 0 101.5 19.5t63.5 54.5t22 81q0 48 -22 81.5t-62 51.5t-93 18t-93 -20.5t-63.5 -57t-26.5 -84.5h-38
q3 58 31.5 102t77.5 68.5t112 24.5q67 0 115.5 -23t74.5 -64t26 -96q0 -43 -17 -77t-47 -57.5t-69 -34.5v-4q43 -9 73.5 -33.5t46.5 -61.5t16 -84q0 -61 -29 -106.5t-82 -71t-124 -25.5z" />
    <glyph glyph-name="four" unicode="4" horiz-adv-x="603" 
d="M393 0v685h10l-327 -456h496v-33h-539v34l355 491h42v-721h-37z" />
    <glyph glyph-name="five" unicode="5" horiz-adv-x="576" 
d="M285 -8q-63 0 -111.5 24.5t-77 68.5t-31.5 102h38q3 -48 26.5 -84t63.5 -56.5t93 -20.5q64 0 108 25.5t67.5 71t23.5 104.5q0 64 -24.5 108.5t-68 68t-102.5 23.5q-63 0 -109 -27.5t-66 -71.5h-42l29 393h405v-34h-373l-24 -317l3 -1q26 41 74 66.5t109 25.5
q52 0 94 -16.5t72 -47.5t46.5 -73.5t16.5 -94.5q0 -71 -30 -124.5t-84 -83t-126 -29.5z" />
    <glyph glyph-name="six" unicode="6" horiz-adv-x="596" 
d="M306 -8q-63 0 -109 21.5t-75.5 62.5t-43.5 99.5t-14 131.5q0 113 15.5 193.5t46.5 131t79 74.5t113 24q44 0 81.5 -12.5t66 -35t46 -54.5t20.5 -71h-36q-6 36 -21 62t-38.5 43t-53.5 25.5t-65 8.5q-70 0 -112.5 -28.5t-65 -80.5t-31 -124t-10.5 -160h3q11 45 40 78
t73 51.5t99 18.5q68 0 119 -28.5t79.5 -79.5t28.5 -119q0 -71 -30 -123.5t-83 -80.5t-122 -28zM308 26q58 0 101 24.5t67.5 69.5t24.5 104q0 60 -24 103t-67 66.5t-100 23.5q-62 0 -106.5 -27t-68 -72t-23.5 -101q0 -59 24.5 -102t69 -66t102.5 -23z" />
    <glyph glyph-name="seven" unicode="7" horiz-adv-x="535" 
d="M210 0q0 114 20.5 209t55.5 176.5t80 155.5t94 147h-382v-164h-33v197h460v-25q-40 -58 -77.5 -117.5t-69.5 -122t-56.5 -132.5t-38 -150t-13.5 -174h-40z" />
    <glyph glyph-name="eight" unicode="8" horiz-adv-x="586" 
d="M293 -10q-53 0 -97 14t-76 40.5t-49 62.5t-17 80q0 45 18 82.5t53.5 64t88.5 36.5v3q-39 10 -70 34t-48.5 59t-17.5 76q0 57 26.5 99t75 65t113.5 23q66 0 114 -23t74.5 -65t26.5 -99q0 -41 -17.5 -76t-48 -59t-70.5 -34v-3q53 -10 88.5 -36.5t53.5 -64t18 -82.5
q0 -58 -30 -102.5t-84 -69.5t-125 -25zM293 24q60 0 104.5 20.5t69.5 58t25 86.5q0 44 -19 81.5t-62.5 60.5t-117.5 23q-73 0 -117 -23t-63 -60.5t-19 -81.5q0 -49 25 -86.5t70 -58t104 -20.5zM293 389q67 0 105.5 22.5t54.5 58t16 73.5t-16 73t-54.5 57.5t-105.5 22.5
t-105.5 -22.5t-54.5 -57.5t-16 -73q0 -28 9 -55.5t29 -50t54 -35.5t84 -13z" />
    <glyph glyph-name="nine" unicode="9" horiz-adv-x="596" 
d="M290 730q63 0 109 -21.5t75.5 -62.5t43.5 -99.5t14 -131.5q0 -113 -15.5 -193.5t-46.5 -131t-79 -74.5t-113 -24q-44 0 -81.5 12.5t-66 35t-46 54.5t-20.5 71h36q6 -36 21 -62t38.5 -43t53.5 -25.5t65 -8.5q70 0 112.5 28.5t65 80.5t31.5 124t10 160h-3
q-11 -44 -40 -77.5t-72.5 -52t-99.5 -18.5q-67 0 -118.5 28.5t-80 79.5t-28.5 119q0 72 30 124t83.5 80t121.5 28zM288 696q-57 0 -100.5 -24.5t-68 -69t-24.5 -104.5q0 -59 24 -102.5t67.5 -67t99.5 -23.5q62 0 106.5 27t68 72.5t23.5 100.5q0 60 -24.5 102.5t-68.5 65.5
t-103 23z" />
    <glyph glyph-name="colon" unicode=":" horiz-adv-x="170" 
d="M85 -7q-13 0 -21.5 8t-8.5 21t8.5 21t21.5 8t21.5 -8t8.5 -21t-8.5 -21t-21.5 -8zM85 466q-13 0 -21.5 8t-8.5 21t8.5 21t21.5 8t21.5 -8t8.5 -21t-8.5 -21t-21.5 -8z" />
    <glyph glyph-name="semicolon" unicode=";" horiz-adv-x="179" 
d="M42 -124q30 35 46 70.5t17 62.5l5 -1q-1 -4 -7 -8t-14 -4q-13 0 -20.5 8t-7.5 19q0 13 8.5 20.5t21.5 7.5q14 0 23 -9.5t9 -30.5q0 -18 -5.5 -37.5t-14.5 -38.5t-19 -34.5t-19 -24.5h-23zM91 466q-13 0 -21.5 8t-8.5 21t8.5 21t21.5 8t21.5 -8t8.5 -21t-8.5 -21t-21.5 -8
z" />
    <glyph glyph-name="less" unicode="&#x3c;" horiz-adv-x="600" 
d="M538 589v-36l-448 -190v-4l448 -190v-36l-481 206v44z" />
    <glyph glyph-name="equal" unicode="=" horiz-adv-x="600" 
d="M61 455v32h478v-32h-478zM61 235v32h478v-32h-478z" />
    <glyph glyph-name="greater" unicode="&#x3e;" horiz-adv-x="600" 
d="M62 133v36l448 190v4l-448 190v36l481 -206v-44z" />
    <glyph glyph-name="question" unicode="?" horiz-adv-x="509" 
d="M243 169v17q0 40 12.5 71.5t32.5 58.5t42.5 52.5t42.5 53t32.5 59.5t12.5 72q0 52 -20.5 85.5t-57 50t-85.5 16.5q-83 0 -128.5 -49.5t-44.5 -126.5h-37q0 63 26 110t74 73t112 26q48 0 85 -13t62.5 -37.5t39 -58.5t13.5 -76t-13 -75.5t-33 -62t-42.5 -54.5t-42.5 -52
t-33 -55t-13 -64v-21h-37zM260 -7q-13 0 -21.5 8t-8.5 21t8.5 21t21.5 8t21.5 -8t8.5 -21t-8.5 -21t-21.5 -8z" />
    <glyph glyph-name="at" unicode="@" horiz-adv-x="935" 
d="M479 -101q-91 0 -166 29.5t-129.5 84t-84.5 130.5t-30 169q0 96 29.5 174t85 134.5t131.5 87t169 30.5q85 0 155.5 -26.5t122 -75.5t80 -117.5t28.5 -151.5q0 -75 -21.5 -134t-61.5 -93.5t-94 -34.5q-33 0 -55.5 14t-33.5 40.5t-11 63.5h-3q-18 -61 -56.5 -89t-78.5 -28
q-37 0 -70 20t-53.5 61.5t-20.5 106.5q0 49 11.5 89.5t32.5 70t50.5 46t64.5 16.5q44 0 78 -27t46 -79h3l8 94h31l-17 -256q-2 -39 5.5 -64.5t24.5 -38t43 -12.5q32 0 58 17t45.5 48t30 73.5t10.5 93.5q0 102 -44.5 179.5t-124 121t-185.5 43.5q-86 0 -155.5 -28.5
t-119.5 -81t-76.5 -125t-26.5 -160.5q0 -81 24.5 -151.5t72 -123t117 -82t158.5 -29.5q71 0 130.5 18t99.5 50l12 -27q-30 -24 -71 -39.5t-85 -23t-83 -7.5zM458 136q40 0 69.5 24t47 66t19.5 97q-1 54 -16 91t-41 56t-61 19q-42 0 -71 -25t-44.5 -68.5t-15.5 -99.5
q0 -54 14 -89.5t39.5 -53t59.5 -17.5z" />
    <glyph glyph-name="A" unicode="A" horiz-adv-x="678" 
d="M31 0l282 729h53l281 -729h-40l-230 605l-34 91h-6l-34 -91l-231 -605h-41zM139 199v36h400v-36h-400z" />
    <glyph glyph-name="B" unicode="B" horiz-adv-x="688" 
d="M94 0v729h305q101 0 157.5 -51.5t56.5 -134.5q0 -40 -13.5 -74t-41.5 -58t-72 -34v-3q49 -9 81 -34t48.5 -61t16.5 -79q0 -61 -28.5 -106t-81 -69.5t-124.5 -24.5h-304zM132 36h266q96 0 145 46.5t49 119.5q0 72 -46 113t-130 41h-293v35h291q53 0 88.5 18.5t54 51.5
t18.5 77q0 73 -48.5 114.5t-128.5 41.5h-266v-658z" />
    <glyph glyph-name="C" unicode="C" horiz-adv-x="771" 
d="M405 -8q-79 0 -143.5 26.5t-111 76t-71 118t-24.5 151.5q0 84 25 152.5t71 117.5t110.5 75.5t143.5 26.5q85 0 152 -29.5t110.5 -83.5t56.5 -129h-40q-11 61 -48 107t-95.5 72.5t-135.5 26.5q-96 0 -165 -42t-106.5 -117.5t-37.5 -176.5q0 -75 21.5 -137t61.5 -106.5
t97 -68.5t129 -24q77 0 136 26t96 73.5t47 110.5h40q-10 -75 -53 -130.5t-111 -85.5t-155 -30z" />
    <glyph glyph-name="D" unicode="D" horiz-adv-x="741" 
d="M94 0v729h270q100 0 172 -45t110.5 -127t38.5 -193q0 -82 -22 -149.5t-63.5 -115t-101 -73.5t-134.5 -26h-270zM132 37h231q66 0 118.5 23t89 66.5t55.5 104t19 134.5q0 103 -34.5 176t-98 112.5t-149.5 39.5h-231v-656z" />
    <glyph glyph-name="E" unicode="E" horiz-adv-x="612" 
d="M94 0v729h481v-36h-454l11 11v-678l-11 11h454v-37h-481zM121 358v34h406v-34h-406z" />
    <glyph glyph-name="F" unicode="F" horiz-adv-x="604" 
d="M94 0v729h479v-36h-452l11 11v-704h-38zM112 349v35h421v-35h-421z" />
    <glyph glyph-name="G" unicode="G" horiz-adv-x="806" 
d="M405 -8q-79 0 -143.5 26.5t-111 76t-71 118t-24.5 151.5q0 84 25 152.5t71 117.5t110.5 75.5t143.5 26.5q84 0 151 -25.5t111 -74.5t58 -121h-40q-14 57 -51 98.5t-94.5 64t-134.5 22.5q-96 0 -165 -42t-106.5 -117.5t-37.5 -176.5q0 -75 21.5 -137t61.5 -106.5t97 -68.5
t129 -24q84 0 149 33t102 93.5t37 143.5v61l19 -19h-339v36h361v-376h-32l-5 174h-6q-17 -55 -59 -96t-100.5 -63.5t-126.5 -22.5z" />
    <glyph glyph-name="H" unicode="H" horiz-adv-x="770" 
d="M94 0v729h38v-729h-38zM638 0v729h38v-729h-38zM112 362v36h546v-36h-546z" />
    <glyph glyph-name="I" unicode="I" horiz-adv-x="226" 
d="M94 0v729h38v-729h-38z" />
    <glyph glyph-name="J" unicode="J" horiz-adv-x="378" 
d="M28 0v35h101q71 0 97 35t26 105v554h38v-559q0 -56 -16.5 -94t-52 -57t-92.5 -19h-101z" />
    <glyph glyph-name="K" unicode="K" horiz-adv-x="647" 
d="M570 0l-284 398l-163 -167v51l435 447h51l-297 -304l305 -425h-47zM94 0v729h38v-729h-38z" />
    <glyph glyph-name="L" unicode="L" horiz-adv-x="543" 
d="M94 0v729h38v-714l-18 22h400v-37h-420z" />
    <glyph glyph-name="M" unicode="M" horiz-adv-x="879" 
d="M94 0v729h70l168 -425l104 -262h7l104 262l169 425h69v-729h-38v420l1 278h-7l-96 -247l-181 -451h-48l-182 451l-96 247h-7l1 -278v-420h-38z" />
    <glyph glyph-name="N" unicode="N" horiz-adv-x="764" 
d="M94 0v729h55l482 -686h5l-4 260v426h38v-729h-55l-481 686h-5l3 -250v-436h-38z" />
    <glyph glyph-name="O" unicode="O" horiz-adv-x="810" 
d="M405 -8q-79 0 -143.5 26.5t-111 76t-71 118t-24.5 151.5q0 84 25 152.5t71 117.5t110.5 75.5t143.5 26.5q80 0 144 -26.5t110.5 -76t71 -117.5t24.5 -152t-25 -152.5t-71.5 -117.5t-110.5 -75.5t-143 -26.5zM405 28q96 0 165.5 42.5t107 118t37.5 175.5q0 76 -21.5 137.5
t-62 106t-97.5 68.5t-129 24q-96 0 -165 -42t-106.5 -117.5t-37.5 -176.5q0 -75 21.5 -137t61.5 -106.5t97 -68.5t129 -24z" />
    <glyph glyph-name="P" unicode="P" horiz-adv-x="651" 
d="M94 0v729h267q75 0 130 -26t85 -75t30 -119q0 -67 -30.5 -116.5t-85.5 -76.5t-130 -27h-237v36h235q101 0 154.5 50.5t53.5 133.5q0 86 -54 134.5t-154 48.5h-240l14 12v-704h-38z" />
    <glyph glyph-name="Q" unicode="Q" horiz-adv-x="824" 
d="M405 23l245 11h126v-34h-371v23zM405 -8q-79 0 -143.5 26.5t-111 76t-71 118t-24.5 151.5q0 84 25 152.5t71 117.5t110.5 75.5t143.5 26.5q80 0 144 -26.5t110.5 -76t71 -117.5t24.5 -152t-25 -152.5t-71.5 -117.5t-110.5 -75.5t-143 -26.5zM405 28q96 0 165.5 42.5
t107 118t37.5 175.5q0 76 -21.5 137.5t-62 106t-97.5 68.5t-129 24q-96 0 -165 -42t-106.5 -117.5t-37.5 -176.5q0 -75 21.5 -137t61.5 -106.5t97 -68.5t129 -24z" />
    <glyph glyph-name="R" unicode="R" horiz-adv-x="693" 
d="M94 0v729h310q43 0 77.5 -8t61.5 -24t45 -39t27.5 -52.5t9.5 -65.5q0 -68 -32.5 -114.5t-98.5 -65.5v-5q43 -7 68.5 -26t36.5 -49.5t11 -72.5v-134q0 -17 1.5 -35t9.5 -38h-39q-7 17 -9 35t-2 42v123q0 46 -13 76t-47 45t-97 15h-291v35h277q100 0 143 46t43 119
q0 41 -13 70.5t-38 49t-59 28.5t-76 9h-268v-693h-38z" />
    <glyph glyph-name="S" unicode="S" horiz-adv-x="634" 
d="M321 -8q-93 0 -152.5 30t-88 83t-30.5 120h41q2 -61 27 -106t74.5 -69t126.5 -24q68 0 118.5 17t78.5 52t28 88q0 42 -12.5 71t-40 48.5t-70 33t-102.5 24.5q-62 12 -109 26t-78.5 34.5t-47.5 52t-16 77.5q0 56 29 98t83.5 65.5t131.5 23.5q81 0 135 -26t82.5 -72.5
t29.5 -109.5h-40q-2 56 -27.5 95t-71.5 59t-112 20q-64 0 -108.5 -18.5t-68 -51.5t-23.5 -78q0 -51 22.5 -80t72 -46t130.5 -32q52 -9 97.5 -22t80 -35.5t54 -59.5t19.5 -95t-30.5 -101.5t-89.5 -67.5t-143 -24z" />
    <glyph glyph-name="T" unicode="T" horiz-adv-x="594" 
d="M278 0v703h38v-703h-38zM28 693v36h538v-36h-538z" />
    <glyph glyph-name="U" unicode="U" horiz-adv-x="723" 
d="M362 -8q-86 0 -149 31.5t-97 91.5t-34 145v469h38v-465q0 -79 29.5 -131.5t84 -78t128.5 -25.5q83 0 136.5 29t79.5 82t26 124v465h37v-469q0 -80 -32 -140.5t-94 -94t-153 -33.5z" />
    <glyph glyph-name="V" unicode="V" horiz-adv-x="682" 
d="M316 0l-285 729h42l154 -396l111 -297h6l112 297l155 396h40l-285 -729h-50z" />
    <glyph glyph-name="W" unicode="W" horiz-adv-x="954" 
d="M228 0l-193 729h41l127 -481l51 -215h6l55 215l134 481h56l134 -481l55 -215h6l51 215l127 481h41l-193 -729h-58l-127 459l-61 233h-6l-61 -233l-128 -459h-57z" />
    <glyph glyph-name="X" unicode="X" horiz-adv-x="664" 
d="M27 0l278 396l-233 333h43l139 -198l74 -109h6l74 109l140 198h43l-233 -332l278 -397h-46l-167 236l-89 132h-6l-89 -132l-167 -236h-45z" />
    <glyph glyph-name="Y" unicode="Y" horiz-adv-x="634" 
d="M297 0v300l-270 429h46l135 -216l106 -176h5l107 176l136 216h45l-272 -429v-300h-38z" />
    <glyph glyph-name="Z" unicode="Z" horiz-adv-x="618" 
d="M34 0v29l486 664h-471v36h523v-28l-486 -664h498v-37h-550z" />
    <glyph glyph-name="bracketleft" unicode="[" horiz-adv-x="345" 
d="M102 -167v960h203v-32h-167v-896h167v-32h-203z" />
    <glyph glyph-name="backslash" unicode="\" horiz-adv-x="355" 
d="M320 -81l-324 810h36l327 -810h-39z" />
    <glyph glyph-name="bracketright" unicode="]" horiz-adv-x="345" 
d="M243 793v-960h-203v32h167v896h-167v32h203z" />
    <glyph glyph-name="asciicircum" unicode="^" horiz-adv-x="600" 
d="M150 475l131 254h38l132 -254h-41l-110 216l-111 -216h-39z" />
    <glyph glyph-name="underscore" unicode="_" horiz-adv-x="450" 
d="M60 -33v33h330v-33h-330z" />
    <glyph glyph-name="grave" unicode="`" horiz-adv-x="189" 
d="M118 746l-78 136h41l68 -136h-31z" />
    <glyph glyph-name="a" unicode="a" horiz-adv-x="592" 
d="M272 -8q-48 0 -88 18.5t-69 53t-44.5 84t-15.5 111.5q0 83 27.5 143t76.5 92t113 32q49 0 88.5 -16t67 -44.5t40.5 -67.5h3l2 119h34v-517h-34l-2 121h-3q-20 -58 -71 -93.5t-125 -35.5zM280 26q60 0 102.5 28.5t65 73.5t22.5 96v71q0 51 -22.5 96.5t-65 73.5t-102.5 28
q-56 0 -98 -27.5t-65.5 -79.5t-23.5 -127q0 -73 23.5 -125.5t65.5 -80t98 -27.5z" />
    <glyph glyph-name="b" unicode="b" horiz-adv-x="592" 
d="M320 -9q-49 0 -88.5 16t-66.5 45t-41 67h-3l-2 -119h-34v729h37v-333h2q20 58 71.5 93.5t124.5 35.5q48 0 88 -18.5t69 -53t44.5 -84t15.5 -111.5q0 -83 -27.5 -143t-76 -92t-113.5 -32zM312 24q56 0 98 27.5t65.5 80t23.5 126.5q0 55 -13.5 98.5t-38 73.5t-59 45.5
t-76.5 15.5q-60 0 -102.5 -28t-65 -73.5t-22.5 -96.5v-71q0 -51 22.5 -96t65 -73.5t102.5 -28.5z" />
    <glyph glyph-name="c" unicode="c" horiz-adv-x="553" 
d="M293 -8q-54 0 -98.5 19t-76.5 54t-49 83.5t-17 108.5t17 109t49.5 84.5t77.5 55t100 19.5t99.5 -20t73.5 -56.5t37 -84.5h-36q-10 41 -35 69t-61.5 42.5t-79.5 14.5q-48 0 -85.5 -17t-64.5 -48t-41 -73.5t-14 -94.5q0 -71 25.5 -122.5t71.5 -79.5t107 -28q48 0 85.5 17
t62.5 47.5t32 72.5h37q-8 -52 -38 -91t-75.5 -60t-103.5 -21z" />
    <glyph glyph-name="d" unicode="d" horiz-adv-x="592" 
d="M272 -8q-48 0 -88 18.5t-69 53t-44.5 84t-15.5 111.5q0 83 27.5 143t76.5 92t113 32q49 0 88.5 -16t67 -44.5t40.5 -67.5h2v331h37v-729h-34l-2 121h-3q-20 -58 -71 -93.5t-125 -35.5zM280 26q60 0 102.5 28.5t65 73.5t22.5 96v71q0 51 -22.5 96.5t-65 73.5t-102.5 28
q-56 0 -98 -27.5t-65.5 -79.5t-23.5 -127q0 -73 23.5 -125.5t65.5 -80t98 -27.5z" />
    <glyph glyph-name="e" unicode="e" horiz-adv-x="565" 
d="M290 -8q-72 0 -125 33t-82.5 93t-29.5 140t28 140t81 93.5t126 33.5q79 0 130.5 -35t74.5 -96t16 -138h-419q2 -73 27 -124.5t69.5 -78.5t103.5 -27q71 0 118 33t61 88h38q-9 -47 -40 -82t-76.5 -54t-100.5 -19zM91 284l-5 6h393l-5 -9q1 71 -22.5 117.5t-65.5 69.5
t-99 23t-100 -25t-67.5 -71t-28.5 -111z" />
    <glyph glyph-name="f" unicode="f" horiz-adv-x="316" 
d="M130 0v485h-108v32h108v95q0 59 31 88t83 29h63v-34h-54q-46 0 -66 -21t-20 -68v-89h127v-32h-127v-485h-37z" />
    <glyph glyph-name="g" unicode="g" horiz-adv-x="576" 
d="M271 -177q-52 0 -93 16t-67 46t-33 72h36q6 -31 27 -54t54 -35t76 -12q60 0 101 17.5t61.5 54.5t20.5 97v112h-2q-19 -55 -68.5 -89.5t-120.5 -34.5q-46 0 -84.5 18t-66.5 51.5t-43 81t-15 106.5q0 80 26.5 137.5t73.5 88.5t109 31q71 0 120.5 -33.5t68.5 -89.5h3l2 113
h34v-492q0 -68 -26.5 -113t-75.5 -67t-118 -22zM272 47q57 0 98 27t62.5 70.5t21.5 92.5v68q0 49 -21.5 92t-62 70t-98.5 27q-54 0 -94.5 -26.5t-63 -76.5t-22.5 -121q0 -70 22.5 -120t63 -76.5t94.5 -26.5z" />
    <glyph glyph-name="h" unicode="h" horiz-adv-x="581" 
d="M85 0v729h36v-329h4q26 62 78.5 93.5t114.5 31.5q41 0 75.5 -12.5t59.5 -39.5t39 -69.5t14 -103.5v-300h-37v294q0 68 -17 111.5t-51.5 64.5t-87.5 21q-57 0 -100.5 -28t-67.5 -76.5t-24 -112.5v-274h-36z" />
    <glyph glyph-name="i" unicode="i" horiz-adv-x="207" 
d="M85 0v517h37v-517h-37zM104 625q-14 0 -23 9t-9 22q0 14 9 22.5t23 8.5t23 -8.5t9 -22.5q0 -13 -9 -22t-23 -9z" />
    <glyph glyph-name="j" unicode="j" horiz-adv-x="207" 
d="M-25 -167v34h46q35 0 49.5 16.5t14.5 56.5v577h37v-587q0 -29 -10 -51t-29.5 -34t-50.5 -12h-57zM104 625q-14 0 -23 9t-9 22q0 14 9 22.5t23 8.5t23 -8.5t9 -22.5q0 -13 -9 -22t-23 -9z" />
    <glyph glyph-name="k" unicode="k" horiz-adv-x="511" 
d="M85 0v729h37v-509l49 49l254 248h49l-203 -197l215 -320h-43l-166 244l-32 50l-123 -119v-175h-37z" />
    <glyph glyph-name="l" unicode="l" horiz-adv-x="207" 
d="M85 0v729h37v-729h-37z" />
    <glyph glyph-name="m" unicode="m" horiz-adv-x="956" 
d="M85 0v517h34l2 -117h4q26 62 77.5 93.5t113.5 31.5q63 0 109 -31t65 -100h8q26 65 79 98t119 33q54 0 96 -22.5t65.5 -72t23.5 -130.5v-300h-36v294q0 68 -17 111.5t-51 64.5t-87 21q-56 0 -98.5 -28t-66 -76.5t-23.5 -112.5v-274h-38v294q0 68 -17 111.5t-50.5 64.5
t-85.5 21q-57 0 -99.5 -28t-66.5 -76.5t-24 -112.5v-274h-36z" />
    <glyph glyph-name="n" unicode="n" horiz-adv-x="581" 
d="M85 0v517h34l2 -117h4q26 62 78.5 93.5t114.5 31.5q41 0 75.5 -12.5t59.5 -39.5t39 -69.5t14 -103.5v-300h-37v294q0 68 -17 111.5t-51.5 64.5t-87.5 21q-57 0 -100.5 -28t-67.5 -76.5t-24 -112.5v-274h-36z" />
    <glyph glyph-name="o" unicode="o" horiz-adv-x="589" 
d="M296 -8q-55 0 -99.5 19t-77 54.5t-50 84t-17.5 107.5q0 79 30.5 139.5t85.5 94.5t128 34q54 0 98.5 -19t76 -54.5t49 -84.5t17.5 -109q0 -78 -30 -138t-84.5 -94t-126.5 -34zM295 28q61 0 107 28t71.5 80t25.5 122q0 52 -14 94.5t-40.5 73.5t-64 47.5t-84.5 16.5
q-61 0 -107.5 -28.5t-72.5 -80.5t-26 -124q0 -51 14 -93.5t41 -72.5t65 -46.5t85 -16.5z" />
    <glyph glyph-name="p" unicode="p" horiz-adv-x="592" 
d="M85 -167v684h34l2 -121h3q20 58 71.5 93.5t124.5 35.5q48 0 88 -18.5t69 -53t44.5 -84t15.5 -111.5q0 -83 -27.5 -143t-76 -92t-113.5 -32q-49 0 -88.5 16t-66.5 45t-41 67h-2v-286h-37zM312 24q56 0 98 27.5t65.5 80t23.5 126.5t-23.5 126t-65.5 79.5t-98 27.5
q-60 0 -102.5 -28t-65 -73.5t-22.5 -96.5v-71q0 -51 22.5 -96t65 -73.5t102.5 -28.5z" />
    <glyph glyph-name="q" unicode="q" horiz-adv-x="592" 
d="M470 -167v288h-2q-20 -58 -71 -93.5t-125 -35.5q-48 0 -88 18.5t-69 53t-44.5 84t-15.5 111.5q0 83 27.5 143t76.5 92t113 32q49 0 88.5 -16t67 -44.5t40.5 -67.5h3l2 119h34v-684h-37zM280 26q60 0 102.5 28.5t65 73.5t22.5 96v71q0 51 -22.5 96.5t-65 73.5t-102.5 28
q-56 0 -98 -27.5t-65.5 -79.5t-23.5 -127q0 -73 23.5 -125.5t65.5 -80t98 -27.5z" />
    <glyph glyph-name="r" unicode="r" horiz-adv-x="340" 
d="M85 0v517h32l4 -104h2q17 50 62 80.5t101 30.5q9 0 17 -0.5t15 -1.5v-36q-7 1 -15 1.5t-16 0.5q-43 0 -79 -18t-59 -52t-28 -82v-336h-36z" />
    <glyph glyph-name="s" unicode="s" horiz-adv-x="494" 
d="M249 -10q-46 0 -82.5 11.5t-62.5 32t-40 50t-16 65.5h37q3 -43 24 -71t57.5 -41.5t83.5 -13.5q74 0 114 28.5t40 80.5q0 38 -16 60t-49.5 34t-87.5 20q-61 9 -103 24t-63.5 42t-21.5 73q0 43 23 74.5t64 49.5t96 18q58 0 99 -18.5t63.5 -53t23.5 -82.5h-36
q-2 44 -21.5 70.5t-52 38.5t-75.5 12q-70 0 -108.5 -29t-38.5 -76q0 -34 17 -55.5t52 -33t88 -19.5q54 -8 96 -22t65.5 -43t23.5 -81q0 -46 -24 -78.5t-67.5 -49.5t-101.5 -17z" />
    <glyph glyph-name="t" unicode="t" horiz-adv-x="330" 
d="M225 0q-45 0 -70.5 22.5t-25.5 74.5v388h-107v32h107v164l36 9v-173h131v-32h-130v-384q0 -34 15 -49.5t47 -15.5h70v-36h-73z" />
    <glyph glyph-name="u" unicode="u" horiz-adv-x="581" 
d="M264 -8q-56 0 -99 23t-66.5 70.5t-23.5 118.5v313h37v-306q0 -58 16.5 -99.5t52 -63.5t91.5 -22q54 0 96.5 27t66.5 77.5t24 118.5v268h37v-517h-34l-3 121h-4q-21 -59 -72.5 -94t-118.5 -35z" />
    <glyph glyph-name="v" unicode="v" horiz-adv-x="490" 
d="M222 0l-196 517h40l115 -309l62 -177h4l62 177l115 309h40l-196 -517h-46z" />
    <glyph glyph-name="w" unicode="w" horiz-adv-x="724" 
d="M177 0l-146 517h38l84 -309l47 -177h4l48 177l86 309h46l89 -309l49 -177h4l46 177l83 309h38l-145 -517h-49l-85 295l-51 181h-4l-49 -181l-82 -295h-51z" />
    <glyph glyph-name="x" unicode="x" horiz-adv-x="511" 
d="M22 0l211 271l-188 246h42l155 -206l13 -17h4l12 17l152 206h42l-186 -246l208 -271h-44l-171 228l-14 19h-4l-15 -19l-176 -228h-41z" />
    <glyph glyph-name="y" unicode="y" horiz-adv-x="492" 
d="M53 -167v32h47q26 0 44 7.5t31 23t22 39.5l41 104v-16l-213 494h41l124 -294l60 -152h4l56 152l117 294h39l-238 -594q-12 -30 -28 -50t-39.5 -30t-58.5 -10h-49z" />
    <glyph glyph-name="z" unicode="z" horiz-adv-x="482" 
d="M30 0v29l367 456h-356v32h400v-30l-366 -455h377v-32h-422z" />
    <glyph glyph-name="braceleft" unicode="{" horiz-adv-x="375" 
d="M173 -167q-21 0 -31 12t-10 31v333q0 41 -20 63t-43 22h-31v37h31q23 0 43 22t20 64v333q0 19 10 31t31 12h162v-32h-167v-344q0 -46 -22 -73.5t-48 -28.5v-4q28 -1 49 -30t21 -73v-343h167v-32h-162z" />
    <glyph glyph-name="bar" unicode="|" horiz-adv-x="258" 
d="M111 -67v796h36v-796h-36z" />
    <glyph glyph-name="braceright" unicode="}" horiz-adv-x="375" 
d="M202 793q21 0 31 -12t10 -31v-333q0 -41 20 -63t43 -22h31v-37h-31q-23 0 -43 -22t-20 -64v-333q0 -19 -10 -31t-31 -12h-162v32h167v344q0 46 22 73.5t48 28.5v4q-28 2 -49 30.5t-21 72.5v343h-167v32h162z" />
    <glyph glyph-name="asciitilde" unicode="~" horiz-adv-x="600" 
d="M97 301q-3 44 9 66.5t30.5 30t34.5 7.5q20 0 40.5 -7t41.5 -16.5t41.5 -17t39.5 -7.5q26 0 40 16t13 48h30q2 -29 -4 -49.5t-18 -33t-28 -18t-34 -5.5q-21 0 -43.5 7.5t-44 17t-40.5 16.5t-35 7q-21 0 -33.5 -16.5t-9.5 -45.5h-30z" />
    <glyph glyph-name="uni00A0" unicode="&#xa0;" horiz-adv-x="239" 
 />
    <glyph glyph-name="exclamdown" unicode="&#xa1;" horiz-adv-x="226" 
d="M123 331l9 -307v-236h-39v236l10 307h20zM113 524q13 0 21.5 -8t8.5 -21t-8.5 -21t-21.5 -8t-21.5 8t-8.5 21t8.5 21t21.5 8z" />
    <glyph glyph-name="cent" unicode="&#xa2;" horiz-adv-x="587" 
d="M307 98q-54 0 -98.5 19t-76.5 54t-49 83.5t-17 108.5q0 80 30 140t85 94t129 34q57 0 102.5 -21.5t74.5 -60t35 -89.5h-36q-8 44 -33 74t-62.5 46t-82.5 16q-48 0 -85.5 -17t-64.5 -48t-41 -73.5t-14 -94.5q0 -71 25.5 -122.5t71.5 -79.5t107 -28q50 0 89 18t63 51.5
t29 77.5h37q-6 -55 -35 -96t-76 -63.5t-107 -22.5zM281 0v113h33v-113h-33zM281 617v112h33v-112h-33z" />
    <glyph glyph-name="sterling" unicode="&#xa3;" horiz-adv-x="623" 
d="M109 31q27 34 42.5 66t22.5 66.5t7 77.5q0 46 -9.5 82t-22 68t-22 66.5t-9.5 77.5q0 63 26.5 108.5t75.5 70t116 24.5q66 0 114 -25.5t74 -72.5t26 -113l-41 -1q0 83 -45.5 128.5t-127.5 45.5q-55 0 -95 -19.5t-61.5 -56.5t-21.5 -90q0 -40 10 -73.5t22.5 -66t22.5 -69.5
t10 -84q0 -42 -7.5 -80.5t-25.5 -74.5t-50 -73zM52 0v36h456v142h36v-178h-492zM72 345v35h361v-35h-361z" />
    <glyph glyph-name="currency" unicode="&#xa4;" horiz-adv-x="609" 
d="M79 97l-25 23l107 111q-19 22 -30.5 52.5t-11.5 64.5q0 35 12 66t31 54l-108 109l25 25l109 -111q22 17 51.5 27.5t65.5 10.5q33 0 63.5 -9.5t53.5 -28.5l109 111l25 -25l-109 -109q20 -23 31 -54t11 -66q0 -32 -11 -63t-32 -54l110 -111l-25 -23l-109 111
q-23 -19 -53.5 -30t-63.5 -11t-63.5 10.5t-54.5 29.5zM305 203q43 0 76.5 19t52.5 52t19 75q0 43 -19.5 76t-52.5 52t-76 19t-76.5 -19t-53 -52t-19.5 -76q0 -42 19 -75t53 -52t77 -19z" />
    <glyph glyph-name="yen" unicode="&#xa5;" horiz-adv-x="630" 
d="M298 0v159h-191v33h191v119h-191v33h171l-232 385h41l227 -383h3l226 383h41l-230 -385h168v-33h-188v-119h188v-33h-188v-159h-36z" />
    <glyph glyph-name="brokenbar" unicode="&#xa6;" horiz-adv-x="258" 
d="M111 417v312h36v-312h-36zM111 -67v312h36v-312h-36z" />
    <glyph glyph-name="section" unicode="&#xa7;" horiz-adv-x="551" 
d="M267 -10q-46 0 -82.5 11.5t-62.5 32t-40 50t-16 65.5h37q3 -43 24 -71t57.5 -41.5t83.5 -13.5q74 0 114 28.5t40 80.5q0 38 -16 60t-49.5 34t-87.5 20q-58 9 -98 23.5t-60 42t-20 73.5q0 33 17.5 62.5t45.5 48.5q-26 17 -39.5 41t-13.5 60q0 43 23 74.5t64 49.5t96 18
q44 0 78 -10.5t57.5 -30.5t36.5 -48.5t14 -64.5h-36q-2 44 -21.5 70.5t-52 38.5t-75.5 12q-70 0 -108.5 -29t-38.5 -76q0 -52 38.5 -74.5t118.5 -33.5q51 -7 90.5 -21.5t62 -43.5t22.5 -81q0 -36 -15 -63.5t-41 -46.5q22 -16 34 -40.5t12 -61.5q0 -46 -24 -78.5t-67.5 -49.5
t-101.5 -17zM386 253q23 19 34.5 41t11.5 50q0 56 -33.5 79.5t-109.5 34.5q-31 5 -57 10.5t-46 13.5q-27 -18 -42.5 -41.5t-15.5 -51.5q0 -52 36 -74.5t111 -33.5q32 -4 60.5 -10.5t50.5 -17.5z" />
    <glyph glyph-name="dieresis" unicode="&#xa8;" horiz-adv-x="324" 
d="M252 780q-14 0 -23 9t-9 22q0 14 9 22.5t23 8.5t23 -8.5t9 -22.5q0 -13 -9 -22t-23 -9zM72 780q-14 0 -23 9t-9 22q0 14 9 22.5t23 8.5t23 -8.5t9 -22.5q0 -13 -9 -22t-23 -9z" />
    <glyph glyph-name="copyright" unicode="&#xa9;" horiz-adv-x="871" 
d="M444 160q-56 0 -98 25.5t-65.5 71t-23.5 105.5q0 61 23.5 107t66.5 72t100 26q45 0 80.5 -16.5t58 -46.5t26.5 -69h-34q-10 51 -48 75.5t-85 24.5t-81.5 -22t-53 -61t-18.5 -90q0 -52 19 -90.5t53.5 -59t79.5 -20.5q53 0 91 28t44 80h35q-4 -41 -26 -73t-59 -49.5
t-85 -17.5zM435 -10q-84 0 -153 26.5t-118.5 76t-76.5 118t-27 152.5t27 152.5t76.5 118t118.5 76t153 26.5t153.5 -26.5t119 -76t76.5 -118t27 -152.5t-27 -152.5t-76.5 -118t-119 -76t-153.5 -26.5zM435 21q102 0 179 43t120 120t43 179t-43 179.5t-120 120.5t-179 43
q-101 0 -178 -43t-120 -120.5t-43 -179.5t43 -179t120 -120t178 -43z" />
    <glyph glyph-name="ordfeminine" unicode="&#xaa;" horiz-adv-x="449" 
d="M202 386q-42 0 -73.5 21t-49.5 59.5t-18 93.5t18 94t49.5 60t73.5 21q47 0 79.5 -22t45.5 -59h2l2 75h33v-338h-35v76h-2q-14 -39 -47.5 -60t-77.5 -21zM212 416q37 0 63 17.5t39.5 45.5t13.5 59v45q0 31 -13.5 59t-39.5 45.5t-63 17.5q-34 0 -60 -17t-40.5 -49
t-14.5 -79q0 -68 31.5 -106t83.5 -38z" />
    <glyph glyph-name="guillemotleft" unicode="&#xab;" horiz-adv-x="402" 
d="M172 80l-120 219l120 218h33l-113 -218l113 -219h-33zM317 80l-120 219l120 218h33l-113 -218l113 -219h-33z" />
    <glyph glyph-name="logicalnot" unicode="&#xac;" horiz-adv-x="600" 
d="M480 153v212h-443v32h475v-244h-32z" />
    <glyph glyph-name="registered" unicode="&#xae;" horiz-adv-x="659" 
d="M328 231q-72 0 -129 32.5t-90.5 90t-33.5 131.5q0 56 19 102t53.5 80t80.5 52.5t100 18.5q73 0 131 -32.5t92 -89.5t34 -131q0 -55 -19.5 -101.5t-54.5 -81t-81.5 -53t-101.5 -18.5zM330 259q64 0 114.5 29t80.5 80t30 116q0 66 -30 117.5t-81 80.5t-114 29t-114 -29.5
t-80.5 -80.5t-29.5 -117q0 -65 30 -116t80.5 -80t113.5 -29zM235 349v272h116q44 0 66.5 -19.5t22.5 -53.5q0 -25 -13.5 -42t-34.5 -23v-1q22 -5 32 -19t10 -37v-51q0 -3 0.5 -11t2.5 -15h-25q-4 5 -4.5 9.5t-0.5 20.5v50q0 17 -8 27.5t-34 10.5h-110v26h95q30 0 46 14.5
t16 38.5q0 25 -17 36.5t-45 11.5h-88v-245h-27z" />
    <glyph glyph-name="macron" unicode="&#xaf;" horiz-adv-x="399" 
d="M40 780v33h319v-33h-319z" />
    <glyph glyph-name="degree" unicode="&#xb0;" horiz-adv-x="473" 
d="M236 443q-42 0 -76.5 18.5t-55 52t-20.5 76.5q0 44 20.5 77t55 51.5t76.5 18.5q43 0 77.5 -18.5t55 -51.5t20.5 -77q0 -43 -20.5 -76.5t-55 -52t-77.5 -18.5zM236 478q50 0 83 31.5t33 80.5q0 50 -33 81t-83 31q-49 0 -82 -31t-33 -81q0 -49 33 -80.5t82 -31.5z" />
    <glyph glyph-name="plusminus" unicode="&#xb1;" horiz-adv-x="600" 
d="M283 162v203h-222v32h222v203h34v-203h222v-32h-222v-203h-34zM61 0v32h478v-32h-478z" />
    <glyph glyph-name="uni00B2" unicode="&#xb2;" horiz-adv-x="370" 
d="M53 336v13q0 38 16.5 66.5t42.5 52t55.5 44t55.5 41.5t42.5 45.5t16.5 54.5q0 42 -26 66t-70 24t-73 -27t-28 -74h-35q-1 59 37 95t100 36q60 0 95 -32.5t35 -86.5q0 -34 -15.5 -61t-41 -48.5t-53.5 -41.5t-54.5 -40t-44 -43.5t-20.5 -52.5h232v-31h-267z" />
    <glyph glyph-name="uni00B3" unicode="&#xb3;" horiz-adv-x="393" 
d="M184 331q-40 0 -70.5 15t-47.5 42.5t-19 62.5h34q3 -43 32 -66.5t71 -23.5q50 0 79.5 26t29.5 69q0 46 -26.5 68t-70.5 22h-41v28h32q50 0 77 24t27 62q0 41 -27 62.5t-71 21.5t-72 -24.5t-30 -65.5h-35q2 38 20.5 64.5t48.5 41t68 14.5q31 0 55.5 -8t42 -22.5t26.5 -35
t9 -45.5q0 -38 -22 -64t-55 -36v-3q38 -8 59 -36.5t21 -69.5q0 -37 -18 -64.5t-50.5 -43t-76.5 -15.5z" />
    <glyph glyph-name="acute" unicode="&#xb4;" horiz-adv-x="189" 
d="M40 746l68 136h41l-78 -136h-31z" />
    <glyph glyph-name="paragraph" unicode="&#xb6;" horiz-adv-x="595" 
d="M239 0v406q-87 -1 -134 44.5t-47 120.5q0 51 22 86t63 53.5t96 18.5h311v-36h-110v-693h-38v693h-125v-693h-38z" />
    <glyph glyph-name="periodcentered" unicode="&#xb7;" horiz-adv-x="195" 
d="M98 232q-20 0 -33 13t-13 32q0 13 6 23t16.5 16t23.5 6q21 0 33 -12.5t12 -32.5q0 -13 -5.5 -23t-15.5 -16t-24 -6z" />
    <glyph glyph-name="cedilla" unicode="&#xb8;" horiz-adv-x="279" 
d="M139 -233q-37 0 -63 17t-36 47l33 10q8 -21 24.5 -32.5t41.5 -12.5q32 0 48.5 16t16.5 41q0 28 -21.5 44.5t-73.5 26.5l-10 21l33 65h32l-28 -62q50 -11 76.5 -36t26.5 -61q0 -37 -27.5 -61t-72.5 -23z" />
    <glyph glyph-name="uni00B9" unicode="&#xb9;" horiz-adv-x="247" 
d="M128 336v337h-100v26h16q44 0 62.5 19.5t21.5 50.5h34v-433h-34z" />
    <glyph glyph-name="ordmasculine" unicode="&#xba;" horiz-adv-x="436" 
d="M219 386q-48 0 -84 21.5t-56.5 60.5t-20.5 91t20 91t56.5 61.5t84.5 22.5q71 0 115 -47.5t44 -126.5q0 -52 -20 -91t-55.5 -61t-83.5 -22zM219 417q37 0 65 17.5t43.5 49.5t15.5 76t-15 76t-43 49.5t-66 17.5q-37 0 -65.5 -17.5t-44 -49.5t-15.5 -77q0 -43 15 -75
t43.5 -49.5t66.5 -17.5z" />
    <glyph glyph-name="guillemotright" unicode="&#xbb;" horiz-adv-x="402" 
d="M230 517l120 -219l-120 -218h-33l113 218l-113 219h33zM85 517l120 -219l-120 -218h-33l113 218l-113 219h33z" />
    <glyph glyph-name="onequarter" unicode="&#xbc;" horiz-adv-x="671" 
d="M122 332v309h-92v24h14q42 0 58.5 18t18.5 46h32v-397h-31zM29 0l496 721h38l-497 -721h-37zM533 0v374l9 -3l-170 -239h268v-27h-302v26l190 266h37v-397h-32z" />
    <glyph glyph-name="onehalf" unicode="&#xbd;" horiz-adv-x="705" 
d="M122 332v309h-92v24h14q42 0 58.5 18t18.5 46h32v-397h-31zM29 0l496 721h38l-497 -721h-37zM408 0v12q0 34 15 60.5t39 48t51 40.5t51 38.5t39 41.5t15 50q0 38 -23 60t-64 22q-43 0 -68.5 -26t-24.5 -67h-32q-1 50 32.5 85.5t92.5 35.5q56 0 88 -30t32 -80
q0 -31 -14.5 -55.5t-37.5 -44.5t-49 -38t-50 -36.5t-40 -40t-19 -48.5h212v-28h-245z" />
    <glyph glyph-name="threequarters" unicode="&#xbe;" horiz-adv-x="792" 
d="M175 327q-55 0 -89.5 31t-36.5 80h31q2 -37 28.5 -60t66.5 -23q45 0 72 23.5t27 63.5q0 41 -24 62t-65 21h-37v25h29q46 0 71 22t25 57q0 37 -24.5 57t-65.5 20q-40 0 -66 -22.5t-28 -59.5h-31q2 52 37.5 81t87.5 29q28 0 50.5 -7.5t38.5 -21t24.5 -32t8.5 -41.5
q0 -34 -19.5 -58t-51.5 -34v-3q33 -7 53 -32t20 -65q0 -51 -36.5 -82t-95.5 -31zM150 0l496 721h38l-497 -721h-37zM654 0v374l9 -3l-170 -239h268v-27h-302v26l190 266h37v-397h-32z" />
    <glyph glyph-name="questiondown" unicode="&#xbf;" horiz-adv-x="509" 
d="M266 348v-17q0 -39 -12.5 -71t-32.5 -59t-42.5 -52.5t-42.5 -53t-32.5 -59.5t-12.5 -72q0 -51 20.5 -85t57 -50.5t85.5 -16.5q83 0 128.5 50t44.5 126h37q1 -62 -25.5 -109.5t-74.5 -73.5t-112 -26q-48 0 -85 13t-62.5 37.5t-39 58.5t-13.5 76t13 76t33 62t42.5 54
t42.5 52t33 55t13 64v21h37zM249 524q13 0 21.5 -8t8.5 -21t-8.5 -21t-21.5 -8t-21.5 8t-8.5 21t8.5 21t21.5 8z" />
    <glyph glyph-name="Agrave" unicode="&#xc0;" horiz-adv-x="678" 
d="M31 0l282 729h53l281 -729h-40l-230 605l-34 91h-6l-34 -91l-231 -605h-41zM139 199v36h400v-36h-400zM323 803l-78 136h41l68 -136h-31z" />
    <glyph glyph-name="Aacute" unicode="&#xc1;" horiz-adv-x="678" 
d="M31 0l282 729h53l281 -729h-40l-230 605l-34 91h-6l-34 -91l-231 -605h-41zM139 199v36h400v-36h-400zM324 803l68 136h41l-78 -136h-31z" />
    <glyph glyph-name="Acircumflex" unicode="&#xc2;" horiz-adv-x="678" 
d="M31 0l282 729h53l281 -729h-40l-230 605l-34 91h-6l-34 -91l-231 -605h-41zM139 199v36h400v-36h-400zM215 803l103 136h42l104 -136h-39l-86 112l-85 -112h-39z" />
    <glyph glyph-name="Atilde" unicode="&#xc3;" horiz-adv-x="678" 
d="M31 0l282 729h53l281 -729h-40l-230 605l-34 91h-6l-34 -91l-231 -605h-41zM139 199v36h400v-36h-400zM404 833q-30 0 -52.5 7t-41.5 13.5t-41 6.5q-19 0 -32.5 -6t-26.5 -23l-20 12q13 18 25 29t27 16t34 5q21 0 43.5 -7t46 -14t46.5 -7q17 0 32.5 7t27.5 23l21 -13
q-12 -17 -25.5 -28t-29 -16t-34.5 -5z" />
    <glyph glyph-name="Adieresis" unicode="&#xc4;" horiz-adv-x="678" 
d="M31 0l282 729h53l281 -729h-40l-230 605l-34 91h-6l-34 -91l-231 -605h-41zM139 199v36h400v-36h-400zM429 837q-14 0 -23 9t-9 22q0 14 9 22.5t23 8.5t23 -8.5t9 -22.5q0 -13 -9 -22t-23 -9zM249 837q-14 0 -23 9t-9 22q0 14 9 22.5t23 8.5t23 -8.5t9 -22.5
q0 -13 -9 -22t-23 -9z" />
    <glyph glyph-name="Aring" unicode="&#xc5;" horiz-adv-x="678" 
d="M31 0l282 729h53l281 -729h-40l-230 605l-34 91h-6l-34 -91l-231 -605h-41zM139 199v36h400v-36h-400zM339 778q-41 0 -67 24.5t-26 64.5q0 41 26 65t67 24t67 -24t26 -65q0 -40 -26 -64.5t-67 -24.5zM339 806q28 0 44.5 17t16.5 44t-16.5 43.5t-44.5 16.5t-44.5 -16.5
t-16.5 -43.5t16.5 -44t44.5 -17z" />
    <glyph glyph-name="AE" unicode="&#xc6;" horiz-adv-x="912" 
d="M31 0l282 729h562v-36h-495l116 -301h331v-34h-318l124 -321h242v-37h-268l-76 199h-383l-76 -199h-41zM162 235h356l-141 370l-34 91h-6l-34 -91z" />
    <glyph glyph-name="Ccedilla" unicode="&#xc7;" horiz-adv-x="771" 
d="M405 -8q-79 0 -143.5 26.5t-111 76t-71 118t-24.5 151.5q0 84 25 152.5t71 117.5t110.5 75.5t143.5 26.5q85 0 152 -29.5t110.5 -83.5t56.5 -129h-40q-11 61 -48 107t-95.5 72.5t-135.5 26.5q-96 0 -165 -42t-106.5 -117.5t-37.5 -176.5q0 -75 21.5 -137t61.5 -106.5
t97 -68.5t129 -24q77 0 136 26t96 73.5t47 110.5h40q-10 -75 -53 -130.5t-111 -85.5t-155 -30zM407 -233q-37 0 -63 17t-36 47l33 10q8 -21 24.5 -32.5t41.5 -12.5q32 0 48.5 16t16.5 41q0 28 -21.5 44.5t-73.5 26.5l-10 21l33 65h32l-28 -62q50 -11 76.5 -36t26.5 -61
q0 -37 -27.5 -61t-72.5 -23z" />
    <glyph glyph-name="Egrave" unicode="&#xc8;" horiz-adv-x="612" 
d="M94 0v729h481v-36h-454l11 11v-678l-11 11h454v-37h-481zM121 358v34h406v-34h-406zM294 803l-78 136h41l68 -136h-31z" />
    <glyph glyph-name="Eacute" unicode="&#xc9;" horiz-adv-x="612" 
d="M94 0v729h481v-36h-454l11 11v-678l-11 11h454v-37h-481zM121 358v34h406v-34h-406zM295 803l68 136h41l-78 -136h-31z" />
    <glyph glyph-name="Ecircumflex" unicode="&#xca;" horiz-adv-x="612" 
d="M94 0v729h481v-36h-454l11 11v-678l-11 11h454v-37h-481zM121 358v34h406v-34h-406zM186 803l103 136h42l104 -136h-39l-86 112l-85 -112h-39z" />
    <glyph glyph-name="Edieresis" unicode="&#xcb;" horiz-adv-x="612" 
d="M94 0v729h481v-36h-454l11 11v-678l-11 11h454v-37h-481zM121 358v34h406v-34h-406zM400 837q-14 0 -23 9t-9 22q0 14 9 22.5t23 8.5t23 -8.5t9 -22.5q0 -13 -9 -22t-23 -9zM220 837q-14 0 -23 9t-9 22q0 14 9 22.5t23 8.5t23 -8.5t9 -22.5q0 -13 -9 -22t-23 -9z" />
    <glyph glyph-name="Igrave" unicode="&#xcc;" horiz-adv-x="226" 
d="M94 0v729h38v-729h-38zM97 803l-78 136h41l68 -136h-31z" />
    <glyph glyph-name="Iacute" unicode="&#xcd;" horiz-adv-x="226" 
d="M94 0v729h38v-729h-38zM98 803l68 136h41l-78 -136h-31z" />
    <glyph glyph-name="Icircumflex" unicode="&#xce;" horiz-adv-x="226" 
d="M94 0v729h38v-729h-38zM-11 803l103 136h42l104 -136h-39l-86 112l-85 -112h-39z" />
    <glyph glyph-name="Idieresis" unicode="&#xcf;" horiz-adv-x="226" 
d="M94 0v729h38v-729h-38zM203 837q-14 0 -23 9t-9 22q0 14 9 22.5t23 8.5t23 -8.5t9 -22.5q0 -13 -9 -22t-23 -9zM23 837q-14 0 -23 9t-9 22q0 14 9 22.5t23 8.5t23 -8.5t9 -22.5q0 -13 -9 -22t-23 -9z" />
    <glyph glyph-name="Eth" unicode="&#xd0;" horiz-adv-x="785" 
d="M138 0v729h270q100 0 172 -45t110.5 -127t38.5 -193q0 -82 -22 -149.5t-63.5 -115t-101 -73.5t-134.5 -26h-270zM176 37h231q66 0 118.5 23t89 66.5t55.5 104t19 134.5q0 103 -34.5 176t-98 112.5t-149.5 39.5h-231v-656zM31 349v32h354v-32h-354z" />
    <glyph glyph-name="Ntilde" unicode="&#xd1;" horiz-adv-x="764" 
d="M94 0v729h55l482 -686h5l-4 260v426h38v-729h-55l-481 686h-5l3 -250v-436h-38zM447 833q-30 0 -52.5 7t-41.5 13.5t-41 6.5q-19 0 -32.5 -6t-26.5 -23l-20 12q13 18 25 29t27 16t34 5q21 0 43.5 -7t46 -14t46.5 -7q17 0 32.5 7t27.5 23l21 -13q-12 -17 -25.5 -28
t-29 -16t-34.5 -5z" />
    <glyph glyph-name="Ograve" unicode="&#xd2;" horiz-adv-x="810" 
d="M405 -8q-79 0 -143.5 26.5t-111 76t-71 118t-24.5 151.5q0 84 25 152.5t71 117.5t110.5 75.5t143.5 26.5q80 0 144 -26.5t110.5 -76t71 -117.5t24.5 -152t-25 -152.5t-71.5 -117.5t-110.5 -75.5t-143 -26.5zM405 28q96 0 165.5 42.5t107 118t37.5 175.5q0 76 -21.5 137.5
t-62 106t-97.5 68.5t-129 24q-96 0 -165 -42t-106.5 -117.5t-37.5 -176.5q0 -75 21.5 -137t61.5 -106.5t97 -68.5t129 -24zM389 803l-78 136h41l68 -136h-31z" />
    <glyph glyph-name="Oacute" unicode="&#xd3;" horiz-adv-x="810" 
d="M405 -8q-79 0 -143.5 26.5t-111 76t-71 118t-24.5 151.5q0 84 25 152.5t71 117.5t110.5 75.5t143.5 26.5q80 0 144 -26.5t110.5 -76t71 -117.5t24.5 -152t-25 -152.5t-71.5 -117.5t-110.5 -75.5t-143 -26.5zM405 28q96 0 165.5 42.5t107 118t37.5 175.5q0 76 -21.5 137.5
t-62 106t-97.5 68.5t-129 24q-96 0 -165 -42t-106.5 -117.5t-37.5 -176.5q0 -75 21.5 -137t61.5 -106.5t97 -68.5t129 -24zM390 803l68 136h41l-78 -136h-31z" />
    <glyph glyph-name="Ocircumflex" unicode="&#xd4;" horiz-adv-x="810" 
d="M405 -8q-79 0 -143.5 26.5t-111 76t-71 118t-24.5 151.5q0 84 25 152.5t71 117.5t110.5 75.5t143.5 26.5q80 0 144 -26.5t110.5 -76t71 -117.5t24.5 -152t-25 -152.5t-71.5 -117.5t-110.5 -75.5t-143 -26.5zM405 28q96 0 165.5 42.5t107 118t37.5 175.5q0 76 -21.5 137.5
t-62 106t-97.5 68.5t-129 24q-96 0 -165 -42t-106.5 -117.5t-37.5 -176.5q0 -75 21.5 -137t61.5 -106.5t97 -68.5t129 -24zM281 803l103 136h42l104 -136h-39l-86 112l-85 -112h-39z" />
    <glyph glyph-name="Otilde" unicode="&#xd5;" horiz-adv-x="810" 
d="M405 -8q-79 0 -143.5 26.5t-111 76t-71 118t-24.5 151.5q0 84 25 152.5t71 117.5t110.5 75.5t143.5 26.5q80 0 144 -26.5t110.5 -76t71 -117.5t24.5 -152t-25 -152.5t-71.5 -117.5t-110.5 -75.5t-143 -26.5zM405 28q96 0 165.5 42.5t107 118t37.5 175.5q0 76 -21.5 137.5
t-62 106t-97.5 68.5t-129 24q-96 0 -165 -42t-106.5 -117.5t-37.5 -176.5q0 -75 21.5 -137t61.5 -106.5t97 -68.5t129 -24zM470 833q-30 0 -52.5 7t-41.5 13.5t-41 6.5q-19 0 -32.5 -6t-26.5 -23l-20 12q13 18 25 29t27 16t34 5q21 0 43.5 -7t46 -14t46.5 -7q17 0 32.5 7
t27.5 23l21 -13q-12 -17 -25.5 -28t-29 -16t-34.5 -5z" />
    <glyph glyph-name="Odieresis" unicode="&#xd6;" horiz-adv-x="810" 
d="M405 -8q-79 0 -143.5 26.5t-111 76t-71 118t-24.5 151.5q0 84 25 152.5t71 117.5t110.5 75.5t143.5 26.5q80 0 144 -26.5t110.5 -76t71 -117.5t24.5 -152t-25 -152.5t-71.5 -117.5t-110.5 -75.5t-143 -26.5zM405 28q96 0 165.5 42.5t107 118t37.5 175.5q0 76 -21.5 137.5
t-62 106t-97.5 68.5t-129 24q-96 0 -165 -42t-106.5 -117.5t-37.5 -176.5q0 -75 21.5 -137t61.5 -106.5t97 -68.5t129 -24zM495 837q-14 0 -23 9t-9 22q0 14 9 22.5t23 8.5t23 -8.5t9 -22.5q0 -13 -9 -22t-23 -9zM315 837q-14 0 -23 9t-9 22q0 14 9 22.5t23 8.5t23 -8.5
t9 -22.5q0 -13 -9 -22t-23 -9z" />
    <glyph glyph-name="multiply" unicode="&#xd7;" horiz-adv-x="600" 
d="M129 166l-24 24l171 171l-171 171l24 24l171 -171l171 171l24 -24l-171 -171l171 -171l-24 -24l-171 171z" />
    <glyph glyph-name="Oslash" unicode="&#xd8;" horiz-adv-x="810" 
d="M405 -8q-79 0 -143.5 26.5t-111 76t-71 118t-24.5 151.5q0 84 25 152.5t71 117.5t110.5 75.5t143.5 26.5q80 0 144 -26.5t110.5 -76t71 -117.5t24.5 -152t-25 -152.5t-71.5 -117.5t-110.5 -75.5t-143 -26.5zM405 28q96 0 165.5 42.5t107 118t37.5 175.5q0 76 -21.5 137.5
t-62 106t-97.5 68.5t-129 24q-96 0 -165 -42t-106.5 -117.5t-37.5 -176.5q0 -75 21.5 -137t61.5 -106.5t97 -68.5t129 -24zM86 -40l597 810h41l-594 -810h-44z" />
    <glyph glyph-name="Ugrave" unicode="&#xd9;" horiz-adv-x="723" 
d="M362 -8q-86 0 -149 31.5t-97 91.5t-34 145v469h38v-465q0 -79 29.5 -131.5t84 -78t128.5 -25.5q83 0 136.5 29t79.5 82t26 124v465h37v-469q0 -80 -32 -140.5t-94 -94t-153 -33.5zM346 803l-78 136h41l68 -136h-31z" />
    <glyph glyph-name="Uacute" unicode="&#xda;" horiz-adv-x="723" 
d="M362 -8q-86 0 -149 31.5t-97 91.5t-34 145v469h38v-465q0 -79 29.5 -131.5t84 -78t128.5 -25.5q83 0 136.5 29t79.5 82t26 124v465h37v-469q0 -80 -32 -140.5t-94 -94t-153 -33.5zM347 803l68 136h41l-78 -136h-31z" />
    <glyph glyph-name="Ucircumflex" unicode="&#xdb;" horiz-adv-x="723" 
d="M362 -8q-86 0 -149 31.5t-97 91.5t-34 145v469h38v-465q0 -79 29.5 -131.5t84 -78t128.5 -25.5q83 0 136.5 29t79.5 82t26 124v465h37v-469q0 -80 -32 -140.5t-94 -94t-153 -33.5zM238 803l103 136h42l104 -136h-39l-86 112l-85 -112h-39z" />
    <glyph glyph-name="Udieresis" unicode="&#xdc;" horiz-adv-x="723" 
d="M362 -8q-86 0 -149 31.5t-97 91.5t-34 145v469h38v-465q0 -79 29.5 -131.5t84 -78t128.5 -25.5q83 0 136.5 29t79.5 82t26 124v465h37v-469q0 -80 -32 -140.5t-94 -94t-153 -33.5zM452 837q-14 0 -23 9t-9 22q0 14 9 22.5t23 8.5t23 -8.5t9 -22.5q0 -13 -9 -22t-23 -9z
M272 837q-14 0 -23 9t-9 22q0 14 9 22.5t23 8.5t23 -8.5t9 -22.5q0 -13 -9 -22t-23 -9z" />
    <glyph glyph-name="Yacute" unicode="&#xdd;" horiz-adv-x="634" 
d="M297 0v300l-270 429h46l135 -216l106 -176h5l107 176l136 216h45l-272 -429v-300h-38zM303 803l68 136h41l-78 -136h-31z" />
    <glyph glyph-name="Thorn" unicode="&#xde;" horiz-adv-x="629" 
d="M114 145v36h222q101 0 154.5 50.5t53.5 133.5q0 43 -14 77t-40.5 57.5t-65 36t-88.5 12.5h-222v37h225q56 0 101.5 -14.5t77.5 -43t49 -69t17 -93.5q0 -67 -30 -116.5t-85.5 -76.5t-130.5 -27h-224zM94 0v729h38v-729h-38z" />
    <glyph glyph-name="germandbls" unicode="&#xdf;" horiz-adv-x="636" 
d="M131 0v521q0 54 16 95t44 68.5t66 41t83 13.5q63 0 108 -22.5t69 -62.5t24 -94q0 -35 -11.5 -66t-35.5 -54t-61 -36v-5q45 -5 80.5 -30t56 -65t20.5 -91q0 -65 -27.5 -113t-80 -74t-129.5 -26h-93v34h90q65 0 110.5 20t69 60t23.5 100q0 74 -45.5 119t-128.5 45h-77v33
h46q77 0 117.5 39t40.5 105q0 70 -44.5 109.5t-121.5 39.5q-83 0 -127.5 -49.5t-44.5 -138.5v-516h-37zM23 483v34h121v-34h-121z" />
    <glyph glyph-name="agrave" unicode="&#xe0;" horiz-adv-x="592" 
d="M272 -8q-48 0 -88 18.5t-69 53t-44.5 84t-15.5 111.5q0 83 27.5 143t76.5 92t113 32q49 0 88.5 -16t67 -44.5t40.5 -67.5h3l2 119h34v-517h-34l-2 121h-3q-20 -58 -71 -93.5t-125 -35.5zM280 26q60 0 102.5 28.5t65 73.5t22.5 96v71q0 51 -22.5 96.5t-65 73.5t-102.5 28
q-56 0 -98 -27.5t-65.5 -79.5t-23.5 -127q0 -73 23.5 -125.5t65.5 -80t98 -27.5zM285 591l-78 136h41l68 -136h-31z" />
    <glyph glyph-name="aacute" unicode="&#xe1;" horiz-adv-x="592" 
d="M272 -8q-48 0 -88 18.5t-69 53t-44.5 84t-15.5 111.5q0 83 27.5 143t76.5 92t113 32q49 0 88.5 -16t67 -44.5t40.5 -67.5h3l2 119h34v-517h-34l-2 121h-3q-20 -58 -71 -93.5t-125 -35.5zM280 26q60 0 102.5 28.5t65 73.5t22.5 96v71q0 51 -22.5 96.5t-65 73.5t-102.5 28
q-56 0 -98 -27.5t-65.5 -79.5t-23.5 -127q0 -73 23.5 -125.5t65.5 -80t98 -27.5zM286 591l68 136h41l-78 -136h-31z" />
    <glyph glyph-name="acircumflex" unicode="&#xe2;" horiz-adv-x="592" 
d="M272 -8q-48 0 -88 18.5t-69 53t-44.5 84t-15.5 111.5q0 83 27.5 143t76.5 92t113 32q49 0 88.5 -16t67 -44.5t40.5 -67.5h3l2 119h34v-517h-34l-2 121h-3q-20 -58 -71 -93.5t-125 -35.5zM280 26q60 0 102.5 28.5t65 73.5t22.5 96v71q0 51 -22.5 96.5t-65 73.5t-102.5 28
q-56 0 -98 -27.5t-65.5 -79.5t-23.5 -127q0 -73 23.5 -125.5t65.5 -80t98 -27.5zM177 591l103 136h42l104 -136h-39l-86 112l-85 -112h-39z" />
    <glyph glyph-name="atilde" unicode="&#xe3;" horiz-adv-x="592" 
d="M272 -8q-48 0 -88 18.5t-69 53t-44.5 84t-15.5 111.5q0 83 27.5 143t76.5 92t113 32q49 0 88.5 -16t67 -44.5t40.5 -67.5h3l2 119h34v-517h-34l-2 121h-3q-20 -58 -71 -93.5t-125 -35.5zM280 26q60 0 102.5 28.5t65 73.5t22.5 96v71q0 51 -22.5 96.5t-65 73.5t-102.5 28
q-56 0 -98 -27.5t-65.5 -79.5t-23.5 -127q0 -73 23.5 -125.5t65.5 -80t98 -27.5zM366 621q-30 0 -52.5 7t-41.5 13.5t-41 6.5q-19 0 -32.5 -6t-26.5 -23l-20 12q13 18 25 29t27 16t34 5q21 0 43.5 -7t46 -14t46.5 -7q17 0 32.5 7t27.5 23l21 -13q-12 -17 -25.5 -28t-29 -16
t-34.5 -5z" />
    <glyph glyph-name="adieresis" unicode="&#xe4;" horiz-adv-x="592" 
d="M272 -8q-48 0 -88 18.5t-69 53t-44.5 84t-15.5 111.5q0 83 27.5 143t76.5 92t113 32q49 0 88.5 -16t67 -44.5t40.5 -67.5h3l2 119h34v-517h-34l-2 121h-3q-20 -58 -71 -93.5t-125 -35.5zM280 26q60 0 102.5 28.5t65 73.5t22.5 96v71q0 51 -22.5 96.5t-65 73.5t-102.5 28
q-56 0 -98 -27.5t-65.5 -79.5t-23.5 -127q0 -73 23.5 -125.5t65.5 -80t98 -27.5zM391 625q-14 0 -23 9t-9 22q0 14 9 22.5t23 8.5t23 -8.5t9 -22.5q0 -13 -9 -22t-23 -9zM211 625q-14 0 -23 9t-9 22q0 14 9 22.5t23 8.5t23 -8.5t9 -22.5q0 -13 -9 -22t-23 -9z" />
    <glyph glyph-name="aring" unicode="&#xe5;" horiz-adv-x="592" 
d="M272 -8q-48 0 -88 18.5t-69 53t-44.5 84t-15.5 111.5q0 83 27.5 143t76.5 92t113 32q49 0 88.5 -16t67 -44.5t40.5 -67.5h3l2 119h34v-517h-34l-2 121h-3q-20 -58 -71 -93.5t-125 -35.5zM280 26q60 0 102.5 28.5t65 73.5t22.5 96v71q0 51 -22.5 96.5t-65 73.5t-102.5 28
q-56 0 -98 -27.5t-65.5 -79.5t-23.5 -127q0 -73 23.5 -125.5t65.5 -80t98 -27.5zM301 566q-41 0 -67 24.5t-26 64.5q0 41 26 65t67 24t67 -24t26 -65q0 -40 -26 -64.5t-67 -24.5zM301 594q28 0 44.5 17t16.5 44t-16.5 43.5t-44.5 16.5t-44.5 -16.5t-16.5 -43.5t16.5 -44
t44.5 -17z" />
    <glyph glyph-name="ae" unicode="&#xe6;" horiz-adv-x="913" 
d="M212 -9q-76 0 -119.5 40.5t-43.5 105.5q0 44 17.5 74t48.5 48.5t70.5 26.5t84.5 8h144v-33h-148q-52 0 -92.5 -12t-63.5 -38.5t-23 -72.5q0 -52 33.5 -83.5t94.5 -31.5q42 0 85 16.5t71.5 54t28.5 100.5v146q0 55 -18 88.5t-49.5 49t-74.5 15.5q-45 0 -79 -14
t-53.5 -38.5t-21.5 -57.5h-38q2 43 27 75.5t67.5 50.5t97.5 18q70 0 112.5 -31t57.5 -81h5q29 52 81.5 81t119.5 29q59 0 102.5 -20t71.5 -55.5t40.5 -84t9.5 -105.5h-430v33h392q-1 67 -24.5 111t-65.5 65.5t-97 21.5q-57 0 -101.5 -25.5t-70 -72.5t-25.5 -113v-13
q0 -57 14 -102t40 -76t63 -47t83 -16q71 0 118 33t61 88h38q-9 -47 -40 -82t-76.5 -54t-100.5 -19q-75 0 -130 35.5t-84 101.5h-3q-12 -40 -42 -71t-72.5 -49t-92.5 -18z" />
    <glyph glyph-name="ccedilla" unicode="&#xe7;" horiz-adv-x="553" 
d="M293 -8q-54 0 -98.5 19t-76.5 54t-49 83.5t-17 108.5t17 109t49.5 84.5t77.5 55t100 19.5t99.5 -20t73.5 -56.5t37 -84.5h-36q-10 41 -35 69t-61.5 42.5t-79.5 14.5q-48 0 -85.5 -17t-64.5 -48t-41 -73.5t-14 -94.5q0 -71 25.5 -122.5t71.5 -79.5t107 -28q48 0 85.5 17
t62.5 47.5t32 72.5h37q-8 -52 -38 -91t-75.5 -60t-103.5 -21zM288 -233q-37 0 -63 17t-36 47l33 10q8 -21 24.5 -32.5t41.5 -12.5q32 0 48.5 16t16.5 41q0 28 -21.5 44.5t-73.5 26.5l-10 21l33 65h32l-28 -62q50 -11 76.5 -36t26.5 -61q0 -37 -27.5 -61t-72.5 -23z" />
    <glyph glyph-name="egrave" unicode="&#xe8;" horiz-adv-x="565" 
d="M290 -8q-72 0 -125 33t-82.5 93t-29.5 140t28 140t81 93.5t126 33.5q79 0 130.5 -35t74.5 -96t16 -138h-419q2 -73 27 -124.5t69.5 -78.5t103.5 -27q71 0 118 33t61 88h38q-9 -47 -40 -82t-76.5 -54t-100.5 -19zM91 284l-5 6h393l-5 -9q1 71 -22.5 117.5t-65.5 69.5
t-99 23t-100 -25t-67.5 -71t-28.5 -111zM271 591l-78 136h41l68 -136h-31z" />
    <glyph glyph-name="eacute" unicode="&#xe9;" horiz-adv-x="565" 
d="M290 -8q-72 0 -125 33t-82.5 93t-29.5 140t28 140t81 93.5t126 33.5q79 0 130.5 -35t74.5 -96t16 -138h-419q2 -73 27 -124.5t69.5 -78.5t103.5 -27q71 0 118 33t61 88h38q-9 -47 -40 -82t-76.5 -54t-100.5 -19zM91 284l-5 6h393l-5 -9q1 71 -22.5 117.5t-65.5 69.5
t-99 23t-100 -25t-67.5 -71t-28.5 -111zM272 591l68 136h41l-78 -136h-31z" />
    <glyph glyph-name="ecircumflex" unicode="&#xea;" horiz-adv-x="565" 
d="M290 -8q-72 0 -125 33t-82.5 93t-29.5 140t28 140t81 93.5t126 33.5q79 0 130.5 -35t74.5 -96t16 -138h-419q2 -73 27 -124.5t69.5 -78.5t103.5 -27q71 0 118 33t61 88h38q-9 -47 -40 -82t-76.5 -54t-100.5 -19zM91 284l-5 6h393l-5 -9q1 71 -22.5 117.5t-65.5 69.5
t-99 23t-100 -25t-67.5 -71t-28.5 -111zM163 591l103 136h42l104 -136h-39l-86 112l-85 -112h-39z" />
    <glyph glyph-name="edieresis" unicode="&#xeb;" horiz-adv-x="565" 
d="M290 -8q-72 0 -125 33t-82.5 93t-29.5 140t28 140t81 93.5t126 33.5q79 0 130.5 -35t74.5 -96t16 -138h-419q2 -73 27 -124.5t69.5 -78.5t103.5 -27q71 0 118 33t61 88h38q-9 -47 -40 -82t-76.5 -54t-100.5 -19zM91 284l-5 6h393l-5 -9q1 71 -22.5 117.5t-65.5 69.5
t-99 23t-100 -25t-67.5 -71t-28.5 -111zM377 625q-14 0 -23 9t-9 22q0 14 9 22.5t23 8.5t23 -8.5t9 -22.5q0 -13 -9 -22t-23 -9zM197 625q-14 0 -23 9t-9 22q0 14 9 22.5t23 8.5t23 -8.5t9 -22.5q0 -13 -9 -22t-23 -9z" />
    <glyph glyph-name="igrave" unicode="&#xec;" horiz-adv-x="207" 
d="M85 0v517h37v-517h-37zM88 591l-78 136h41l68 -136h-31z" />
    <glyph glyph-name="iacute" unicode="&#xed;" horiz-adv-x="207" 
d="M85 0v517h37v-517h-37zM89 591l68 136h41l-78 -136h-31z" />
    <glyph glyph-name="icircumflex" unicode="&#xee;" horiz-adv-x="207" 
d="M85 0v517h37v-517h-37zM-20 591l103 136h42l104 -136h-39l-86 112l-85 -112h-39z" />
    <glyph glyph-name="idieresis" unicode="&#xef;" horiz-adv-x="207" 
d="M85 0v517h37v-517h-37zM194 625q-14 0 -23 9t-9 22q0 14 9 22.5t23 8.5t23 -8.5t9 -22.5q0 -13 -9 -22t-23 -9zM14 625q-14 0 -23 9t-9 22q0 14 9 22.5t23 8.5t23 -8.5t9 -22.5q0 -13 -9 -22t-23 -9z" />
    <glyph glyph-name="eth" unicode="&#xf0;" horiz-adv-x="549" 
d="M272 -9q-51 0 -91.5 18t-69 52t-44 82t-15.5 108q0 79 26 136t74.5 88t114.5 31q57 0 101 -25.5t70 -78.5h2q-23 60 -57 118t-72.5 111.5t-77.5 97.5h43q40 -49 79.5 -106t71.5 -119t51 -127.5t19 -133.5q0 -77 -27.5 -134t-78 -87.5t-119.5 -30.5zM273 25q59 0 100.5 26
t63.5 75t22 117q0 54 -12.5 97t-37 72.5t-59.5 45t-79 15.5q-57 0 -97.5 -26.5t-62 -76t-21.5 -119.5q0 -53 12.5 -95t36 -71t57.5 -44.5t77 -15.5zM171 563v28l291 72v-28z" />
    <glyph glyph-name="ntilde" unicode="&#xf1;" horiz-adv-x="581" 
d="M85 0v517h34l2 -117h4q26 62 78.5 93.5t114.5 31.5q41 0 75.5 -12.5t59.5 -39.5t39 -69.5t14 -103.5v-300h-37v294q0 68 -17 111.5t-51.5 64.5t-87.5 21q-57 0 -100.5 -28t-67.5 -76.5t-24 -112.5v-274h-36zM358 621q-30 0 -52.5 7t-41.5 13.5t-41 6.5q-19 0 -32.5 -6
t-26.5 -23l-20 12q13 18 25 29t27 16t34 5q21 0 43.5 -7t46 -14t46.5 -7q17 0 32.5 7t27.5 23l21 -13q-12 -17 -25.5 -28t-29 -16t-34.5 -5z" />
    <glyph glyph-name="ograve" unicode="&#xf2;" horiz-adv-x="589" 
d="M296 -8q-55 0 -99.5 19t-77 54.5t-50 84t-17.5 107.5q0 79 30.5 139.5t85.5 94.5t128 34q54 0 98.5 -19t76 -54.5t49 -84.5t17.5 -109q0 -78 -30 -138t-84.5 -94t-126.5 -34zM295 28q61 0 107 28t71.5 80t25.5 122q0 52 -14 94.5t-40.5 73.5t-64 47.5t-84.5 16.5
q-61 0 -107.5 -28.5t-72.5 -80.5t-26 -124q0 -51 14 -93.5t41 -72.5t65 -46.5t85 -16.5zM279 591l-78 136h41l68 -136h-31z" />
    <glyph glyph-name="oacute" unicode="&#xf3;" horiz-adv-x="589" 
d="M296 -8q-55 0 -99.5 19t-77 54.5t-50 84t-17.5 107.5q0 79 30.5 139.5t85.5 94.5t128 34q54 0 98.5 -19t76 -54.5t49 -84.5t17.5 -109q0 -78 -30 -138t-84.5 -94t-126.5 -34zM295 28q61 0 107 28t71.5 80t25.5 122q0 52 -14 94.5t-40.5 73.5t-64 47.5t-84.5 16.5
q-61 0 -107.5 -28.5t-72.5 -80.5t-26 -124q0 -51 14 -93.5t41 -72.5t65 -46.5t85 -16.5zM280 591l68 136h41l-78 -136h-31z" />
    <glyph glyph-name="ocircumflex" unicode="&#xf4;" horiz-adv-x="589" 
d="M296 -8q-55 0 -99.5 19t-77 54.5t-50 84t-17.5 107.5q0 79 30.5 139.5t85.5 94.5t128 34q54 0 98.5 -19t76 -54.5t49 -84.5t17.5 -109q0 -78 -30 -138t-84.5 -94t-126.5 -34zM295 28q61 0 107 28t71.5 80t25.5 122q0 52 -14 94.5t-40.5 73.5t-64 47.5t-84.5 16.5
q-61 0 -107.5 -28.5t-72.5 -80.5t-26 -124q0 -51 14 -93.5t41 -72.5t65 -46.5t85 -16.5zM171 591l103 136h42l104 -136h-39l-86 112l-85 -112h-39z" />
    <glyph glyph-name="otilde" unicode="&#xf5;" horiz-adv-x="589" 
d="M296 -8q-55 0 -99.5 19t-77 54.5t-50 84t-17.5 107.5q0 79 30.5 139.5t85.5 94.5t128 34q54 0 98.5 -19t76 -54.5t49 -84.5t17.5 -109q0 -78 -30 -138t-84.5 -94t-126.5 -34zM295 28q61 0 107 28t71.5 80t25.5 122q0 52 -14 94.5t-40.5 73.5t-64 47.5t-84.5 16.5
q-61 0 -107.5 -28.5t-72.5 -80.5t-26 -124q0 -51 14 -93.5t41 -72.5t65 -46.5t85 -16.5zM360 621q-30 0 -52.5 7t-41.5 13.5t-41 6.5q-19 0 -32.5 -6t-26.5 -23l-20 12q13 18 25 29t27 16t34 5q21 0 43.5 -7t46 -14t46.5 -7q17 0 32.5 7t27.5 23l21 -13q-12 -17 -25.5 -28
t-29 -16t-34.5 -5z" />
    <glyph glyph-name="odieresis" unicode="&#xf6;" horiz-adv-x="589" 
d="M296 -8q-55 0 -99.5 19t-77 54.5t-50 84t-17.5 107.5q0 79 30.5 139.5t85.5 94.5t128 34q54 0 98.5 -19t76 -54.5t49 -84.5t17.5 -109q0 -78 -30 -138t-84.5 -94t-126.5 -34zM295 28q61 0 107 28t71.5 80t25.5 122q0 52 -14 94.5t-40.5 73.5t-64 47.5t-84.5 16.5
q-61 0 -107.5 -28.5t-72.5 -80.5t-26 -124q0 -51 14 -93.5t41 -72.5t65 -46.5t85 -16.5zM385 625q-14 0 -23 9t-9 22q0 14 9 22.5t23 8.5t23 -8.5t9 -22.5q0 -13 -9 -22t-23 -9zM205 625q-14 0 -23 9t-9 22q0 14 9 22.5t23 8.5t23 -8.5t9 -22.5q0 -13 -9 -22t-23 -9z" />
    <glyph glyph-name="divide" unicode="&#xf7;" horiz-adv-x="600" 
d="M61 345v32h478v-32h-478zM278 184v61h45v-61h-45zM278 477v61h45v-61h-45z" />
    <glyph glyph-name="oslash" unicode="&#xf8;" horiz-adv-x="589" 
d="M296 -8q-55 0 -99.5 19t-77 54.5t-50 84t-17.5 107.5q0 79 30.5 139.5t85.5 94.5t128 34q54 0 98.5 -19t76 -54.5t49 -84.5t17.5 -109q0 -78 -30 -138t-84.5 -94t-126.5 -34zM295 28q61 0 107 28t71.5 80t25.5 122q0 52 -14 94.5t-40.5 73.5t-64 47.5t-84.5 16.5
q-61 0 -107.5 -28.5t-72.5 -80.5t-26 -124q0 -51 14 -93.5t41 -72.5t65 -46.5t85 -16.5zM40 -60l469 637h40l-468 -637h-41z" />
    <glyph glyph-name="ugrave" unicode="&#xf9;" horiz-adv-x="581" 
d="M264 -8q-56 0 -99 23t-66.5 70.5t-23.5 118.5v313h37v-306q0 -58 16.5 -99.5t52 -63.5t91.5 -22q54 0 96.5 27t66.5 77.5t24 118.5v268h37v-517h-34l-3 121h-4q-21 -59 -72.5 -94t-118.5 -35zM270 591l-78 136h41l68 -136h-31z" />
    <glyph glyph-name="uacute" unicode="&#xfa;" horiz-adv-x="581" 
d="M264 -8q-56 0 -99 23t-66.5 70.5t-23.5 118.5v313h37v-306q0 -58 16.5 -99.5t52 -63.5t91.5 -22q54 0 96.5 27t66.5 77.5t24 118.5v268h37v-517h-34l-3 121h-4q-21 -59 -72.5 -94t-118.5 -35zM271 591l68 136h41l-78 -136h-31z" />
    <glyph glyph-name="ucircumflex" unicode="&#xfb;" horiz-adv-x="581" 
d="M264 -8q-56 0 -99 23t-66.5 70.5t-23.5 118.5v313h37v-306q0 -58 16.5 -99.5t52 -63.5t91.5 -22q54 0 96.5 27t66.5 77.5t24 118.5v268h37v-517h-34l-3 121h-4q-21 -59 -72.5 -94t-118.5 -35zM162 591l103 136h42l104 -136h-39l-86 112l-85 -112h-39z" />
    <glyph glyph-name="udieresis" unicode="&#xfc;" horiz-adv-x="581" 
d="M264 -8q-56 0 -99 23t-66.5 70.5t-23.5 118.5v313h37v-306q0 -58 16.5 -99.5t52 -63.5t91.5 -22q54 0 96.5 27t66.5 77.5t24 118.5v268h37v-517h-34l-3 121h-4q-21 -59 -72.5 -94t-118.5 -35zM376 625q-14 0 -23 9t-9 22q0 14 9 22.5t23 8.5t23 -8.5t9 -22.5
q0 -13 -9 -22t-23 -9zM196 625q-14 0 -23 9t-9 22q0 14 9 22.5t23 8.5t23 -8.5t9 -22.5q0 -13 -9 -22t-23 -9z" />
    <glyph glyph-name="yacute" unicode="&#xfd;" horiz-adv-x="492" 
d="M53 -167v32h47q26 0 44 7.5t31 23t22 39.5l41 104v-16l-213 494h41l124 -294l60 -152h4l56 152l117 294h39l-238 -594q-12 -30 -28 -50t-39.5 -30t-58.5 -10h-49zM231 591l68 136h41l-78 -136h-31z" />
    <glyph glyph-name="thorn" unicode="&#xfe;" horiz-adv-x="592" 
d="M85 -167v896h37v-333h2q20 58 71.5 93.5t124.5 35.5q48 0 88 -18.5t69 -53t44.5 -84t15.5 -111.5q0 -83 -27.5 -143t-76 -92t-113.5 -32q-49 0 -88.5 16t-66.5 45t-41 67h-3v-286h-36zM312 24q56 0 98 27.5t65.5 80t23.5 126.5t-23.5 126t-65.5 79.5t-98 27.5
q-60 0 -102.5 -28t-65 -73.5t-22.5 -96.5v-71q0 -51 22.5 -96t65 -73.5t102.5 -28.5z" />
    <glyph glyph-name="ydieresis" unicode="&#xff;" horiz-adv-x="492" 
d="M53 -167v32h47q26 0 44 7.5t31 23t22 39.5l41 104v-16l-213 494h41l124 -294l60 -152h4l56 152l117 294h39l-238 -594q-12 -30 -28 -50t-39.5 -30t-58.5 -10h-49zM336 625q-14 0 -23 9t-9 22q0 14 9 22.5t23 8.5t23 -8.5t9 -22.5q0 -13 -9 -22t-23 -9zM156 625
q-14 0 -23 9t-9 22q0 14 9 22.5t23 8.5t23 -8.5t9 -22.5q0 -13 -9 -22t-23 -9z" />
    <glyph glyph-name="Amacron" unicode="&#x100;" horiz-adv-x="678" 
d="M31 0l282 729h53l281 -729h-40l-230 605l-34 91h-6l-34 -91l-231 -605h-41zM139 199v36h400v-36h-400zM179 837v33h319v-33h-319z" />
    <glyph glyph-name="amacron" unicode="&#x101;" horiz-adv-x="592" 
d="M272 -8q-48 0 -88 18.5t-69 53t-44.5 84t-15.5 111.5q0 83 27.5 143t76.5 92t113 32q49 0 88.5 -16t67 -44.5t40.5 -67.5h3l2 119h34v-517h-34l-2 121h-3q-20 -58 -71 -93.5t-125 -35.5zM280 26q60 0 102.5 28.5t65 73.5t22.5 96v71q0 51 -22.5 96.5t-65 73.5t-102.5 28
q-56 0 -98 -27.5t-65.5 -79.5t-23.5 -127q0 -73 23.5 -125.5t65.5 -80t98 -27.5zM141 625v33h319v-33h-319z" />
    <glyph glyph-name="Abreve" unicode="&#x102;" horiz-adv-x="678" 
d="M31 0l282 729h53l281 -729h-40l-230 605l-34 91h-6l-34 -91l-231 -605h-41zM139 199v36h400v-36h-400zM339 793q-41 0 -69.5 16t-43 47t-15.5 77h36q0 -54 23.5 -81.5t68.5 -27.5t68.5 27.5t23.5 81.5h36q-1 -69 -33.5 -104.5t-94.5 -35.5z" />
    <glyph glyph-name="abreve" unicode="&#x103;" horiz-adv-x="592" 
d="M272 -8q-48 0 -88 18.5t-69 53t-44.5 84t-15.5 111.5q0 83 27.5 143t76.5 92t113 32q49 0 88.5 -16t67 -44.5t40.5 -67.5h3l2 119h34v-517h-34l-2 121h-3q-20 -58 -71 -93.5t-125 -35.5zM280 26q60 0 102.5 28.5t65 73.5t22.5 96v71q0 51 -22.5 96.5t-65 73.5t-102.5 28
q-56 0 -98 -27.5t-65.5 -79.5t-23.5 -127q0 -73 23.5 -125.5t65.5 -80t98 -27.5zM301 581q-41 0 -69.5 16t-43 47t-15.5 77h36q0 -54 23.5 -81.5t68.5 -27.5t68.5 27.5t23.5 81.5h36q-1 -69 -33.5 -104.5t-94.5 -35.5z" />
    <glyph glyph-name="Aogonek" unicode="&#x104;" horiz-adv-x="678" 
d="M31 0l282 729h53l281 -729h-40l-230 605l-34 91h-6l-34 -91l-231 -605h-41zM139 199v36h400v-36h-400zM609 -209q-38 0 -60.5 21.5t-22.5 58.5q0 25 12 51t35.5 51t55.5 46h8l10 -19q-39 -30 -63 -60.5t-24 -65.5q0 -26 15 -40t43 -14q12 0 24 3t21 7v-28
q-8 -4 -23.5 -7.5t-30.5 -3.5z" />
    <glyph glyph-name="aogonek" unicode="&#x105;" horiz-adv-x="592" 
d="M272 -8q-48 0 -88 18.5t-69 53t-44.5 84t-15.5 111.5q0 83 27.5 143t76.5 92t113 32q49 0 88.5 -16t67 -44.5t40.5 -67.5h3l2 119h34v-517h-34l-2 121h-3q-20 -58 -71 -93.5t-125 -35.5zM280 26q60 0 102.5 28.5t65 73.5t22.5 96v71q0 51 -22.5 96.5t-65 73.5t-102.5 28
q-56 0 -98 -27.5t-65.5 -79.5t-23.5 -127q0 -73 23.5 -125.5t65.5 -80t98 -27.5zM469 -209q-38 0 -60.5 21.5t-22.5 58.5q0 25 12 51t35.5 51t55.5 46h8l10 -19q-39 -30 -63 -60.5t-24 -65.5q0 -26 15 -40t43 -14q12 0 24 3t21 7v-28q-8 -4 -23.5 -7.5t-30.5 -3.5z" />
    <glyph glyph-name="Cacute" unicode="&#x106;" horiz-adv-x="771" 
d="M405 -8q-79 0 -143.5 26.5t-111 76t-71 118t-24.5 151.5q0 84 25 152.5t71 117.5t110.5 75.5t143.5 26.5q85 0 152 -29.5t110.5 -83.5t56.5 -129h-40q-11 61 -48 107t-95.5 72.5t-135.5 26.5q-96 0 -165 -42t-106.5 -117.5t-37.5 -176.5q0 -75 21.5 -137t61.5 -106.5
t97 -68.5t129 -24q77 0 136 26t96 73.5t47 110.5h40q-10 -75 -53 -130.5t-111 -85.5t-155 -30zM397 803l68 136h41l-78 -136h-31z" />
    <glyph glyph-name="cacute" unicode="&#x107;" horiz-adv-x="553" 
d="M293 -8q-54 0 -98.5 19t-76.5 54t-49 83.5t-17 108.5t17 109t49.5 84.5t77.5 55t100 19.5t99.5 -20t73.5 -56.5t37 -84.5h-36q-10 41 -35 69t-61.5 42.5t-79.5 14.5q-48 0 -85.5 -17t-64.5 -48t-41 -73.5t-14 -94.5q0 -71 25.5 -122.5t71.5 -79.5t107 -28q48 0 85.5 17
t62.5 47.5t32 72.5h37q-8 -52 -38 -91t-75.5 -60t-103.5 -21zM279 591l68 136h41l-78 -136h-31z" />
    <glyph glyph-name="Ccircumflex" unicode="&#x108;" horiz-adv-x="771" 
d="M405 -8q-79 0 -143.5 26.5t-111 76t-71 118t-24.5 151.5q0 84 25 152.5t71 117.5t110.5 75.5t143.5 26.5q85 0 152 -29.5t110.5 -83.5t56.5 -129h-40q-11 61 -48 107t-95.5 72.5t-135.5 26.5q-96 0 -165 -42t-106.5 -117.5t-37.5 -176.5q0 -75 21.5 -137t61.5 -106.5
t97 -68.5t129 -24q77 0 136 26t96 73.5t47 110.5h40q-10 -75 -53 -130.5t-111 -85.5t-155 -30zM288 803l103 136h42l104 -136h-39l-86 112l-85 -112h-39z" />
    <glyph glyph-name="ccircumflex" unicode="&#x109;" horiz-adv-x="553" 
d="M293 -8q-54 0 -98.5 19t-76.5 54t-49 83.5t-17 108.5t17 109t49.5 84.5t77.5 55t100 19.5t99.5 -20t73.5 -56.5t37 -84.5h-36q-10 41 -35 69t-61.5 42.5t-79.5 14.5q-48 0 -85.5 -17t-64.5 -48t-41 -73.5t-14 -94.5q0 -71 25.5 -122.5t71.5 -79.5t107 -28q48 0 85.5 17
t62.5 47.5t32 72.5h37q-8 -52 -38 -91t-75.5 -60t-103.5 -21zM170 591l103 136h42l104 -136h-39l-86 112l-85 -112h-39z" />
    <glyph glyph-name="Cdotaccent" unicode="&#x10a;" horiz-adv-x="771" 
d="M405 -8q-79 0 -143.5 26.5t-111 76t-71 118t-24.5 151.5q0 84 25 152.5t71 117.5t110.5 75.5t143.5 26.5q85 0 152 -29.5t110.5 -83.5t56.5 -129h-40q-11 61 -48 107t-95.5 72.5t-135.5 26.5q-96 0 -165 -42t-106.5 -117.5t-37.5 -176.5q0 -75 21.5 -137t61.5 -106.5
t97 -68.5t129 -24q77 0 136 26t96 73.5t47 110.5h40q-10 -75 -53 -130.5t-111 -85.5t-155 -30zM412 837q-14 0 -23 9t-9 22q0 14 9 22.5t23 8.5t23 -8.5t9 -22.5q0 -13 -9 -22t-23 -9z" />
    <glyph glyph-name="cdotaccent" unicode="&#x10b;" horiz-adv-x="553" 
d="M293 -8q-54 0 -98.5 19t-76.5 54t-49 83.5t-17 108.5t17 109t49.5 84.5t77.5 55t100 19.5t99.5 -20t73.5 -56.5t37 -84.5h-36q-10 41 -35 69t-61.5 42.5t-79.5 14.5q-48 0 -85.5 -17t-64.5 -48t-41 -73.5t-14 -94.5q0 -71 25.5 -122.5t71.5 -79.5t107 -28q48 0 85.5 17
t62.5 47.5t32 72.5h37q-8 -52 -38 -91t-75.5 -60t-103.5 -21zM294 625q-14 0 -23 9t-9 22q0 14 9 22.5t23 8.5t23 -8.5t9 -22.5q0 -13 -9 -22t-23 -9z" />
    <glyph glyph-name="Ccaron" unicode="&#x10c;" horiz-adv-x="771" 
d="M405 -8q-79 0 -143.5 26.5t-111 76t-71 118t-24.5 151.5q0 84 25 152.5t71 117.5t110.5 75.5t143.5 26.5q85 0 152 -29.5t110.5 -83.5t56.5 -129h-40q-11 61 -48 107t-95.5 72.5t-135.5 26.5q-96 0 -165 -42t-106.5 -117.5t-37.5 -176.5q0 -75 21.5 -137t61.5 -106.5
t97 -68.5t129 -24q77 0 136 26t96 73.5t47 110.5h40q-10 -75 -53 -130.5t-111 -85.5t-155 -30zM391 803l-103 136h39l85 -112l85 112h40l-104 -136h-42z" />
    <glyph glyph-name="ccaron" unicode="&#x10d;" horiz-adv-x="553" 
d="M293 -8q-54 0 -98.5 19t-76.5 54t-49 83.5t-17 108.5t17 109t49.5 84.5t77.5 55t100 19.5t99.5 -20t73.5 -56.5t37 -84.5h-36q-10 41 -35 69t-61.5 42.5t-79.5 14.5q-48 0 -85.5 -17t-64.5 -48t-41 -73.5t-14 -94.5q0 -71 25.5 -122.5t71.5 -79.5t107 -28q48 0 85.5 17
t62.5 47.5t32 72.5h37q-8 -52 -38 -91t-75.5 -60t-103.5 -21zM273 591l-103 136h39l85 -112l85 112h40l-104 -136h-42z" />
    <glyph glyph-name="Dcaron" unicode="&#x10e;" horiz-adv-x="741" 
d="M94 0v729h270q100 0 172 -45t110.5 -127t38.5 -193q0 -82 -22 -149.5t-63.5 -115t-101 -73.5t-134.5 -26h-270zM132 37h231q66 0 118.5 23t89 66.5t55.5 104t19 134.5q0 103 -34.5 176t-98 112.5t-149.5 39.5h-231v-656zM340 803l-103 136h39l85 -112l85 112h40
l-104 -136h-42z" />
    <glyph glyph-name="dcaron" unicode="&#x10f;" horiz-adv-x="592" 
d="M565 536l68 193h36l-70 -193h-34zM272 -8q-48 0 -88 18.5t-69 53t-44.5 84t-15.5 111.5q0 83 27.5 143t76.5 92t113 32q49 0 88.5 -16t67 -44.5t40.5 -67.5h2v331h37v-729h-34l-2 121h-3q-20 -58 -71 -93.5t-125 -35.5zM280 26q60 0 102.5 28.5t65 73.5t22.5 96v71
q0 51 -22.5 96.5t-65 73.5t-102.5 28q-56 0 -98 -27.5t-65.5 -79.5t-23.5 -127q0 -73 23.5 -125.5t65.5 -80t98 -27.5z" />
    <glyph glyph-name="Dcroat" unicode="&#x110;" horiz-adv-x="785" 
d="M138 0v729h270q100 0 172 -45t110.5 -127t38.5 -193q0 -82 -22 -149.5t-63.5 -115t-101 -73.5t-134.5 -26h-270zM176 37h231q66 0 118.5 23t89 66.5t55.5 104t19 134.5q0 103 -34.5 176t-98 112.5t-149.5 39.5h-231v-656zM31 349v32h354v-32h-354z" />
    <glyph glyph-name="dcroat" unicode="&#x111;" horiz-adv-x="592" 
d="M272 -8q-48 0 -88 18.5t-69 53t-44.5 84t-15.5 111.5q0 83 27.5 143t76.5 92t113 32q49 0 88.5 -16t67 -44.5t40.5 -67.5h2v331h37v-729h-34l-2 121h-3q-20 -58 -71 -93.5t-125 -35.5zM280 26q60 0 102.5 28.5t65 73.5t22.5 96v71q0 51 -22.5 96.5t-65 73.5t-102.5 28
q-56 0 -98 -27.5t-65.5 -79.5t-23.5 -127q0 -73 23.5 -125.5t65.5 -80t98 -27.5zM297 615v32h304v-32h-304z" />
    <glyph glyph-name="Emacron" unicode="&#x112;" horiz-adv-x="612" 
d="M94 0v729h481v-36h-454l11 11v-678l-11 11h454v-37h-481zM121 358v34h406v-34h-406zM150 837v33h319v-33h-319z" />
    <glyph glyph-name="emacron" unicode="&#x113;" horiz-adv-x="565" 
d="M290 -8q-72 0 -125 33t-82.5 93t-29.5 140t28 140t81 93.5t126 33.5q79 0 130.5 -35t74.5 -96t16 -138h-419q2 -73 27 -124.5t69.5 -78.5t103.5 -27q71 0 118 33t61 88h38q-9 -47 -40 -82t-76.5 -54t-100.5 -19zM91 284l-5 6h393l-5 -9q1 71 -22.5 117.5t-65.5 69.5
t-99 23t-100 -25t-67.5 -71t-28.5 -111zM127 625v33h319v-33h-319z" />
    <glyph glyph-name="Ebreve" unicode="&#x114;" horiz-adv-x="612" 
d="M94 0v729h481v-36h-454l11 11v-678l-11 11h454v-37h-481zM121 358v34h406v-34h-406zM310 793q-41 0 -69.5 16t-43 47t-15.5 77h36q0 -54 23.5 -81.5t68.5 -27.5t68.5 27.5t23.5 81.5h36q-1 -69 -33.5 -104.5t-94.5 -35.5z" />
    <glyph glyph-name="ebreve" unicode="&#x115;" horiz-adv-x="565" 
d="M290 -8q-72 0 -125 33t-82.5 93t-29.5 140t28 140t81 93.5t126 33.5q79 0 130.5 -35t74.5 -96t16 -138h-419q2 -73 27 -124.5t69.5 -78.5t103.5 -27q71 0 118 33t61 88h38q-9 -47 -40 -82t-76.5 -54t-100.5 -19zM91 284l-5 6h393l-5 -9q1 71 -22.5 117.5t-65.5 69.5
t-99 23t-100 -25t-67.5 -71t-28.5 -111zM287 581q-41 0 -69.5 16t-43 47t-15.5 77h36q0 -54 23.5 -81.5t68.5 -27.5t68.5 27.5t23.5 81.5h36q-1 -69 -33.5 -104.5t-94.5 -35.5z" />
    <glyph glyph-name="Edotaccent" unicode="&#x116;" horiz-adv-x="612" 
d="M94 0v729h481v-36h-454l11 11v-678l-11 11h454v-37h-481zM121 358v34h406v-34h-406zM310 837q-14 0 -23 9t-9 22q0 14 9 22.5t23 8.5t23 -8.5t9 -22.5q0 -13 -9 -22t-23 -9z" />
    <glyph glyph-name="edotaccent" unicode="&#x117;" horiz-adv-x="565" 
d="M290 -8q-72 0 -125 33t-82.5 93t-29.5 140t28 140t81 93.5t126 33.5q79 0 130.5 -35t74.5 -96t16 -138h-419q2 -73 27 -124.5t69.5 -78.5t103.5 -27q71 0 118 33t61 88h38q-9 -47 -40 -82t-76.5 -54t-100.5 -19zM91 284l-5 6h393l-5 -9q1 71 -22.5 117.5t-65.5 69.5
t-99 23t-100 -25t-67.5 -71t-28.5 -111zM287 625q-14 0 -23 9t-9 22q0 14 9 22.5t23 8.5t23 -8.5t9 -22.5q0 -13 -9 -22t-23 -9z" />
    <glyph glyph-name="Eogonek" unicode="&#x118;" horiz-adv-x="612" 
d="M94 0v729h481v-36h-454l11 11v-678l-11 11h454v-37h-481zM121 358v34h406v-34h-406zM537 -209q-38 0 -60.5 21.5t-22.5 58.5q0 25 12 51t35.5 51t55.5 46h8l10 -19q-39 -30 -63 -60.5t-24 -65.5q0 -26 15 -40t43 -14q12 0 24 3t21 7v-28q-8 -4 -23.5 -7.5t-30.5 -3.5z
" />
    <glyph glyph-name="eogonek" unicode="&#x119;" horiz-adv-x="565" 
d="M367 -196q-43 0 -67 20.5t-24 56.5q0 35 20 63.5t50 53.5q-13 -3 -27.5 -4.5t-28.5 -1.5q-72 0 -125 33t-82.5 93t-29.5 140t28 140t81 93.5t126 33.5q79 0 130.5 -35t74.5 -96t16 -138h-419q2 -73 27 -124.5t69.5 -78.5t103.5 -27q71 0 118 33t61 88h38q-7 -39 -30 -70
t-57 -51q-29 -23 -55 -45t-42 -44.5t-16 -49.5q0 -55 66 -55q8 0 21 1.5t26 5.5v-27q-10 -4 -23.5 -6t-29.5 -2zM91 290h383q0 68 -24 112.5t-65.5 66.5t-97.5 22t-98.5 -24t-67.5 -69t-30 -108z" />
    <glyph glyph-name="Ecaron" unicode="&#x11a;" horiz-adv-x="612" 
d="M94 0v729h481v-36h-454l11 11v-678l-11 11h454v-37h-481zM121 358v34h406v-34h-406zM289 803l-103 136h39l85 -112l85 112h40l-104 -136h-42z" />
    <glyph glyph-name="ecaron" unicode="&#x11b;" horiz-adv-x="565" 
d="M290 -8q-72 0 -125 33t-82.5 93t-29.5 140t28 140t81 93.5t126 33.5q79 0 130.5 -35t74.5 -96t16 -138h-419q2 -73 27 -124.5t69.5 -78.5t103.5 -27q71 0 118 33t61 88h38q-9 -47 -40 -82t-76.5 -54t-100.5 -19zM91 284l-5 6h393l-5 -9q1 71 -22.5 117.5t-65.5 69.5
t-99 23t-100 -25t-67.5 -71t-28.5 -111zM266 591l-103 136h39l85 -112l85 112h40l-104 -136h-42z" />
    <glyph glyph-name="Gcircumflex" unicode="&#x11c;" horiz-adv-x="806" 
d="M405 -8q-79 0 -143.5 26.5t-111 76t-71 118t-24.5 151.5q0 84 25 152.5t71 117.5t110.5 75.5t143.5 26.5q84 0 151 -25.5t111 -74.5t58 -121h-40q-14 57 -51 98.5t-94.5 64t-134.5 22.5q-96 0 -165 -42t-106.5 -117.5t-37.5 -176.5q0 -75 21.5 -137t61.5 -106.5t97 -68.5
t129 -24q84 0 149 33t102 93.5t37 143.5v61l19 -19h-339v36h361v-376h-32l-5 174h-6q-17 -55 -59 -96t-100.5 -63.5t-126.5 -22.5zM281 803l103 136h42l104 -136h-39l-86 112l-85 -112h-39z" />
    <glyph glyph-name="gcircumflex" unicode="&#x11d;" horiz-adv-x="576" 
d="M271 -177q-52 0 -93 16t-67 46t-33 72h36q6 -31 27 -54t54 -35t76 -12q60 0 101 17.5t61.5 54.5t20.5 97v112h-2q-19 -55 -68.5 -89.5t-120.5 -34.5q-46 0 -84.5 18t-66.5 51.5t-43 81t-15 106.5q0 80 26.5 137.5t73.5 88.5t109 31q71 0 120.5 -33.5t68.5 -89.5h3l2 113
h34v-492q0 -68 -26.5 -113t-75.5 -67t-118 -22zM272 47q57 0 98 27t62.5 70.5t21.5 92.5v68q0 49 -21.5 92t-62 70t-98.5 27q-54 0 -94.5 -26.5t-63 -76.5t-22.5 -121q0 -70 22.5 -120t63 -76.5t94.5 -26.5zM166 591l103 136h42l104 -136h-39l-86 112l-85 -112h-39z" />
    <glyph glyph-name="Gbreve" unicode="&#x11e;" horiz-adv-x="806" 
d="M405 -8q-79 0 -143.5 26.5t-111 76t-71 118t-24.5 151.5q0 84 25 152.5t71 117.5t110.5 75.5t143.5 26.5q84 0 151 -25.5t111 -74.5t58 -121h-40q-14 57 -51 98.5t-94.5 64t-134.5 22.5q-96 0 -165 -42t-106.5 -117.5t-37.5 -176.5q0 -75 21.5 -137t61.5 -106.5t97 -68.5
t129 -24q84 0 149 33t102 93.5t37 143.5v61l19 -19h-339v36h361v-376h-32l-5 174h-6q-17 -55 -59 -96t-100.5 -63.5t-126.5 -22.5zM405 793q-41 0 -69.5 16t-43 47t-15.5 77h36q0 -54 23.5 -81.5t68.5 -27.5t68.5 27.5t23.5 81.5h36q-1 -69 -33.5 -104.5t-94.5 -35.5z" />
    <glyph glyph-name="gbreve" unicode="&#x11f;" horiz-adv-x="576" 
d="M271 -177q-52 0 -93 16t-67 46t-33 72h36q6 -31 27 -54t54 -35t76 -12q60 0 101 17.5t61.5 54.5t20.5 97v112h-2q-19 -55 -68.5 -89.5t-120.5 -34.5q-46 0 -84.5 18t-66.5 51.5t-43 81t-15 106.5q0 80 26.5 137.5t73.5 88.5t109 31q71 0 120.5 -33.5t68.5 -89.5h3l2 113
h34v-492q0 -68 -26.5 -113t-75.5 -67t-118 -22zM272 47q57 0 98 27t62.5 70.5t21.5 92.5v68q0 49 -21.5 92t-62 70t-98.5 27q-54 0 -94.5 -26.5t-63 -76.5t-22.5 -121q0 -70 22.5 -120t63 -76.5t94.5 -26.5zM290 581q-41 0 -69.5 16t-43 47t-15.5 77h36q0 -54 23.5 -81.5
t68.5 -27.5t68.5 27.5t23.5 81.5h36q-1 -69 -33.5 -104.5t-94.5 -35.5z" />
    <glyph glyph-name="Gdotaccent" unicode="&#x120;" horiz-adv-x="806" 
d="M405 -8q-79 0 -143.5 26.5t-111 76t-71 118t-24.5 151.5q0 84 25 152.5t71 117.5t110.5 75.5t143.5 26.5q84 0 151 -25.5t111 -74.5t58 -121h-40q-14 57 -51 98.5t-94.5 64t-134.5 22.5q-96 0 -165 -42t-106.5 -117.5t-37.5 -176.5q0 -75 21.5 -137t61.5 -106.5t97 -68.5
t129 -24q84 0 149 33t102 93.5t37 143.5v61l19 -19h-339v36h361v-376h-32l-5 174h-6q-17 -55 -59 -96t-100.5 -63.5t-126.5 -22.5zM405 837q-14 0 -23 9t-9 22q0 14 9 22.5t23 8.5t23 -8.5t9 -22.5q0 -13 -9 -22t-23 -9z" />
    <glyph glyph-name="gdotaccent" unicode="&#x121;" horiz-adv-x="576" 
d="M271 -177q-52 0 -93 16t-67 46t-33 72h36q6 -31 27 -54t54 -35t76 -12q60 0 101 17.5t61.5 54.5t20.5 97v112h-2q-19 -55 -68.5 -89.5t-120.5 -34.5q-46 0 -84.5 18t-66.5 51.5t-43 81t-15 106.5q0 80 26.5 137.5t73.5 88.5t109 31q71 0 120.5 -33.5t68.5 -89.5h3l2 113
h34v-492q0 -68 -26.5 -113t-75.5 -67t-118 -22zM272 47q57 0 98 27t62.5 70.5t21.5 92.5v68q0 49 -21.5 92t-62 70t-98.5 27q-54 0 -94.5 -26.5t-63 -76.5t-22.5 -121q0 -70 22.5 -120t63 -76.5t94.5 -26.5zM290 625q-14 0 -23 9t-9 22q0 14 9 22.5t23 8.5t23 -8.5t9 -22.5
q0 -13 -9 -22t-23 -9z" />
    <glyph glyph-name="uni0122" unicode="&#x122;" horiz-adv-x="806" 
d="M405 -8q-79 0 -143.5 26.5t-111 76t-71 118t-24.5 151.5q0 84 25 152.5t71 117.5t110.5 75.5t143.5 26.5q84 0 151 -25.5t111 -74.5t58 -121h-40q-14 57 -51 98.5t-94.5 64t-134.5 22.5q-96 0 -165 -42t-106.5 -117.5t-37.5 -176.5q0 -75 21.5 -137t61.5 -106.5t97 -68.5
t129 -24q84 0 149 33t102 93.5t37 143.5v61l19 -19h-339v36h361v-376h-32l-5 174h-6q-17 -55 -59 -96t-100.5 -63.5t-126.5 -22.5zM337 -193l48 136h35l-54 -136h-29z" />
    <glyph glyph-name="uni0123" unicode="&#x123;" horiz-adv-x="576" 
d="M271 -177q-52 0 -93 16t-67 46t-33 72h36q6 -31 27 -54t54 -35t76 -12q60 0 101 17.5t61.5 54.5t20.5 97v112h-2q-19 -55 -68.5 -89.5t-120.5 -34.5q-46 0 -84.5 18t-66.5 51.5t-43 81t-15 106.5q0 80 26.5 137.5t73.5 88.5t109 31q71 0 120.5 -33.5t68.5 -89.5h3l2 113
h34v-492q0 -68 -26.5 -113t-75.5 -67t-118 -22zM272 47q57 0 98 27t62.5 70.5t21.5 92.5v68q0 49 -21.5 92t-62 70t-98.5 27q-54 0 -94.5 -26.5t-63 -76.5t-22.5 -121q0 -70 22.5 -120t63 -76.5t94.5 -26.5zM274 591v31q0 44 22.5 74.5t50.5 49.5l16 -19
q-25 -19 -41.5 -44.5t-16.5 -60.5v-31h-31z" />
    <glyph glyph-name="Hcircumflex" unicode="&#x124;" horiz-adv-x="770" 
d="M94 0v729h38v-729h-38zM638 0v729h38v-729h-38zM112 362v36h546v-36h-546zM261 803l103 136h42l104 -136h-39l-86 112l-85 -112h-39z" />
    <glyph glyph-name="hcircumflex" unicode="&#x125;" horiz-adv-x="581" 
d="M85 0v729h36v-329h4q26 62 78.5 93.5t114.5 31.5q41 0 75.5 -12.5t59.5 -39.5t39 -69.5t14 -103.5v-300h-37v294q0 68 -17 111.5t-51.5 64.5t-87.5 21q-57 0 -100.5 -28t-67.5 -76.5t-24 -112.5v-274h-36zM-21 803l103 136h42l104 -136h-39l-86 112l-85 -112h-39z" />
    <glyph glyph-name="Hbar" unicode="&#x126;" horiz-adv-x="770" 
d="M94 0v729h38v-729h-38zM638 0v729h38v-729h-38zM112 362v36h546v-36h-546zM-2 575v34h774v-34h-774z" />
    <glyph glyph-name="hbar" unicode="&#x127;" horiz-adv-x="581" 
d="M85 0v729h36v-329h4q26 62 78.5 93.5t114.5 31.5q41 0 75.5 -12.5t59.5 -39.5t39 -69.5t14 -103.5v-300h-37v294q0 68 -17 111.5t-51.5 64.5t-87.5 21q-57 0 -100.5 -28t-67.5 -76.5t-24 -112.5v-274h-36zM-9 615v32h304v-32h-304z" />
    <glyph glyph-name="Itilde" unicode="&#x128;" horiz-adv-x="226" 
d="M94 0v729h38v-729h-38zM178 833q-30 0 -52.5 7t-41.5 13.5t-41 6.5q-19 0 -32.5 -6t-26.5 -23l-20 12q13 18 25 29t27 16t34 5q21 0 43.5 -7t46 -14t46.5 -7q17 0 32.5 7t27.5 23l21 -13q-12 -17 -25.5 -28t-29 -16t-34.5 -5z" />
    <glyph glyph-name="itilde" unicode="&#x129;" horiz-adv-x="207" 
d="M85 0v517h37v-517h-37zM169 621q-30 0 -52.5 7t-41.5 13.5t-41 6.5q-19 0 -32.5 -6t-26.5 -23l-20 12q13 18 25 29t27 16t34 5q21 0 43.5 -7t46 -14t46.5 -7q17 0 32.5 7t27.5 23l21 -13q-12 -17 -25.5 -28t-29 -16t-34.5 -5z" />
    <glyph glyph-name="Imacron" unicode="&#x12a;" horiz-adv-x="226" 
d="M94 0v729h38v-729h-38zM-47 837v33h319v-33h-319z" />
    <glyph glyph-name="imacron" unicode="&#x12b;" horiz-adv-x="207" 
d="M85 0v517h37v-517h-37zM-56 625v33h319v-33h-319z" />
    <glyph glyph-name="Ibreve" unicode="&#x12c;" horiz-adv-x="226" 
d="M94 0v729h38v-729h-38zM113 793q-41 0 -69.5 16t-43 47t-15.5 77h36q0 -54 23.5 -81.5t68.5 -27.5t68.5 27.5t23.5 81.5h36q-1 -69 -33.5 -104.5t-94.5 -35.5z" />
    <glyph glyph-name="ibreve" unicode="&#x12d;" horiz-adv-x="207" 
d="M85 0v517h37v-517h-37zM104 581q-41 0 -69.5 16t-43 47t-15.5 77h36q0 -54 23.5 -81.5t68.5 -27.5t68.5 27.5t23.5 81.5h36q-1 -69 -33.5 -104.5t-94.5 -35.5z" />
    <glyph glyph-name="Iogonek" unicode="&#x12e;" horiz-adv-x="226" 
d="M94 0v729h38v-729h-38zM94 -209q-38 0 -60.5 21.5t-22.5 58.5q0 25 12 51t35.5 51t55.5 46h8l10 -19q-39 -30 -63 -60.5t-24 -65.5q0 -26 15 -40t43 -14q12 0 24 3t21 7v-28q-8 -4 -23.5 -7.5t-30.5 -3.5z" />
    <glyph glyph-name="iogonek" unicode="&#x12f;" horiz-adv-x="207" 
d="M85 0v517h37v-517h-37zM104 625q-14 0 -23 9t-9 22q0 14 9 22.5t23 8.5t23 -8.5t9 -22.5q0 -13 -9 -22t-23 -9zM84 -209q-38 0 -60.5 21.5t-22.5 58.5q0 25 12 51t35.5 51t55.5 46h8l10 -19q-39 -30 -63 -60.5t-24 -65.5q0 -26 15 -40t43 -14q12 0 24 3t21 7v-28
q-8 -4 -23.5 -7.5t-30.5 -3.5z" />
    <glyph glyph-name="Idotaccent" unicode="&#x130;" horiz-adv-x="226" 
d="M94 0v729h38v-729h-38zM113 837q-14 0 -23 9t-9 22q0 14 9 22.5t23 8.5t23 -8.5t9 -22.5q0 -13 -9 -22t-23 -9z" />
    <glyph glyph-name="dotlessi" unicode="&#x131;" horiz-adv-x="207" 
d="M85 0v517h37v-517h-37z" />
    <glyph glyph-name="IJ" unicode="&#x132;" horiz-adv-x="604" 
d="M94 0v729h38v-729h-38zM254 0v35h101q71 0 97 35t26 105v554h38v-559q0 -56 -16.5 -94t-52 -57t-92.5 -19h-101z" />
    <glyph glyph-name="ij" unicode="&#x133;" horiz-adv-x="414" 
d="M85 0v517h37v-517h-37zM104 625q-14 0 -23 9t-9 22q0 14 9 22.5t23 8.5t23 -8.5t9 -22.5q0 -13 -9 -22t-23 -9zM182 -167v34h46q35 0 49.5 16.5t14.5 56.5v577h37v-587q0 -29 -10 -51t-29.5 -34t-50.5 -12h-57zM311 625q-14 0 -23 9t-9 22q0 14 9 22.5t23 8.5t23 -8.5
t9 -22.5q0 -13 -9 -22t-23 -9z" />
    <glyph glyph-name="Jcircumflex" unicode="&#x134;" horiz-adv-x="378" 
d="M28 0v35h101q71 0 97 35t26 105v554h38v-559q0 -56 -16.5 -94t-52 -57t-92.5 -19h-101zM147 803l103 136h42l104 -136h-39l-86 112l-85 -112h-39z" />
    <glyph glyph-name="jcircumflex" unicode="&#x135;" horiz-adv-x="207" 
d="M-25 -167v34h46q35 0 49.5 16.5t14.5 56.5v577h37v-587q0 -29 -10 -51t-29.5 -34t-50.5 -12h-57zM-20 591l103 136h42l104 -136h-39l-86 112l-85 -112h-39z" />
    <glyph glyph-name="uni0136" unicode="&#x136;" horiz-adv-x="647" 
d="M570 0l-284 398l-163 -167v51l435 447h51l-297 -304l305 -425h-47zM94 0v729h38v-729h-38zM253 -193l48 136h35l-54 -136h-29z" />
    <glyph glyph-name="uni0137" unicode="&#x137;" horiz-adv-x="511" 
d="M85 0v729h37v-509l49 49l254 248h49l-203 -197l215 -320h-43l-166 244l-32 50l-123 -119v-175h-37zM196 -193l48 136h35l-54 -136h-29z" />
    <glyph glyph-name="Lacute" unicode="&#x139;" horiz-adv-x="543" 
d="M94 0v729h38v-714l-18 22h400v-37h-420zM98 803l68 136h41l-78 -136h-31z" />
    <glyph glyph-name="lacute" unicode="&#x13a;" horiz-adv-x="207" 
d="M85 0v729h37v-729h-37zM89 803l68 136h41l-78 -136h-31z" />
    <glyph glyph-name="uni013B" unicode="&#x13b;" horiz-adv-x="543" 
d="M94 0v729h38v-714l-18 22h400v-37h-420zM192 -193l48 136h35l-54 -136h-29z" />
    <glyph glyph-name="uni013C" unicode="&#x13c;" horiz-adv-x="207" 
d="M85 0v729h37v-729h-37zM38 -193l48 136h35l-54 -136h-29z" />
    <glyph glyph-name="Lcaron" unicode="&#x13d;" horiz-adv-x="543" 
d="M273 536l68 193h36l-70 -193h-34zM94 0v729h38v-714l-18 22h400v-37h-420z" />
    <glyph glyph-name="lcaron" unicode="&#x13e;" horiz-adv-x="207" 
d="M180 536l68 193h36l-70 -193h-34zM85 0v729h37v-729h-37z" />
    <glyph glyph-name="Ldot" unicode="&#x13f;" horiz-adv-x="543" 
d="M94 0v729h38v-714l-18 22h400v-37h-420zM390 336q-19 0 -30.5 11.5t-11.5 29.5t11.5 29.5t30.5 11.5q20 0 30.5 -11.5t10.5 -29.5t-10.5 -29.5t-30.5 -11.5z" />
    <glyph glyph-name="ldot" unicode="&#x140;" horiz-adv-x="282" 
d="M85 0v729h37v-729h-37zM245 306q-19 0 -30.5 11.5t-11.5 29.5t11.5 29.5t30.5 11.5q20 0 30.5 -11.5t10.5 -29.5t-10.5 -29.5t-30.5 -11.5z" />
    <glyph glyph-name="Lslash" unicode="&#x141;" horiz-adv-x="576" 
d="M127 0v729h38v-714l-18 22h400v-37h-420zM32 226v35l315 139v-35z" />
    <glyph glyph-name="lslash" unicode="&#x142;" horiz-adv-x="244" 
d="M103 0v729h37v-729h-37zM28 293v38l188 105v-37z" />
    <glyph glyph-name="Nacute" unicode="&#x143;" horiz-adv-x="764" 
d="M94 0v729h55l482 -686h5l-4 260v426h38v-729h-55l-481 686h-5l3 -250v-436h-38zM367 803l68 136h41l-78 -136h-31z" />
    <glyph glyph-name="nacute" unicode="&#x144;" horiz-adv-x="581" 
d="M85 0v517h34l2 -117h4q26 62 78.5 93.5t114.5 31.5q41 0 75.5 -12.5t59.5 -39.5t39 -69.5t14 -103.5v-300h-37v294q0 68 -17 111.5t-51.5 64.5t-87.5 21q-57 0 -100.5 -28t-67.5 -76.5t-24 -112.5v-274h-36zM278 591l68 136h41l-78 -136h-31z" />
    <glyph glyph-name="uni0145" unicode="&#x145;" horiz-adv-x="764" 
d="M94 0v729h55l482 -686h5l-4 260v426h38v-729h-55l-481 686h-5l3 -250v-436h-38zM316 -193l48 136h35l-54 -136h-29z" />
    <glyph glyph-name="uni0146" unicode="&#x146;" horiz-adv-x="581" 
d="M85 0v517h34l2 -117h4q26 62 78.5 93.5t114.5 31.5q41 0 75.5 -12.5t59.5 -39.5t39 -69.5t14 -103.5v-300h-37v294q0 68 -17 111.5t-51.5 64.5t-87.5 21q-57 0 -100.5 -28t-67.5 -76.5t-24 -112.5v-274h-36zM227 -193l48 136h35l-54 -136h-29z" />
    <glyph glyph-name="Ncaron" unicode="&#x147;" horiz-adv-x="764" 
d="M94 0v729h55l482 -686h5l-4 260v426h38v-729h-55l-481 686h-5l3 -250v-436h-38zM361 803l-103 136h39l85 -112l85 112h40l-104 -136h-42z" />
    <glyph glyph-name="ncaron" unicode="&#x148;" horiz-adv-x="581" 
d="M85 0v517h34l2 -117h4q26 62 78.5 93.5t114.5 31.5q41 0 75.5 -12.5t59.5 -39.5t39 -69.5t14 -103.5v-300h-37v294q0 68 -17 111.5t-51.5 64.5t-87.5 21q-57 0 -100.5 -28t-67.5 -76.5t-24 -112.5v-274h-36zM272 591l-103 136h39l85 -112l85 112h40l-104 -136h-42z" />
    <glyph glyph-name="Eng" unicode="&#x14a;" horiz-adv-x="764" 
d="M94 0v729h55l482 -686h5l-4 260v426h38v-729h-55l-481 686h-5l3 -250v-436h-38zM523 -167v34h46q35 0 49.5 16.5t14.5 56.5v60h37v-70q0 -29 -10 -51t-29.5 -34t-50.5 -12h-57z" />
    <glyph glyph-name="eng" unicode="&#x14b;" horiz-adv-x="581" 
d="M359 -167v34h46q35 0 49.5 16.5t14.5 56.5v354q0 68 -17 111.5t-51.5 64.5t-87.5 21q-57 0 -100.5 -28t-67.5 -76.5t-24 -112.5v-274h-36v517h34l2 -117h4q26 62 78.5 93.5t114.5 31.5q41 0 75.5 -12.5t59.5 -39.5t39 -69.5t14 -103.5v-370q0 -29 -10 -51t-29.5 -34
t-50.5 -12h-57z" />
    <glyph glyph-name="Omacron" unicode="&#x14c;" horiz-adv-x="810" 
d="M405 -8q-79 0 -143.5 26.5t-111 76t-71 118t-24.5 151.5q0 84 25 152.5t71 117.5t110.5 75.5t143.5 26.5q80 0 144 -26.5t110.5 -76t71 -117.5t24.5 -152t-25 -152.5t-71.5 -117.5t-110.5 -75.5t-143 -26.5zM405 28q96 0 165.5 42.5t107 118t37.5 175.5q0 76 -21.5 137.5
t-62 106t-97.5 68.5t-129 24q-96 0 -165 -42t-106.5 -117.5t-37.5 -176.5q0 -75 21.5 -137t61.5 -106.5t97 -68.5t129 -24zM245 837v33h319v-33h-319z" />
    <glyph glyph-name="omacron" unicode="&#x14d;" horiz-adv-x="589" 
d="M296 -8q-55 0 -99.5 19t-77 54.5t-50 84t-17.5 107.5q0 79 30.5 139.5t85.5 94.5t128 34q54 0 98.5 -19t76 -54.5t49 -84.5t17.5 -109q0 -78 -30 -138t-84.5 -94t-126.5 -34zM295 28q61 0 107 28t71.5 80t25.5 122q0 52 -14 94.5t-40.5 73.5t-64 47.5t-84.5 16.5
q-61 0 -107.5 -28.5t-72.5 -80.5t-26 -124q0 -51 14 -93.5t41 -72.5t65 -46.5t85 -16.5zM135 625v33h319v-33h-319z" />
    <glyph glyph-name="Ohungarumlaut" unicode="&#x150;" horiz-adv-x="810" 
d="M405 -8q-79 0 -143.5 26.5t-111 76t-71 118t-24.5 151.5q0 84 25 152.5t71 117.5t110.5 75.5t143.5 26.5q80 0 144 -26.5t110.5 -76t71 -117.5t24.5 -152t-25 -152.5t-71.5 -117.5t-110.5 -75.5t-143 -26.5zM405 28q96 0 165.5 42.5t107 118t37.5 175.5q0 76 -21.5 137.5
t-62 106t-97.5 68.5t-129 24q-96 0 -165 -42t-106.5 -117.5t-37.5 -176.5q0 -75 21.5 -137t61.5 -106.5t97 -68.5t129 -24zM324 803l66 136h41l-78 -136h-29zM457 803l68 136h41l-78 -136h-31z" />
    <glyph glyph-name="ohungarumlaut" unicode="&#x151;" horiz-adv-x="589" 
d="M296 -8q-55 0 -99.5 19t-77 54.5t-50 84t-17.5 107.5q0 79 30.5 139.5t85.5 94.5t128 34q54 0 98.5 -19t76 -54.5t49 -84.5t17.5 -109q0 -78 -30 -138t-84.5 -94t-126.5 -34zM295 28q61 0 107 28t71.5 80t25.5 122q0 52 -14 94.5t-40.5 73.5t-64 47.5t-84.5 16.5
q-61 0 -107.5 -28.5t-72.5 -80.5t-26 -124q0 -51 14 -93.5t41 -72.5t65 -46.5t85 -16.5zM214 591l66 136h41l-78 -136h-29zM347 591l68 136h41l-78 -136h-31z" />
    <glyph glyph-name="OE" unicode="&#x152;" horiz-adv-x="1042" 
d="M415 -10q-86 0 -153 27t-113 77t-70 118.5t-24 152.5q0 83 24 152t70 118.5t113 76.5t153 27q23 0 50.5 -2.5t54.5 -7.5h485v-36h-443v-301h395v-34h-395v-321h443v-37h-485q-27 -4 -54.5 -7t-50.5 -3zM415 26q28 0 57.5 3.5t51.5 8.5v653q-22 5 -51.5 8.5t-57.5 3.5
q-100 0 -171.5 -42.5t-109.5 -118.5t-38 -177t38 -177.5t109.5 -119t171.5 -42.5z" />
    <glyph glyph-name="oe" unicode="&#x153;" horiz-adv-x="1012" 
d="M296 -8q-55 0 -99.5 19t-77 54.5t-50 84t-17.5 107.5q0 79 30.5 139.5t85.5 94.5t128 34q86 0 146 -47t83 -126l-13 -1q20 80 78 127t145 47q59 0 103 -20t72 -56.5t39.5 -85.5t6.5 -107h-427l1 33h422l-32 -28q5 78 -17.5 129t-66 76t-102.5 25q-58 0 -102.5 -26
t-69.5 -75t-25 -120v-3q0 -76 24.5 -130t69.5 -82.5t106 -28.5q73 0 120 34.5t60 91.5h38q-8 -48 -38.5 -84t-77 -56t-102.5 -20q-86 0 -145 47t-80 127l13 -1q-23 -79 -83 -126t-146 -47zM295 28q61 0 107 28t71.5 80t25.5 122q0 52 -14 94.5t-40.5 73.5t-64 47.5
t-84.5 16.5q-61 0 -107.5 -28.5t-72.5 -80.5t-26 -124q0 -51 14 -93.5t41 -72.5t65 -46.5t85 -16.5z" />
    <glyph glyph-name="Racute" unicode="&#x154;" horiz-adv-x="693" 
d="M94 0v729h310q43 0 77.5 -8t61.5 -24t45 -39t27.5 -52.5t9.5 -65.5q0 -68 -32.5 -114.5t-98.5 -65.5v-5q43 -7 68.5 -26t36.5 -49.5t11 -72.5v-134q0 -17 1.5 -35t9.5 -38h-39q-7 17 -9 35t-2 42v123q0 46 -13 76t-47 45t-97 15h-291v35h277q100 0 143 46t43 119
q0 41 -13 70.5t-38 49t-59 28.5t-76 9h-268v-693h-38zM315 803l68 136h41l-78 -136h-31z" />
    <glyph glyph-name="racute" unicode="&#x155;" horiz-adv-x="340" 
d="M85 0v517h32l4 -104h2q17 50 62 80.5t101 30.5q9 0 17 -0.5t15 -1.5v-36q-7 1 -15 1.5t-16 0.5q-43 0 -79 -18t-59 -52t-28 -82v-336h-36zM156 591l68 136h41l-78 -136h-31z" />
    <glyph glyph-name="uni0156" unicode="&#x156;" horiz-adv-x="693" 
d="M94 0v729h310q43 0 77.5 -8t61.5 -24t45 -39t27.5 -52.5t9.5 -65.5q0 -68 -32.5 -114.5t-98.5 -65.5v-5q43 -7 68.5 -26t36.5 -49.5t11 -72.5v-134q0 -17 1.5 -35t9.5 -38h-39q-7 17 -9 35t-2 42v123q0 46 -13 76t-47 45t-97 15h-291v35h277q100 0 143 46t43 119
q0 41 -13 70.5t-38 49t-59 28.5t-76 9h-268v-693h-38zM275 -193l48 136h35l-54 -136h-29z" />
    <glyph glyph-name="uni0157" unicode="&#x157;" horiz-adv-x="340" 
d="M85 0v517h32l4 -104h2q17 50 62 80.5t101 30.5q9 0 17 -0.5t15 -1.5v-36q-7 1 -15 1.5t-16 0.5q-43 0 -79 -18t-59 -52t-28 -82v-336h-36zM37 -193l48 136h35l-54 -136h-29z" />
    <glyph glyph-name="Rcaron" unicode="&#x158;" horiz-adv-x="693" 
d="M94 0v729h310q43 0 77.5 -8t61.5 -24t45 -39t27.5 -52.5t9.5 -65.5q0 -68 -32.5 -114.5t-98.5 -65.5v-5q43 -7 68.5 -26t36.5 -49.5t11 -72.5v-134q0 -17 1.5 -35t9.5 -38h-39q-7 17 -9 35t-2 42v123q0 46 -13 76t-47 45t-97 15h-291v35h277q100 0 143 46t43 119
q0 41 -13 70.5t-38 49t-59 28.5t-76 9h-268v-693h-38zM309 803l-103 136h39l85 -112l85 112h40l-104 -136h-42z" />
    <glyph glyph-name="rcaron" unicode="&#x159;" horiz-adv-x="340" 
d="M85 0v517h32l4 -104h2q17 50 62 80.5t101 30.5q9 0 17 -0.5t15 -1.5v-36q-7 1 -15 1.5t-16 0.5q-43 0 -79 -18t-59 -52t-28 -82v-336h-36zM150 591l-103 136h39l85 -112l85 112h40l-104 -136h-42z" />
    <glyph glyph-name="Sacute" unicode="&#x15a;" horiz-adv-x="634" 
d="M321 -8q-93 0 -152.5 30t-88 83t-30.5 120h41q2 -61 27 -106t74.5 -69t126.5 -24q68 0 118.5 17t78.5 52t28 88q0 42 -12.5 71t-40 48.5t-70 33t-102.5 24.5q-62 12 -109 26t-78.5 34.5t-47.5 52t-16 77.5q0 56 29 98t83.5 65.5t131.5 23.5q81 0 135 -26t82.5 -72.5
t29.5 -109.5h-40q-2 56 -27.5 95t-71.5 59t-112 20q-64 0 -108.5 -18.5t-68 -51.5t-23.5 -78q0 -51 22.5 -80t72 -46t130.5 -32q52 -9 97.5 -22t80 -35.5t54 -59.5t19.5 -95t-30.5 -101.5t-89.5 -67.5t-143 -24zM293 803l68 136h41l-78 -136h-31z" />
    <glyph glyph-name="sacute" unicode="&#x15b;" horiz-adv-x="494" 
d="M249 -10q-46 0 -82.5 11.5t-62.5 32t-40 50t-16 65.5h37q3 -43 24 -71t57.5 -41.5t83.5 -13.5q74 0 114 28.5t40 80.5q0 38 -16 60t-49.5 34t-87.5 20q-61 9 -103 24t-63.5 42t-21.5 73q0 43 23 74.5t64 49.5t96 18q58 0 99 -18.5t63.5 -53t23.5 -82.5h-36
q-2 44 -21.5 70.5t-52 38.5t-75.5 12q-70 0 -108.5 -29t-38.5 -76q0 -34 17 -55.5t52 -33t88 -19.5q54 -8 96 -22t65.5 -43t23.5 -81q0 -46 -24 -78.5t-67.5 -49.5t-101.5 -17zM231 591l68 136h41l-78 -136h-31z" />
    <glyph glyph-name="Scircumflex" unicode="&#x15c;" horiz-adv-x="634" 
d="M321 -8q-93 0 -152.5 30t-88 83t-30.5 120h41q2 -61 27 -106t74.5 -69t126.5 -24q68 0 118.5 17t78.5 52t28 88q0 42 -12.5 71t-40 48.5t-70 33t-102.5 24.5q-62 12 -109 26t-78.5 34.5t-47.5 52t-16 77.5q0 56 29 98t83.5 65.5t131.5 23.5q81 0 135 -26t82.5 -72.5
t29.5 -109.5h-40q-2 56 -27.5 95t-71.5 59t-112 20q-64 0 -108.5 -18.5t-68 -51.5t-23.5 -78q0 -51 22.5 -80t72 -46t130.5 -32q52 -9 97.5 -22t80 -35.5t54 -59.5t19.5 -95t-30.5 -101.5t-89.5 -67.5t-143 -24zM184 803l103 136h42l104 -136h-39l-86 112l-85 -112h-39z" />
    <glyph glyph-name="scircumflex" unicode="&#x15d;" horiz-adv-x="494" 
d="M249 -10q-46 0 -82.5 11.5t-62.5 32t-40 50t-16 65.5h37q3 -43 24 -71t57.5 -41.5t83.5 -13.5q74 0 114 28.5t40 80.5q0 38 -16 60t-49.5 34t-87.5 20q-61 9 -103 24t-63.5 42t-21.5 73q0 43 23 74.5t64 49.5t96 18q58 0 99 -18.5t63.5 -53t23.5 -82.5h-36
q-2 44 -21.5 70.5t-52 38.5t-75.5 12q-70 0 -108.5 -29t-38.5 -76q0 -34 17 -55.5t52 -33t88 -19.5q54 -8 96 -22t65.5 -43t23.5 -81q0 -46 -24 -78.5t-67.5 -49.5t-101.5 -17zM122 591l103 136h42l104 -136h-39l-86 112l-85 -112h-39z" />
    <glyph glyph-name="Scedilla" unicode="&#x15e;" horiz-adv-x="634" 
d="M321 -8q-93 0 -152.5 30t-88 83t-30.5 120h41q2 -61 27 -106t74.5 -69t126.5 -24q68 0 118.5 17t78.5 52t28 88q0 42 -12.5 71t-40 48.5t-70 33t-102.5 24.5q-62 12 -109 26t-78.5 34.5t-47.5 52t-16 77.5q0 56 29 98t83.5 65.5t131.5 23.5q81 0 135 -26t82.5 -72.5
t29.5 -109.5h-40q-2 56 -27.5 95t-71.5 59t-112 20q-64 0 -108.5 -18.5t-68 -51.5t-23.5 -78q0 -51 22.5 -80t72 -46t130.5 -32q52 -9 97.5 -22t80 -35.5t54 -59.5t19.5 -95t-30.5 -101.5t-89.5 -67.5t-143 -24zM316 -233q-37 0 -63 17t-36 47l33 10q8 -21 24.5 -32.5
t41.5 -12.5q32 0 48.5 16t16.5 41q0 28 -21.5 44.5t-73.5 26.5l-10 21l33 65h32l-28 -62q50 -11 76.5 -36t26.5 -61q0 -37 -27.5 -61t-72.5 -23z" />
    <glyph glyph-name="scedilla" unicode="&#x15f;" horiz-adv-x="494" 
d="M249 -10q-46 0 -82.5 11.5t-62.5 32t-40 50t-16 65.5h37q3 -43 24 -71t57.5 -41.5t83.5 -13.5q74 0 114 28.5t40 80.5q0 38 -16 60t-49.5 34t-87.5 20q-61 9 -103 24t-63.5 42t-21.5 73q0 43 23 74.5t64 49.5t96 18q58 0 99 -18.5t63.5 -53t23.5 -82.5h-36
q-2 44 -21.5 70.5t-52 38.5t-75.5 12q-70 0 -108.5 -29t-38.5 -76q0 -34 17 -55.5t52 -33t88 -19.5q54 -8 96 -22t65.5 -43t23.5 -81q0 -46 -24 -78.5t-67.5 -49.5t-101.5 -17zM241 -233q-37 0 -63 17t-36 47l33 10q8 -21 24.5 -32.5t41.5 -12.5q32 0 48.5 16t16.5 41
q0 28 -21.5 44.5t-73.5 26.5l-10 21l33 65h32l-28 -62q50 -11 76.5 -36t26.5 -61q0 -37 -27.5 -61t-72.5 -23z" />
    <glyph glyph-name="Scaron" unicode="&#x160;" horiz-adv-x="634" 
d="M321 -8q-93 0 -152.5 30t-88 83t-30.5 120h41q2 -61 27 -106t74.5 -69t126.5 -24q68 0 118.5 17t78.5 52t28 88q0 42 -12.5 71t-40 48.5t-70 33t-102.5 24.5q-62 12 -109 26t-78.5 34.5t-47.5 52t-16 77.5q0 56 29 98t83.5 65.5t131.5 23.5q81 0 135 -26t82.5 -72.5
t29.5 -109.5h-40q-2 56 -27.5 95t-71.5 59t-112 20q-64 0 -108.5 -18.5t-68 -51.5t-23.5 -78q0 -51 22.5 -80t72 -46t130.5 -32q52 -9 97.5 -22t80 -35.5t54 -59.5t19.5 -95t-30.5 -101.5t-89.5 -67.5t-143 -24zM287 803l-103 136h39l85 -112l85 112h40l-104 -136h-42z" />
    <glyph glyph-name="scaron" unicode="&#x161;" horiz-adv-x="494" 
d="M249 -10q-46 0 -82.5 11.5t-62.5 32t-40 50t-16 65.5h37q3 -43 24 -71t57.5 -41.5t83.5 -13.5q74 0 114 28.5t40 80.5q0 38 -16 60t-49.5 34t-87.5 20q-61 9 -103 24t-63.5 42t-21.5 73q0 43 23 74.5t64 49.5t96 18q58 0 99 -18.5t63.5 -53t23.5 -82.5h-36
q-2 44 -21.5 70.5t-52 38.5t-75.5 12q-70 0 -108.5 -29t-38.5 -76q0 -34 17 -55.5t52 -33t88 -19.5q54 -8 96 -22t65.5 -43t23.5 -81q0 -46 -24 -78.5t-67.5 -49.5t-101.5 -17zM225 591l-103 136h39l85 -112l85 112h40l-104 -136h-42z" />
    <glyph glyph-name="uni0162" unicode="&#x162;" horiz-adv-x="594" 
d="M294 -233q-37 0 -64 16.5t-37 47.5l33 10q8 -22 25 -33.5t44 -11.5q30 0 46 16t16 41q0 28 -22 44.5t-75 26.5l-13 25l39 64l30 -13l-30 -51q52 -11 79 -36.5t27 -61.5q0 -37 -27 -60.5t-71 -23.5zM278 0v703h38v-703h-38zM28 693v36h538v-36h-538z" />
    <glyph glyph-name="uni0163" unicode="&#x163;" horiz-adv-x="330" 
d="M225 0q-45 0 -70.5 22.5t-25.5 74.5v388h-107v32h107v164l36 9v-173h131v-32h-130v-384q0 -34 15 -49.5t47 -15.5h70v-36h-73zM213 -233q-37 0 -63 17t-36 47l33 10q8 -21 24.5 -32.5t41.5 -12.5q32 0 48.5 16t16.5 41q0 28 -21.5 44.5t-73.5 26.5l-10 21l33 65h32
l-28 -62q50 -11 76.5 -36t26.5 -61q0 -37 -27.5 -61t-72.5 -23z" />
    <glyph glyph-name="Tcaron" unicode="&#x164;" horiz-adv-x="594" 
d="M278 0v703h38v-703h-38zM28 693v36h538v-36h-538zM276 803l-103 136h39l85 -112l85 112h40l-104 -136h-42z" />
    <glyph glyph-name="tcaron" unicode="&#x165;" horiz-adv-x="330" 
d="M236 592l68 193h36l-70 -193h-34zM225 0q-45 0 -70.5 22.5t-25.5 74.5v388h-107v32h107v164l36 9v-173h131v-32h-130v-384q0 -34 15 -49.5t47 -15.5h70v-36h-73z" />
    <glyph glyph-name="Tbar" unicode="&#x166;" horiz-adv-x="594" 
d="M107 348v34h380v-34h-380zM278 0v703h38v-703h-38zM28 693v36h538v-36h-538z" />
    <glyph glyph-name="tbar" unicode="&#x167;" horiz-adv-x="357" 
d="M36 243v32h274v-32h-274zM239 0q-45 0 -70.5 22.5t-25.5 74.5v388h-107v32h107v164l36 9v-173h131v-32h-130v-384q0 -34 15 -49.5t47 -15.5h70v-36h-73z" />
    <glyph glyph-name="Utilde" unicode="&#x168;" horiz-adv-x="723" 
d="M362 -8q-86 0 -149 31.5t-97 91.5t-34 145v469h38v-465q0 -79 29.5 -131.5t84 -78t128.5 -25.5q83 0 136.5 29t79.5 82t26 124v465h37v-469q0 -80 -32 -140.5t-94 -94t-153 -33.5zM427 833q-30 0 -52.5 7t-41.5 13.5t-41 6.5q-19 0 -32.5 -6t-26.5 -23l-20 12
q13 18 25 29t27 16t34 5q21 0 43.5 -7t46 -14t46.5 -7q17 0 32.5 7t27.5 23l21 -13q-12 -17 -25.5 -28t-29 -16t-34.5 -5z" />
    <glyph glyph-name="utilde" unicode="&#x169;" horiz-adv-x="581" 
d="M264 -8q-56 0 -99 23t-66.5 70.5t-23.5 118.5v313h37v-306q0 -58 16.5 -99.5t52 -63.5t91.5 -22q54 0 96.5 27t66.5 77.5t24 118.5v268h37v-517h-34l-3 121h-4q-21 -59 -72.5 -94t-118.5 -35zM351 621q-30 0 -52.5 7t-41.5 13.5t-41 6.5q-19 0 -32.5 -6t-26.5 -23l-20 12
q13 18 25 29t27 16t34 5q21 0 43.5 -7t46 -14t46.5 -7q17 0 32.5 7t27.5 23l21 -13q-12 -17 -25.5 -28t-29 -16t-34.5 -5z" />
    <glyph glyph-name="Umacron" unicode="&#x16a;" horiz-adv-x="723" 
d="M362 -8q-86 0 -149 31.5t-97 91.5t-34 145v469h38v-465q0 -79 29.5 -131.5t84 -78t128.5 -25.5q83 0 136.5 29t79.5 82t26 124v465h37v-469q0 -80 -32 -140.5t-94 -94t-153 -33.5zM202 837v33h319v-33h-319z" />
    <glyph glyph-name="umacron" unicode="&#x16b;" horiz-adv-x="581" 
d="M264 -8q-56 0 -99 23t-66.5 70.5t-23.5 118.5v313h37v-306q0 -58 16.5 -99.5t52 -63.5t91.5 -22q54 0 96.5 27t66.5 77.5t24 118.5v268h37v-517h-34l-3 121h-4q-21 -59 -72.5 -94t-118.5 -35zM126 625v33h319v-33h-319z" />
    <glyph glyph-name="Ubreve" unicode="&#x16c;" horiz-adv-x="723" 
d="M362 -8q-86 0 -149 31.5t-97 91.5t-34 145v469h38v-465q0 -79 29.5 -131.5t84 -78t128.5 -25.5q83 0 136.5 29t79.5 82t26 124v465h37v-469q0 -80 -32 -140.5t-94 -94t-153 -33.5zM362 793q-41 0 -69.5 16t-43 47t-15.5 77h36q0 -54 23.5 -81.5t68.5 -27.5t68.5 27.5
t23.5 81.5h36q-1 -69 -33.5 -104.5t-94.5 -35.5z" />
    <glyph glyph-name="ubreve" unicode="&#x16d;" horiz-adv-x="581" 
d="M264 -8q-56 0 -99 23t-66.5 70.5t-23.5 118.5v313h37v-306q0 -58 16.5 -99.5t52 -63.5t91.5 -22q54 0 96.5 27t66.5 77.5t24 118.5v268h37v-517h-34l-3 121h-4q-21 -59 -72.5 -94t-118.5 -35zM286 581q-41 0 -69.5 16t-43 47t-15.5 77h36q0 -54 23.5 -81.5t68.5 -27.5
t68.5 27.5t23.5 81.5h36q-1 -69 -33.5 -104.5t-94.5 -35.5z" />
    <glyph glyph-name="Uring" unicode="&#x16e;" horiz-adv-x="723" 
d="M362 -8q-86 0 -149 31.5t-97 91.5t-34 145v469h38v-465q0 -79 29.5 -131.5t84 -78t128.5 -25.5q83 0 136.5 29t79.5 82t26 124v465h37v-469q0 -80 -32 -140.5t-94 -94t-153 -33.5zM362 778q-41 0 -67 24.5t-26 64.5q0 41 26 65t67 24t67 -24t26 -65q0 -40 -26 -64.5
t-67 -24.5zM362 806q28 0 44.5 17t16.5 44t-16.5 43.5t-44.5 16.5t-44.5 -16.5t-16.5 -43.5t16.5 -44t44.5 -17z" />
    <glyph glyph-name="uring" unicode="&#x16f;" horiz-adv-x="581" 
d="M264 -8q-56 0 -99 23t-66.5 70.5t-23.5 118.5v313h37v-306q0 -58 16.5 -99.5t52 -63.5t91.5 -22q54 0 96.5 27t66.5 77.5t24 118.5v268h37v-517h-34l-3 121h-4q-21 -59 -72.5 -94t-118.5 -35zM286 566q-41 0 -67 24.5t-26 64.5q0 41 26 65t67 24t67 -24t26 -65
q0 -40 -26 -64.5t-67 -24.5zM286 594q28 0 44.5 17t16.5 44t-16.5 43.5t-44.5 16.5t-44.5 -16.5t-16.5 -43.5t16.5 -44t44.5 -17z" />
    <glyph glyph-name="Uhungarumlaut" unicode="&#x170;" horiz-adv-x="723" 
d="M362 -8q-86 0 -149 31.5t-97 91.5t-34 145v469h38v-465q0 -79 29.5 -131.5t84 -78t128.5 -25.5q83 0 136.5 29t79.5 82t26 124v465h37v-469q0 -80 -32 -140.5t-94 -94t-153 -33.5zM281 803l66 136h41l-78 -136h-29zM414 803l68 136h41l-78 -136h-31z" />
    <glyph glyph-name="uhungarumlaut" unicode="&#x171;" horiz-adv-x="581" 
d="M264 -8q-56 0 -99 23t-66.5 70.5t-23.5 118.5v313h37v-306q0 -58 16.5 -99.5t52 -63.5t91.5 -22q54 0 96.5 27t66.5 77.5t24 118.5v268h37v-517h-34l-3 121h-4q-21 -59 -72.5 -94t-118.5 -35zM205 591l66 136h41l-78 -136h-29zM338 591l68 136h41l-78 -136h-31z" />
    <glyph glyph-name="Uogonek" unicode="&#x172;" horiz-adv-x="723" 
d="M440 -196q-43 0 -67 20.5t-24 56.5q0 37 21.5 66.5t55 55t68.5 50.5l12 -17q-32 -25 -61 -48.5t-47 -47.5t-18 -53q0 -55 66 -55q8 0 21 1.5t26 5.5v-27q-10 -4 -23.5 -6t-29.5 -2zM362 -8q-86 0 -149 31.5t-97 91.5t-34 145v469h38v-465q0 -79 29.5 -131.5t84 -78
t128.5 -25.5q83 0 136.5 29t79.5 82t26 124v465h37v-469q0 -80 -32 -140.5t-94 -94t-153 -33.5z" />
    <glyph glyph-name="uogonek" unicode="&#x173;" horiz-adv-x="581" 
d="M264 -8q-56 0 -99 23t-66.5 70.5t-23.5 118.5v313h37v-306q0 -58 16.5 -99.5t52 -63.5t91.5 -22q54 0 96.5 27t66.5 77.5t24 118.5v268h37v-517h-34l-3 121h-4q-21 -59 -72.5 -94t-118.5 -35zM458 -209q-38 0 -60.5 21.5t-22.5 58.5q0 25 12 51t35.5 51t55.5 46h8l10 -19
q-39 -30 -63 -60.5t-24 -65.5q0 -26 15 -40t43 -14q12 0 24 3t21 7v-28q-8 -4 -23.5 -7.5t-30.5 -3.5z" />
    <glyph glyph-name="Wcircumflex" unicode="&#x174;" horiz-adv-x="954" 
d="M228 0l-193 729h41l127 -481l51 -215h6l55 215l134 481h56l134 -481l55 -215h6l51 215l127 481h41l-193 -729h-58l-127 459l-61 233h-6l-61 -233l-128 -459h-57zM353 803l103 136h42l104 -136h-39l-86 112l-85 -112h-39z" />
    <glyph glyph-name="wcircumflex" unicode="&#x175;" horiz-adv-x="724" 
d="M177 0l-146 517h38l84 -309l47 -177h4l48 177l86 309h46l89 -309l49 -177h4l46 177l83 309h38l-145 -517h-49l-85 295l-51 181h-4l-49 -181l-82 -295h-51zM238 591l103 136h42l104 -136h-39l-86 112l-85 -112h-39z" />
    <glyph glyph-name="Ycircumflex" unicode="&#x176;" horiz-adv-x="634" 
d="M297 0v300l-270 429h46l135 -216l106 -176h5l107 176l136 216h45l-272 -429v-300h-38zM194 803l103 136h42l104 -136h-39l-86 112l-85 -112h-39z" />
    <glyph glyph-name="ycircumflex" unicode="&#x177;" horiz-adv-x="492" 
d="M53 -167v32h47q26 0 44 7.5t31 23t22 39.5l41 104v-16l-213 494h41l124 -294l60 -152h4l56 152l117 294h39l-238 -594q-12 -30 -28 -50t-39.5 -30t-58.5 -10h-49zM122 591l103 136h42l104 -136h-39l-86 112l-85 -112h-39z" />
    <glyph glyph-name="Ydieresis" unicode="&#x178;" horiz-adv-x="634" 
d="M297 0v300l-270 429h46l135 -216l106 -176h5l107 176l136 216h45l-272 -429v-300h-38zM408 837q-14 0 -23 9t-9 22q0 14 9 22.5t23 8.5t23 -8.5t9 -22.5q0 -13 -9 -22t-23 -9zM228 837q-14 0 -23 9t-9 22q0 14 9 22.5t23 8.5t23 -8.5t9 -22.5q0 -13 -9 -22t-23 -9z" />
    <glyph glyph-name="Zacute" unicode="&#x179;" horiz-adv-x="618" 
d="M34 0v29l486 664h-471v36h523v-28l-486 -664h498v-37h-550zM293 803l68 136h41l-78 -136h-31z" />
    <glyph glyph-name="zacute" unicode="&#x17a;" horiz-adv-x="482" 
d="M30 0v29l367 456h-356v32h400v-30l-366 -455h377v-32h-422zM226 591l68 136h41l-78 -136h-31z" />
    <glyph glyph-name="Zdotaccent" unicode="&#x17b;" horiz-adv-x="618" 
d="M34 0v29l486 664h-471v36h523v-28l-486 -664h498v-37h-550zM308 837q-14 0 -23 9t-9 22q0 14 9 22.5t23 8.5t23 -8.5t9 -22.5q0 -13 -9 -22t-23 -9z" />
    <glyph glyph-name="zdotaccent" unicode="&#x17c;" horiz-adv-x="482" 
d="M30 0v29l367 456h-356v32h400v-30l-366 -455h377v-32h-422zM241 625q-14 0 -23 9t-9 22q0 14 9 22.5t23 8.5t23 -8.5t9 -22.5q0 -13 -9 -22t-23 -9z" />
    <glyph glyph-name="Zcaron" unicode="&#x17d;" horiz-adv-x="618" 
d="M34 0v29l486 664h-471v36h523v-28l-486 -664h498v-37h-550zM287 803l-103 136h39l85 -112l85 112h40l-104 -136h-42z" />
    <glyph glyph-name="zcaron" unicode="&#x17e;" horiz-adv-x="482" 
d="M30 0v29l367 456h-356v32h400v-30l-366 -455h377v-32h-422zM220 591l-103 136h39l85 -112l85 112h40l-104 -136h-42z" />
    <glyph glyph-name="florin" unicode="&#x192;" horiz-adv-x="407" 
d="M45 -167v34h29q60 0 85.5 26.5t25.5 87.5v604q0 73 38 108.5t102 35.5h37v-34h-29q-60 0 -85.5 -26.5t-25.5 -87.5v-604q0 -73 -37.5 -108.5t-102.5 -35.5h-37zM85 384v34h238v-34h-238z" />
    <glyph glyph-name="Ohorn" unicode="&#x1a0;" horiz-adv-x="810" 
d="M405 -8q-79 0 -143.5 26.5t-111 76t-71 118t-24.5 151.5q0 84 25 152.5t71 117.5t110.5 75.5t143.5 26.5q80 0 144 -26.5t110.5 -76t71 -117.5t24.5 -152t-25 -152.5t-71.5 -117.5t-110.5 -75.5t-143 -26.5zM405 28q96 0 165.5 42.5t107 118t37.5 175.5q0 76 -21.5 137.5
t-62 106t-97.5 68.5t-129 24q-96 0 -165 -42t-106.5 -117.5t-37.5 -176.5q0 -75 21.5 -137t61.5 -106.5t97 -68.5t129 -24zM572 670v29q38 0 61 13.5t32 42t4 72.5h33q5 -52 -8 -87t-43.5 -52.5t-78.5 -17.5z" />
    <glyph glyph-name="ohorn" unicode="&#x1a1;" horiz-adv-x="589" 
d="M296 -8q-55 0 -99.5 19t-77 54.5t-50 84t-17.5 107.5q0 79 30.5 139.5t85.5 94.5t128 34q54 0 98.5 -19t76 -54.5t49 -84.5t17.5 -109q0 -78 -30 -138t-84.5 -94t-126.5 -34zM295 28q61 0 107 28t71.5 80t25.5 122q0 52 -14 94.5t-40.5 73.5t-64 47.5t-84.5 16.5
q-61 0 -107.5 -28.5t-72.5 -80.5t-26 -124q0 -51 14 -93.5t41 -72.5t65 -46.5t85 -16.5zM381 478v29q38 0 61 13.5t32 42t4 72.5h33q5 -52 -8 -87t-43.5 -52.5t-78.5 -17.5z" />
    <glyph glyph-name="Uhorn" unicode="&#x1af;" horiz-adv-x="723" 
d="M362 -8q-86 0 -149 31.5t-97 91.5t-34 145v469h38v-465q0 -79 29.5 -131.5t84 -78t128.5 -25.5q83 0 136.5 29t79.5 82t26 124v465h37v-469q0 -80 -32 -140.5t-94 -94t-153 -33.5zM604 700v29q38 0 61 13.5t32 42t4 72.5h33q5 -52 -8 -87t-43.5 -52.5t-78.5 -17.5z" />
    <glyph glyph-name="uhorn" unicode="&#x1b0;" horiz-adv-x="609" 
d="M264 -8q-56 0 -99 23t-66.5 70.5t-23.5 118.5v313h37v-306q0 -58 16.5 -99.5t52 -63.5t91.5 -22q54 0 96.5 27t66.5 77.5t24 118.5v268h37v-517h-34l-3 121h-4q-21 -59 -72.5 -94t-118.5 -35zM459 488v29q38 0 61 13.5t32 42t4 72.5h33q5 -52 -8 -87t-43.5 -52.5
t-78.5 -17.5z" />
    <glyph glyph-name="Gcaron" unicode="&#x1e6;" horiz-adv-x="806" 
d="M405 -8q-79 0 -143.5 26.5t-111 76t-71 118t-24.5 151.5q0 84 25 152.5t71 117.5t110.5 75.5t143.5 26.5q84 0 151 -25.5t111 -74.5t58 -121h-40q-14 57 -51 98.5t-94.5 64t-134.5 22.5q-96 0 -165 -42t-106.5 -117.5t-37.5 -176.5q0 -75 21.5 -137t61.5 -106.5t97 -68.5
t129 -24q84 0 149 33t102 93.5t37 143.5v61l19 -19h-339v36h361v-376h-32l-5 174h-6q-17 -55 -59 -96t-100.5 -63.5t-126.5 -22.5zM384 803l-103 136h39l85 -112l85 112h40l-104 -136h-42z" />
    <glyph glyph-name="gcaron" unicode="&#x1e7;" horiz-adv-x="576" 
d="M271 -177q-52 0 -93 16t-67 46t-33 72h36q6 -31 27 -54t54 -35t76 -12q60 0 101 17.5t61.5 54.5t20.5 97v112h-2q-19 -55 -68.5 -89.5t-120.5 -34.5q-46 0 -84.5 18t-66.5 51.5t-43 81t-15 106.5q0 80 26.5 137.5t73.5 88.5t109 31q71 0 120.5 -33.5t68.5 -89.5h3l2 113
h34v-492q0 -68 -26.5 -113t-75.5 -67t-118 -22zM272 47q57 0 98 27t62.5 70.5t21.5 92.5v68q0 49 -21.5 92t-62 70t-98.5 27q-54 0 -94.5 -26.5t-63 -76.5t-22.5 -121q0 -70 22.5 -120t63 -76.5t94.5 -26.5zM269 591l-103 136h39l85 -112l85 112h40l-104 -136h-42z" />
    <glyph glyph-name="uni0218" unicode="&#x218;" horiz-adv-x="634" 
d="M321 -8q-93 0 -152.5 30t-88 83t-30.5 120h41q2 -61 27 -106t74.5 -69t126.5 -24q68 0 118.5 17t78.5 52t28 88q0 42 -12.5 71t-40 48.5t-70 33t-102.5 24.5q-62 12 -109 26t-78.5 34.5t-47.5 52t-16 77.5q0 56 29 98t83.5 65.5t131.5 23.5q81 0 135 -26t82.5 -72.5
t29.5 -109.5h-40q-2 56 -27.5 95t-71.5 59t-112 20q-64 0 -108.5 -18.5t-68 -51.5t-23.5 -78q0 -51 22.5 -80t72 -46t130.5 -32q52 -9 97.5 -22t80 -35.5t54 -59.5t19.5 -95t-30.5 -101.5t-89.5 -67.5t-143 -24zM255 -193l48 136h35l-54 -136h-29z" />
    <glyph glyph-name="uni0219" unicode="&#x219;" horiz-adv-x="494" 
d="M249 -10q-46 0 -82.5 11.5t-62.5 32t-40 50t-16 65.5h37q3 -43 24 -71t57.5 -41.5t83.5 -13.5q74 0 114 28.5t40 80.5q0 38 -16 60t-49.5 34t-87.5 20q-61 9 -103 24t-63.5 42t-21.5 73q0 43 23 74.5t64 49.5t96 18q58 0 99 -18.5t63.5 -53t23.5 -82.5h-36
q-2 44 -21.5 70.5t-52 38.5t-75.5 12q-70 0 -108.5 -29t-38.5 -76q0 -34 17 -55.5t52 -33t88 -19.5q54 -8 96 -22t65.5 -43t23.5 -81q0 -46 -24 -78.5t-67.5 -49.5t-101.5 -17zM180 -193l48 136h35l-54 -136h-29z" />
    <glyph glyph-name="uni021A" unicode="&#x21a;" horiz-adv-x="594" 
d="M278 0v703h38v-703h-38zM28 693v36h538v-36h-538zM231 -193l48 136h35l-54 -136h-29z" />
    <glyph glyph-name="uni021B" unicode="&#x21b;" horiz-adv-x="330" 
d="M225 0q-45 0 -70.5 22.5t-25.5 74.5v388h-107v32h107v164l36 9v-173h131v-32h-130v-384q0 -34 15 -49.5t47 -15.5h70v-36h-73zM152 -193l48 136h35l-54 -136h-29z" />
    <glyph glyph-name="uni0237" unicode="&#x237;" horiz-adv-x="207" 
d="M-25 -167v34h46q35 0 49.5 16.5t14.5 56.5v577h37v-587q0 -29 -10 -51t-29.5 -34t-50.5 -12h-57z" />
    <glyph glyph-name="circumflex" unicode="&#x2c6;" horiz-adv-x="329" 
d="M40 746l103 136h42l104 -136h-39l-86 112l-85 -112h-39z" />
    <glyph glyph-name="caron" unicode="&#x2c7;" horiz-adv-x="329" 
d="M143 746l-103 136h39l85 -112l85 112h40l-104 -136h-42z" />
    <glyph glyph-name="breve" unicode="&#x2d8;" horiz-adv-x="336" 
d="M168 742q-41 0 -69.5 16t-43 47t-15.5 77h36q0 -54 23.5 -81.5t68.5 -27.5t68.5 27.5t23.5 81.5h36q-1 -69 -33.5 -104.5t-94.5 -35.5z" />
    <glyph glyph-name="dotaccent" unicode="&#x2d9;" horiz-adv-x="144" 
d="M72 780q-14 0 -23 9t-9 22q0 14 9 22.5t23 8.5t23 -8.5t9 -22.5q0 -13 -9 -22t-23 -9z" />
    <glyph glyph-name="ring" unicode="&#x2da;" horiz-adv-x="266" 
d="M133 721q-41 0 -67 24.5t-26 64.5q0 41 26 65t67 24t67 -24t26 -65q0 -40 -26 -64.5t-67 -24.5zM133 749q28 0 44.5 17t16.5 44t-16.5 43.5t-44.5 16.5t-44.5 -16.5t-16.5 -43.5t16.5 -44t44.5 -17z" />
    <glyph glyph-name="ogonek" unicode="&#x2db;" horiz-adv-x="217" 
d="M123 -209q-38 0 -60.5 21.5t-22.5 58.5q0 25 12 51t35.5 51t55.5 46h8l10 -19q-39 -30 -63 -60.5t-24 -65.5q0 -26 15 -40t43 -14q12 0 24 3t21 7v-28q-8 -4 -23.5 -7.5t-30.5 -3.5z" />
    <glyph glyph-name="tilde" unicode="&#x2dc;" horiz-adv-x="383" 
d="M254 776q-30 0 -52.5 7t-41.5 13.5t-41 6.5q-19 0 -32.5 -6t-26.5 -23l-20 12q13 18 25 29t27 16t34 5q21 0 43.5 -7t46 -14t46.5 -7q17 0 32.5 7t27.5 23l21 -13q-12 -17 -25.5 -28t-29 -16t-34.5 -5z" />
    <glyph glyph-name="hungarumlaut" unicode="&#x2dd;" horiz-adv-x="322" 
d="M40 746l66 136h41l-78 -136h-29zM173 746l68 136h41l-78 -136h-31z" />
    <glyph glyph-name="gravecomb" unicode="&#x300;" 
d="M118 746l-78 136h41l68 -136h-31z" />
    <glyph glyph-name="acutecomb" unicode="&#x301;" 
d="M40 746l68 136h41l-78 -136h-31z" />
    <glyph glyph-name="uni0302" unicode="&#x302;" 
d="M40 746l103 136h42l104 -136h-39l-86 112l-85 -112h-39z" />
    <glyph glyph-name="tildecomb" unicode="&#x303;" 
d="M254 776q-30 0 -52.5 7t-41.5 13.5t-41 6.5q-19 0 -32.5 -6t-26.5 -23l-20 12q13 18 25 29t27 16t34 5q21 0 43.5 -7t46 -14t46.5 -7q17 0 32.5 7t27.5 23l21 -13q-12 -17 -25.5 -28t-29 -16t-34.5 -5z" />
    <glyph glyph-name="uni0304" unicode="&#x304;" 
d="M40 780v33h319v-33h-319z" />
    <glyph glyph-name="uni0306" unicode="&#x306;" 
d="M168 742q-41 0 -69.5 16t-43 47t-15.5 77h36q0 -54 23.5 -81.5t68.5 -27.5t68.5 27.5t23.5 81.5h36q-1 -69 -33.5 -104.5t-94.5 -35.5z" />
    <glyph glyph-name="uni0307" unicode="&#x307;" 
d="M72 780q-14 0 -23 9t-9 22q0 14 9 22.5t23 8.5t23 -8.5t9 -22.5q0 -13 -9 -22t-23 -9z" />
    <glyph glyph-name="uni0308" unicode="&#x308;" 
d="M252 780q-14 0 -23 9t-9 22q0 14 9 22.5t23 8.5t23 -8.5t9 -22.5q0 -13 -9 -22t-23 -9zM72 780q-14 0 -23 9t-9 22q0 14 9 22.5t23 8.5t23 -8.5t9 -22.5q0 -13 -9 -22t-23 -9z" />
    <glyph glyph-name="hookabovecomb" unicode="&#x309;" 
d="M84 729l-19 24q39 20 58.5 39.5t19.5 44.5q0 20 -14.5 33t-42.5 13q-13 0 -23.5 -1.5t-21.5 -6.5l-1 29q13 5 25.5 6.5t25.5 1.5q26 0 45 -9t30 -25t11 -38q0 -30 -21.5 -57.5t-71.5 -53.5z" />
    <glyph glyph-name="uni030A" unicode="&#x30a;" 
d="M133 721q-41 0 -67 24.5t-26 64.5q0 41 26 65t67 24t67 -24t26 -65q0 -40 -26 -64.5t-67 -24.5zM133 749q28 0 44.5 17t16.5 44t-16.5 43.5t-44.5 16.5t-44.5 -16.5t-16.5 -43.5t16.5 -44t44.5 -17z" />
    <glyph glyph-name="uni030B" unicode="&#x30b;" 
d="M40 746l66 136h41l-78 -136h-29zM173 746l68 136h41l-78 -136h-31z" />
    <glyph glyph-name="uni030C" unicode="&#x30c;" 
d="M143 746l-103 136h39l85 -112l85 112h40l-104 -136h-42z" />
    <glyph glyph-name="uni0312" unicode="&#x312;" 
d="M40 746v31q0 44 22.5 74.5t50.5 49.5l16 -19q-25 -19 -41.5 -44.5t-16.5 -60.5v-31h-31z" />
    <glyph glyph-name="uni031B" unicode="&#x31b;" 
d="M40 480v29q38 0 61 13.5t32 42t4 72.5h33q5 -52 -8 -87t-43.5 -52.5t-78.5 -17.5z" />
    <glyph glyph-name="dotbelowcomb" unicode="&#x323;" 
d="M72 -141q-14 0 -23 9t-9 22q0 14 9 22.5t23 8.5t23 -8.5t9 -22.5q0 -13 -9 -22t-23 -9z" />
    <glyph glyph-name="uni0326" unicode="&#x326;" 
d="M40 -193l48 136h35l-54 -136h-29z" />
    <glyph glyph-name="uni0327" unicode="&#x327;" 
d="M139 -233q-37 0 -63 17t-36 47l33 10q8 -21 24.5 -32.5t41.5 -12.5q32 0 48.5 16t16.5 41q0 28 -21.5 44.5t-73.5 26.5l-10 21l33 65h32l-28 -62q50 -11 76.5 -36t26.5 -61q0 -37 -27.5 -61t-72.5 -23z" />
    <glyph glyph-name="uni0328" unicode="&#x328;" 
d="M123 -209q-38 0 -60.5 21.5t-22.5 58.5q0 25 12 51t35.5 51t55.5 46h8l10 -19q-39 -30 -63 -60.5t-24 -65.5q0 -26 15 -40t43 -14q12 0 24 3t21 7v-28q-8 -4 -23.5 -7.5t-30.5 -3.5z" />
    <glyph glyph-name="uni0335" unicode="&#x335;" 
d="M40 291v32h304v-32h-304z" />
    <glyph glyph-name="uni0336" unicode="&#x336;" 
d="M40 352v34h774v-34h-774z" />
    <glyph glyph-name="uni0337" unicode="&#x337;" 
d="M40 270v38l188 105v-37z" />
    <glyph glyph-name="uni0338" unicode="&#x338;" 
d="M40 -60l469 637h40l-468 -637h-41z" />
    <glyph glyph-name="uni03BC" unicode="&#x3bc;" horiz-adv-x="590" 
d="M85 -132v649h37v-334q0 -50 19.5 -85t56.5 -53.5t89 -18.5q95 0 138 61.5t43 161.5v268h37v-517h-34l-3 121h-4q-23 -66 -72.5 -97.5t-115.5 -31.5q-58 0 -101 24t-58 67l5 28v-243h-37z" />
    <glyph glyph-name="pi" unicode="&#x3c0;" horiz-adv-x="570" 
d="M496 -7q-30 0 -49 13t-27.5 36.5t-8.5 55.5v387h-260v-485h-37v485h-92v32h516v-32h-90v-367q0 -27 4 -47t15.5 -31t33.5 -11q13 0 21.5 2.5t14.5 6.5v-37q-4 -4 -15 -6t-26 -2z" />
    <glyph glyph-name="uni0E3F" unicode="&#xe3f;" horiz-adv-x="702" 
d="M111 0v729h285q68 0 115.5 -23.5t73 -65t25.5 -97.5q0 -40 -13.5 -74t-41.5 -58t-72 -34v-3q49 -9 81 -34t48.5 -61t16.5 -79q0 -61 -28.5 -106t-81 -69.5t-124.5 -24.5h-284zM149 36h246q96 0 145 46.5t49 119.5q0 72 -46 113t-130 41h-264v-320zM149 391h262
q53 0 88.5 18.5t54 51.5t18.5 77q0 73 -48.5 114.5t-128.5 41.5h-246v-303zM310 -85v107h32v-107h-32zM310 714v100h32v-100h-32z" />
    <glyph glyph-name="Wgrave" unicode="&#x1e80;" horiz-adv-x="954" 
d="M228 0l-193 729h41l127 -481l51 -215h6l55 215l134 481h56l134 -481l55 -215h6l51 215l127 481h41l-193 -729h-58l-127 459l-61 233h-6l-61 -233l-128 -459h-57zM461 803l-78 136h41l68 -136h-31z" />
    <glyph glyph-name="wgrave" unicode="&#x1e81;" horiz-adv-x="724" 
d="M177 0l-146 517h38l84 -309l47 -177h4l48 177l86 309h46l89 -309l49 -177h4l46 177l83 309h38l-145 -517h-49l-85 295l-51 181h-4l-49 -181l-82 -295h-51zM346 591l-78 136h41l68 -136h-31z" />
    <glyph glyph-name="Wacute" unicode="&#x1e82;" horiz-adv-x="954" 
d="M228 0l-193 729h41l127 -481l51 -215h6l55 215l134 481h56l134 -481l55 -215h6l51 215l127 481h41l-193 -729h-58l-127 459l-61 233h-6l-61 -233l-128 -459h-57zM462 803l68 136h41l-78 -136h-31z" />
    <glyph glyph-name="wacute" unicode="&#x1e83;" horiz-adv-x="724" 
d="M177 0l-146 517h38l84 -309l47 -177h4l48 177l86 309h46l89 -309l49 -177h4l46 177l83 309h38l-145 -517h-49l-85 295l-51 181h-4l-49 -181l-82 -295h-51zM347 591l68 136h41l-78 -136h-31z" />
    <glyph glyph-name="Wdieresis" unicode="&#x1e84;" horiz-adv-x="954" 
d="M228 0l-193 729h41l127 -481l51 -215h6l55 215l134 481h56l134 -481l55 -215h6l51 215l127 481h41l-193 -729h-58l-127 459l-61 233h-6l-61 -233l-128 -459h-57zM567 837q-14 0 -23 9t-9 22q0 14 9 22.5t23 8.5t23 -8.5t9 -22.5q0 -13 -9 -22t-23 -9zM387 837
q-14 0 -23 9t-9 22q0 14 9 22.5t23 8.5t23 -8.5t9 -22.5q0 -13 -9 -22t-23 -9z" />
    <glyph glyph-name="wdieresis" unicode="&#x1e85;" horiz-adv-x="724" 
d="M177 0l-146 517h38l84 -309l47 -177h4l48 177l86 309h46l89 -309l49 -177h4l46 177l83 309h38l-145 -517h-49l-85 295l-51 181h-4l-49 -181l-82 -295h-51zM452 625q-14 0 -23 9t-9 22q0 14 9 22.5t23 8.5t23 -8.5t9 -22.5q0 -13 -9 -22t-23 -9zM272 625q-14 0 -23 9
t-9 22q0 14 9 22.5t23 8.5t23 -8.5t9 -22.5q0 -13 -9 -22t-23 -9z" />
    <glyph glyph-name="uni1E9E" unicode="&#x1e9e;" horiz-adv-x="626" 
d="M94 0v729h436v-51l-199 -251v-24l-15 17h25q81 0 134 -25.5t78.5 -72.5t25.5 -111q0 -65 -27.5 -112.5t-79.5 -73t-127 -25.5h-142v34h142q101 0 147 50.5t46 126.5q0 81 -46.5 128.5t-154.5 47.5h-59v30l219 276h-364v-693h-39z" />
    <glyph glyph-name="uni1EA0" unicode="&#x1ea0;" horiz-adv-x="678" 
d="M31 0l282 729h53l281 -729h-40l-230 605l-34 91h-6l-34 -91l-231 -605h-41zM139 199v36h400v-36h-400zM339 -141q-14 0 -23 9t-9 22q0 14 9 22.5t23 8.5t23 -8.5t9 -22.5q0 -13 -9 -22t-23 -9z" />
    <glyph glyph-name="uni1EA1" unicode="&#x1ea1;" horiz-adv-x="592" 
d="M272 -8q-48 0 -88 18.5t-69 53t-44.5 84t-15.5 111.5q0 83 27.5 143t76.5 92t113 32q49 0 88.5 -16t67 -44.5t40.5 -67.5h3l2 119h34v-517h-34l-2 121h-3q-20 -58 -71 -93.5t-125 -35.5zM280 26q60 0 102.5 28.5t65 73.5t22.5 96v71q0 51 -22.5 96.5t-65 73.5t-102.5 28
q-56 0 -98 -27.5t-65.5 -79.5t-23.5 -127q0 -73 23.5 -125.5t65.5 -80t98 -27.5zM301 -141q-14 0 -23 9t-9 22q0 14 9 22.5t23 8.5t23 -8.5t9 -22.5q0 -13 -9 -22t-23 -9z" />
    <glyph glyph-name="uni1EA2" unicode="&#x1ea2;" horiz-adv-x="678" 
d="M31 0l282 729h53l281 -729h-40l-230 605l-34 91h-6l-34 -91l-231 -605h-41zM139 199v36h400v-36h-400zM315 786l-19 24q39 20 58.5 39.5t19.5 44.5q0 20 -14.5 33t-42.5 13q-13 0 -23.5 -1.5t-21.5 -6.5l-1 29q13 5 25.5 6.5t25.5 1.5q26 0 45 -9t30 -25t11 -38
q0 -30 -21.5 -57.5t-71.5 -53.5z" />
    <glyph glyph-name="uni1EA3" unicode="&#x1ea3;" horiz-adv-x="592" 
d="M272 -8q-48 0 -88 18.5t-69 53t-44.5 84t-15.5 111.5q0 83 27.5 143t76.5 92t113 32q49 0 88.5 -16t67 -44.5t40.5 -67.5h3l2 119h34v-517h-34l-2 121h-3q-20 -58 -71 -93.5t-125 -35.5zM280 26q60 0 102.5 28.5t65 73.5t22.5 96v71q0 51 -22.5 96.5t-65 73.5t-102.5 28
q-56 0 -98 -27.5t-65.5 -79.5t-23.5 -127q0 -73 23.5 -125.5t65.5 -80t98 -27.5zM277 574l-19 24q39 20 58.5 39.5t19.5 44.5q0 20 -14.5 33t-42.5 13q-13 0 -23.5 -1.5t-21.5 -6.5l-1 29q13 5 25.5 6.5t25.5 1.5q26 0 45 -9t30 -25t11 -38q0 -30 -21.5 -57.5t-71.5 -53.5z
" />
    <glyph glyph-name="uni1EA4" unicode="&#x1ea4;" horiz-adv-x="678" 
d="M31 0l282 729h53l281 -729h-40l-230 605l-34 91h-6l-34 -91l-231 -605h-41zM139 199v36h400v-36h-400zM215 803l103 136h42l104 -136h-39l-86 112l-85 -112h-39zM430 893l92 136h41l-97 -136h-36z" />
    <glyph glyph-name="uni1EA5" unicode="&#x1ea5;" horiz-adv-x="592" 
d="M272 -8q-48 0 -88 18.5t-69 53t-44.5 84t-15.5 111.5q0 83 27.5 143t76.5 92t113 32q49 0 88.5 -16t67 -44.5t40.5 -67.5h3l2 119h34v-517h-34l-2 121h-3q-20 -58 -71 -93.5t-125 -35.5zM280 26q60 0 102.5 28.5t65 73.5t22.5 96v71q0 51 -22.5 96.5t-65 73.5t-102.5 28
q-56 0 -98 -27.5t-65.5 -79.5t-23.5 -127q0 -73 23.5 -125.5t65.5 -80t98 -27.5zM177 591l103 136h42l104 -136h-39l-86 112l-85 -112h-39zM392 681l92 136h41l-97 -136h-36z" />
    <glyph glyph-name="uni1EA6" unicode="&#x1ea6;" horiz-adv-x="678" 
d="M31 0l282 729h53l281 -729h-40l-230 605l-34 91h-6l-34 -91l-231 -605h-41zM139 199v36h400v-36h-400zM215 803l103 136h42l104 -136h-39l-86 112l-85 -112h-39zM482 893l-98 136h41l95 -136h-38z" />
    <glyph glyph-name="uni1EA7" unicode="&#x1ea7;" horiz-adv-x="592" 
d="M272 -8q-48 0 -88 18.5t-69 53t-44.5 84t-15.5 111.5q0 83 27.5 143t76.5 92t113 32q49 0 88.5 -16t67 -44.5t40.5 -67.5h3l2 119h34v-517h-34l-2 121h-3q-20 -58 -71 -93.5t-125 -35.5zM280 26q60 0 102.5 28.5t65 73.5t22.5 96v71q0 51 -22.5 96.5t-65 73.5t-102.5 28
q-56 0 -98 -27.5t-65.5 -79.5t-23.5 -127q0 -73 23.5 -125.5t65.5 -80t98 -27.5zM177 591l103 136h42l104 -136h-39l-86 112l-85 -112h-39zM444 681l-98 136h41l95 -136h-38z" />
    <glyph glyph-name="uni1EA8" unicode="&#x1ea8;" horiz-adv-x="678" 
d="M31 0l282 729h53l281 -729h-40l-230 605l-34 91h-6l-34 -91l-231 -605h-41zM139 199v36h400v-36h-400zM215 803l103 136h42l104 -136h-39l-86 112l-85 -112h-39zM474 850l-18 24q29 20 45 39.5t16 43.5q0 21 -13 34t-41 13q-10 0 -20.5 -1.5t-19.5 -6.5l-1 29
q11 5 23.5 6.5t22.5 1.5q38 0 60.5 -20t22.5 -53q0 -29 -18 -57t-59 -53z" />
    <glyph glyph-name="uni1EA9" unicode="&#x1ea9;" horiz-adv-x="592" 
d="M272 -8q-48 0 -88 18.5t-69 53t-44.5 84t-15.5 111.5q0 83 27.5 143t76.5 92t113 32q49 0 88.5 -16t67 -44.5t40.5 -67.5h3l2 119h34v-517h-34l-2 121h-3q-20 -58 -71 -93.5t-125 -35.5zM280 26q60 0 102.5 28.5t65 73.5t22.5 96v71q0 51 -22.5 96.5t-65 73.5t-102.5 28
q-56 0 -98 -27.5t-65.5 -79.5t-23.5 -127q0 -73 23.5 -125.5t65.5 -80t98 -27.5zM177 591l103 136h42l104 -136h-39l-86 112l-85 -112h-39zM436 638l-18 24q29 20 45 39.5t16 43.5q0 21 -13 34t-41 13q-10 0 -20.5 -1.5t-19.5 -6.5l-1 29q11 5 23.5 6.5t22.5 1.5
q38 0 60.5 -20t22.5 -53q0 -29 -18 -57t-59 -53z" />
    <glyph glyph-name="uni1EAA" unicode="&#x1eaa;" horiz-adv-x="678" 
d="M31 0l282 729h53l281 -729h-40l-230 605l-34 91h-6l-34 -91l-231 -605h-41zM139 199v36h400v-36h-400zM215 803l103 136h42l104 -136h-39l-86 112l-85 -112h-39zM233 971l-18 12q17 27 33.5 38.5t41.5 11.5q18 0 37.5 -7t40 -14t39.5 -7q16 0 30.5 7t24.5 23l18 -13
q-16 -26 -34 -37.5t-44 -11.5t-45.5 7t-36.5 13.5t-36 6.5q-16 0 -28 -6t-23 -23z" />
    <glyph glyph-name="uni1EAB" unicode="&#x1eab;" horiz-adv-x="592" 
d="M272 -8q-48 0 -88 18.5t-69 53t-44.5 84t-15.5 111.5q0 83 27.5 143t76.5 92t113 32q49 0 88.5 -16t67 -44.5t40.5 -67.5h3l2 119h34v-517h-34l-2 121h-3q-20 -58 -71 -93.5t-125 -35.5zM280 26q60 0 102.5 28.5t65 73.5t22.5 96v71q0 51 -22.5 96.5t-65 73.5t-102.5 28
q-56 0 -98 -27.5t-65.5 -79.5t-23.5 -127q0 -73 23.5 -125.5t65.5 -80t98 -27.5zM177 591l103 136h42l104 -136h-39l-86 112l-85 -112h-39zM195 759l-18 12q17 27 33.5 38.5t41.5 11.5q18 0 37.5 -7t40 -14t39.5 -7q16 0 30.5 7t24.5 23l18 -13q-16 -26 -34 -37.5t-44 -11.5
t-45.5 7t-36.5 13.5t-36 6.5q-16 0 -28 -6t-23 -23z" />
    <glyph glyph-name="uni1EAC" unicode="&#x1eac;" horiz-adv-x="678" 
d="M31 0l282 729h53l281 -729h-40l-230 605l-34 91h-6l-34 -91l-231 -605h-41zM139 199v36h400v-36h-400zM339 -141q-14 0 -23 9t-9 22q0 14 9 22.5t23 8.5t23 -8.5t9 -22.5q0 -13 -9 -22t-23 -9zM215 803l103 136h42l104 -136h-39l-86 112l-85 -112h-39z" />
    <glyph glyph-name="uni1EAD" unicode="&#x1ead;" horiz-adv-x="592" 
d="M272 -8q-48 0 -88 18.5t-69 53t-44.5 84t-15.5 111.5q0 83 27.5 143t76.5 92t113 32q49 0 88.5 -16t67 -44.5t40.5 -67.5h3l2 119h34v-517h-34l-2 121h-3q-20 -58 -71 -93.5t-125 -35.5zM280 26q60 0 102.5 28.5t65 73.5t22.5 96v71q0 51 -22.5 96.5t-65 73.5t-102.5 28
q-56 0 -98 -27.5t-65.5 -79.5t-23.5 -127q0 -73 23.5 -125.5t65.5 -80t98 -27.5zM301 -141q-14 0 -23 9t-9 22q0 14 9 22.5t23 8.5t23 -8.5t9 -22.5q0 -13 -9 -22t-23 -9zM177 591l103 136h42l104 -136h-39l-86 112l-85 -112h-39z" />
    <glyph glyph-name="uni1EAE" unicode="&#x1eae;" horiz-adv-x="678" 
d="M31 0l282 729h53l281 -729h-40l-230 605l-34 91h-6l-34 -91l-231 -605h-41zM139 199v36h400v-36h-400zM339 792q-57 0 -92 34.5t-36 91.5h36q0 -43 24 -69t68 -26q41 0 66.5 24.5t25.5 70.5h36q-1 -57 -36 -91.5t-92 -34.5zM319 918l58 115h41l-68 -115h-31z" />
    <glyph glyph-name="uni1EAF" unicode="&#x1eaf;" horiz-adv-x="592" 
d="M272 -8q-48 0 -88 18.5t-69 53t-44.5 84t-15.5 111.5q0 83 27.5 143t76.5 92t113 32q49 0 88.5 -16t67 -44.5t40.5 -67.5h3l2 119h34v-517h-34l-2 121h-3q-20 -58 -71 -93.5t-125 -35.5zM280 26q60 0 102.5 28.5t65 73.5t22.5 96v71q0 51 -22.5 96.5t-65 73.5t-102.5 28
q-56 0 -98 -27.5t-65.5 -79.5t-23.5 -127q0 -73 23.5 -125.5t65.5 -80t98 -27.5zM301 580q-57 0 -92 34.5t-36 91.5h36q0 -43 24 -69t68 -26q41 0 66.5 24.5t25.5 70.5h36q-1 -57 -36 -91.5t-92 -34.5zM281 706l58 115h41l-68 -115h-31z" />
    <glyph glyph-name="uni1EB0" unicode="&#x1eb0;" horiz-adv-x="678" 
d="M31 0l282 729h53l281 -729h-40l-230 605l-34 91h-6l-34 -91l-231 -605h-41zM139 199v36h400v-36h-400zM339 792q-57 0 -92 34.5t-36 91.5h36q0 -46 25.5 -70.5t66.5 -24.5q44 0 68 26t24 69h36q-1 -57 -36 -91.5t-92 -34.5zM328 918l-68 115h41l58 -115h-31z" />
    <glyph glyph-name="uni1EB1" unicode="&#x1eb1;" horiz-adv-x="592" 
d="M272 -8q-48 0 -88 18.5t-69 53t-44.5 84t-15.5 111.5q0 83 27.5 143t76.5 92t113 32q49 0 88.5 -16t67 -44.5t40.5 -67.5h3l2 119h34v-517h-34l-2 121h-3q-20 -58 -71 -93.5t-125 -35.5zM280 26q60 0 102.5 28.5t65 73.5t22.5 96v71q0 51 -22.5 96.5t-65 73.5t-102.5 28
q-56 0 -98 -27.5t-65.5 -79.5t-23.5 -127q0 -73 23.5 -125.5t65.5 -80t98 -27.5zM301 580q-57 0 -92 34.5t-36 91.5h36q0 -46 25.5 -70.5t66.5 -24.5q44 0 68 26t24 69h36q-1 -57 -36 -91.5t-92 -34.5zM290 706l-68 115h41l58 -115h-31z" />
    <glyph glyph-name="uni1EB2" unicode="&#x1eb2;" horiz-adv-x="678" 
d="M31 0l282 729h53l281 -729h-40l-230 605l-34 91h-6l-34 -91l-231 -605h-41zM139 199v36h400v-36h-400zM339 792q-57 0 -92 34.5t-36 91.5h36q0 -46 25.5 -70.5t66.5 -24.5q44 0 68 26t24 69h36q-1 -57 -36 -91.5t-92 -34.5zM335 896l-17 23q20 14 30.5 26t10.5 30
q0 16 -10.5 24.5t-27.5 8.5q-10 0 -20.5 -1.5t-19.5 -6.5l-1 28q11 5 24.5 7t23.5 2q20 0 35 -7t23.5 -20.5t8.5 -31.5q0 -16 -7.5 -30.5t-20.5 -27t-32 -24.5z" />
    <glyph glyph-name="uni1EB3" unicode="&#x1eb3;" horiz-adv-x="592" 
d="M272 -8q-48 0 -88 18.5t-69 53t-44.5 84t-15.5 111.5q0 83 27.5 143t76.5 92t113 32q49 0 88.5 -16t67 -44.5t40.5 -67.5h3l2 119h34v-517h-34l-2 121h-3q-20 -58 -71 -93.5t-125 -35.5zM280 26q60 0 102.5 28.5t65 73.5t22.5 96v71q0 51 -22.5 96.5t-65 73.5t-102.5 28
q-56 0 -98 -27.5t-65.5 -79.5t-23.5 -127q0 -73 23.5 -125.5t65.5 -80t98 -27.5zM301 580q-57 0 -92 34.5t-36 91.5h36q0 -46 25.5 -70.5t66.5 -24.5q44 0 68 26t24 69h36q-1 -57 -36 -91.5t-92 -34.5zM297 684l-17 23q20 14 30.5 26t10.5 30q0 16 -10.5 24.5t-27.5 8.5
q-10 0 -20.5 -1.5t-19.5 -6.5l-1 28q11 5 24.5 7t23.5 2q20 0 35 -7t23.5 -20.5t8.5 -31.5q0 -16 -7.5 -30.5t-20.5 -27t-32 -24.5z" />
    <glyph glyph-name="uni1EB4" unicode="&#x1eb4;" horiz-adv-x="678" 
d="M31 0l282 729h53l281 -729h-40l-230 605l-34 91h-6l-34 -91l-231 -605h-41zM139 199v36h400v-36h-400zM339 798q-57 0 -92 34.5t-36 91.5h36q0 -46 25.5 -70.5t66.5 -24.5q44 0 68 26t24 69h36q-1 -57 -36 -91.5t-92 -34.5zM393 970q-26 0 -45.5 7t-36.5 13.5t-36 6.5
q-16 0 -28 -6t-23 -23l-18 12q17 27 33.5 38.5t41.5 11.5q18 0 37.5 -7t40 -14t39.5 -7q16 0 30.5 7t24.5 23l18 -13q-16 -26 -34 -37.5t-44 -11.5z" />
    <glyph glyph-name="uni1EB5" unicode="&#x1eb5;" horiz-adv-x="592" 
d="M272 -8q-48 0 -88 18.5t-69 53t-44.5 84t-15.5 111.5q0 83 27.5 143t76.5 92t113 32q49 0 88.5 -16t67 -44.5t40.5 -67.5h3l2 119h34v-517h-34l-2 121h-3q-20 -58 -71 -93.5t-125 -35.5zM280 26q60 0 102.5 28.5t65 73.5t22.5 96v71q0 51 -22.5 96.5t-65 73.5t-102.5 28
q-56 0 -98 -27.5t-65.5 -79.5t-23.5 -127q0 -73 23.5 -125.5t65.5 -80t98 -27.5zM301 586q-57 0 -92 34.5t-36 91.5h36q0 -46 25.5 -70.5t66.5 -24.5q44 0 68 26t24 69h36q-1 -57 -36 -91.5t-92 -34.5zM355 758q-26 0 -45.5 7t-36.5 13.5t-36 6.5q-16 0 -28 -6t-23 -23
l-18 12q17 27 33.5 38.5t41.5 11.5q18 0 37.5 -7t40 -14t39.5 -7q16 0 30.5 7t24.5 23l18 -13q-16 -26 -34 -37.5t-44 -11.5z" />
    <glyph glyph-name="uni1EB6" unicode="&#x1eb6;" horiz-adv-x="678" 
d="M31 0l282 729h53l281 -729h-40l-230 605l-34 91h-6l-34 -91l-231 -605h-41zM139 199v36h400v-36h-400zM339 -141q-14 0 -23 9t-9 22q0 14 9 22.5t23 8.5t23 -8.5t9 -22.5q0 -13 -9 -22t-23 -9zM339 793q-41 0 -69.5 16t-43 47t-15.5 77h36q0 -54 23.5 -81.5t68.5 -27.5
t68.5 27.5t23.5 81.5h36q-1 -69 -33.5 -104.5t-94.5 -35.5z" />
    <glyph glyph-name="uni1EB7" unicode="&#x1eb7;" horiz-adv-x="592" 
d="M272 -8q-48 0 -88 18.5t-69 53t-44.5 84t-15.5 111.5q0 83 27.5 143t76.5 92t113 32q49 0 88.5 -16t67 -44.5t40.5 -67.5h3l2 119h34v-517h-34l-2 121h-3q-20 -58 -71 -93.5t-125 -35.5zM280 26q60 0 102.5 28.5t65 73.5t22.5 96v71q0 51 -22.5 96.5t-65 73.5t-102.5 28
q-56 0 -98 -27.5t-65.5 -79.5t-23.5 -127q0 -73 23.5 -125.5t65.5 -80t98 -27.5zM301 -141q-14 0 -23 9t-9 22q0 14 9 22.5t23 8.5t23 -8.5t9 -22.5q0 -13 -9 -22t-23 -9zM301 581q-41 0 -69.5 16t-43 47t-15.5 77h36q0 -54 23.5 -81.5t68.5 -27.5t68.5 27.5t23.5 81.5h36
q-1 -69 -33.5 -104.5t-94.5 -35.5z" />
    <glyph glyph-name="uni1EB8" unicode="&#x1eb8;" horiz-adv-x="612" 
d="M94 0v729h481v-36h-454l11 11v-678l-11 11h454v-37h-481zM121 358v34h406v-34h-406zM310 -141q-14 0 -23 9t-9 22q0 14 9 22.5t23 8.5t23 -8.5t9 -22.5q0 -13 -9 -22t-23 -9z" />
    <glyph glyph-name="uni1EB9" unicode="&#x1eb9;" horiz-adv-x="565" 
d="M290 -8q-72 0 -125 33t-82.5 93t-29.5 140t28 140t81 93.5t126 33.5q79 0 130.5 -35t74.5 -96t16 -138h-419q2 -73 27 -124.5t69.5 -78.5t103.5 -27q71 0 118 33t61 88h38q-9 -47 -40 -82t-76.5 -54t-100.5 -19zM91 284l-5 6h393l-5 -9q1 71 -22.5 117.5t-65.5 69.5
t-99 23t-100 -25t-67.5 -71t-28.5 -111zM290 -141q-14 0 -23 9t-9 22q0 14 9 22.5t23 8.5t23 -8.5t9 -22.5q0 -13 -9 -22t-23 -9z" />
    <glyph glyph-name="uni1EBA" unicode="&#x1eba;" horiz-adv-x="612" 
d="M94 0v729h481v-36h-454l11 11v-678l-11 11h454v-37h-481zM121 358v34h406v-34h-406zM286 786l-19 24q39 20 58.5 39.5t19.5 44.5q0 20 -14.5 33t-42.5 13q-13 0 -23.5 -1.5t-21.5 -6.5l-1 29q13 5 25.5 6.5t25.5 1.5q26 0 45 -9t30 -25t11 -38q0 -30 -21.5 -57.5
t-71.5 -53.5z" />
    <glyph glyph-name="uni1EBB" unicode="&#x1ebb;" horiz-adv-x="565" 
d="M290 -8q-72 0 -125 33t-82.5 93t-29.5 140t28 140t81 93.5t126 33.5q79 0 130.5 -35t74.5 -96t16 -138h-419q2 -73 27 -124.5t69.5 -78.5t103.5 -27q71 0 118 33t61 88h38q-9 -47 -40 -82t-76.5 -54t-100.5 -19zM91 284l-5 6h393l-5 -9q1 71 -22.5 117.5t-65.5 69.5
t-99 23t-100 -25t-67.5 -71t-28.5 -111zM263 574l-19 24q39 20 58.5 39.5t19.5 44.5q0 20 -14.5 33t-42.5 13q-13 0 -23.5 -1.5t-21.5 -6.5l-1 29q13 5 25.5 6.5t25.5 1.5q26 0 45 -9t30 -25t11 -38q0 -30 -21.5 -57.5t-71.5 -53.5z" />
    <glyph glyph-name="uni1EBC" unicode="&#x1ebc;" horiz-adv-x="612" 
d="M94 0v729h481v-36h-454l11 11v-678l-11 11h454v-37h-481zM121 358v34h406v-34h-406zM375 833q-30 0 -52.5 7t-41.5 13.5t-41 6.5q-19 0 -32.5 -6t-26.5 -23l-20 12q13 18 25 29t27 16t34 5q21 0 43.5 -7t46 -14t46.5 -7q17 0 32.5 7t27.5 23l21 -13q-12 -17 -25.5 -28
t-29 -16t-34.5 -5z" />
    <glyph glyph-name="uni1EBD" unicode="&#x1ebd;" horiz-adv-x="565" 
d="M290 -8q-72 0 -125 33t-82.5 93t-29.5 140t28 140t81 93.5t126 33.5q79 0 130.5 -35t74.5 -96t16 -138h-419q2 -73 27 -124.5t69.5 -78.5t103.5 -27q71 0 118 33t61 88h38q-9 -47 -40 -82t-76.5 -54t-100.5 -19zM91 284l-5 6h393l-5 -9q1 71 -22.5 117.5t-65.5 69.5
t-99 23t-100 -25t-67.5 -71t-28.5 -111zM352 621q-30 0 -52.5 7t-41.5 13.5t-41 6.5q-19 0 -32.5 -6t-26.5 -23l-20 12q13 18 25 29t27 16t34 5q21 0 43.5 -7t46 -14t46.5 -7q17 0 32.5 7t27.5 23l21 -13q-12 -17 -25.5 -28t-29 -16t-34.5 -5z" />
    <glyph glyph-name="uni1EBE" unicode="&#x1ebe;" horiz-adv-x="612" 
d="M94 0v729h481v-36h-454l11 11v-678l-11 11h454v-37h-481zM121 358v34h406v-34h-406zM186 803l103 136h42l104 -136h-39l-86 112l-85 -112h-39zM401 893l92 136h41l-97 -136h-36z" />
    <glyph glyph-name="uni1EBF" unicode="&#x1ebf;" horiz-adv-x="565" 
d="M290 -8q-72 0 -125 33t-82.5 93t-29.5 140t28 140t81 93.5t126 33.5q79 0 130.5 -35t74.5 -96t16 -138h-419q2 -73 27 -124.5t69.5 -78.5t103.5 -27q71 0 118 33t61 88h38q-9 -47 -40 -82t-76.5 -54t-100.5 -19zM91 284l-5 6h393l-5 -9q1 71 -22.5 117.5t-65.5 69.5
t-99 23t-100 -25t-67.5 -71t-28.5 -111zM163 591l103 136h42l104 -136h-39l-86 112l-85 -112h-39zM378 681l92 136h41l-97 -136h-36z" />
    <glyph glyph-name="uni1EC0" unicode="&#x1ec0;" horiz-adv-x="612" 
d="M94 0v729h481v-36h-454l11 11v-678l-11 11h454v-37h-481zM121 358v34h406v-34h-406zM186 803l103 136h42l104 -136h-39l-86 112l-85 -112h-39zM453 893l-98 136h41l95 -136h-38z" />
    <glyph glyph-name="uni1EC1" unicode="&#x1ec1;" horiz-adv-x="565" 
d="M290 -8q-72 0 -125 33t-82.5 93t-29.5 140t28 140t81 93.5t126 33.5q79 0 130.5 -35t74.5 -96t16 -138h-419q2 -73 27 -124.5t69.5 -78.5t103.5 -27q71 0 118 33t61 88h38q-9 -47 -40 -82t-76.5 -54t-100.5 -19zM91 284l-5 6h393l-5 -9q1 71 -22.5 117.5t-65.5 69.5
t-99 23t-100 -25t-67.5 -71t-28.5 -111zM163 591l103 136h42l104 -136h-39l-86 112l-85 -112h-39zM430 681l-98 136h41l95 -136h-38z" />
    <glyph glyph-name="uni1EC2" unicode="&#x1ec2;" horiz-adv-x="612" 
d="M94 0v729h481v-36h-454l11 11v-678l-11 11h454v-37h-481zM121 358v34h406v-34h-406zM186 803l103 136h42l104 -136h-39l-86 112l-85 -112h-39zM445 850l-18 24q29 20 45 39.5t16 43.5q0 21 -13 34t-41 13q-10 0 -20.5 -1.5t-19.5 -6.5l-1 29q11 5 23.5 6.5t22.5 1.5
q38 0 60.5 -20t22.5 -53q0 -29 -18 -57t-59 -53z" />
    <glyph glyph-name="uni1EC3" unicode="&#x1ec3;" horiz-adv-x="565" 
d="M290 -8q-72 0 -125 33t-82.5 93t-29.5 140t28 140t81 93.5t126 33.5q79 0 130.5 -35t74.5 -96t16 -138h-419q2 -73 27 -124.5t69.5 -78.5t103.5 -27q71 0 118 33t61 88h38q-9 -47 -40 -82t-76.5 -54t-100.5 -19zM91 284l-5 6h393l-5 -9q1 71 -22.5 117.5t-65.5 69.5
t-99 23t-100 -25t-67.5 -71t-28.5 -111zM163 591l103 136h42l104 -136h-39l-86 112l-85 -112h-39zM422 638l-18 24q29 20 45 39.5t16 43.5q0 21 -13 34t-41 13q-10 0 -20.5 -1.5t-19.5 -6.5l-1 29q11 5 23.5 6.5t22.5 1.5q38 0 60.5 -20t22.5 -53q0 -29 -18 -57t-59 -53z
" />
    <glyph glyph-name="uni1EC4" unicode="&#x1ec4;" horiz-adv-x="612" 
d="M94 0v729h481v-36h-454l11 11v-678l-11 11h454v-37h-481zM121 358v34h406v-34h-406zM186 803l103 136h42l104 -136h-39l-86 112l-85 -112h-39zM204 971l-18 12q17 27 33.5 38.5t41.5 11.5q18 0 37.5 -7t40 -14t39.5 -7q16 0 30.5 7t24.5 23l18 -13q-16 -26 -34 -37.5
t-44 -11.5t-45.5 7t-36.5 13.5t-36 6.5q-16 0 -28 -6t-23 -23z" />
    <glyph glyph-name="uni1EC5" unicode="&#x1ec5;" horiz-adv-x="565" 
d="M290 -8q-72 0 -125 33t-82.5 93t-29.5 140t28 140t81 93.5t126 33.5q79 0 130.5 -35t74.5 -96t16 -138h-419q2 -73 27 -124.5t69.5 -78.5t103.5 -27q71 0 118 33t61 88h38q-9 -47 -40 -82t-76.5 -54t-100.5 -19zM91 284l-5 6h393l-5 -9q1 71 -22.5 117.5t-65.5 69.5
t-99 23t-100 -25t-67.5 -71t-28.5 -111zM163 591l103 136h42l104 -136h-39l-86 112l-85 -112h-39zM181 759l-18 12q17 27 33.5 38.5t41.5 11.5q18 0 37.5 -7t40 -14t39.5 -7q16 0 30.5 7t24.5 23l18 -13q-16 -26 -34 -37.5t-44 -11.5t-45.5 7t-36.5 13.5t-36 6.5
q-16 0 -28 -6t-23 -23z" />
    <glyph glyph-name="uni1EC6" unicode="&#x1ec6;" horiz-adv-x="612" 
d="M94 0v729h481v-36h-454l11 11v-678l-11 11h454v-37h-481zM121 358v34h406v-34h-406zM310 -141q-14 0 -23 9t-9 22q0 14 9 22.5t23 8.5t23 -8.5t9 -22.5q0 -13 -9 -22t-23 -9zM186 803l103 136h42l104 -136h-39l-86 112l-85 -112h-39z" />
    <glyph glyph-name="uni1EC7" unicode="&#x1ec7;" horiz-adv-x="565" 
d="M290 -8q-72 0 -125 33t-82.5 93t-29.5 140t28 140t81 93.5t126 33.5q79 0 130.5 -35t74.5 -96t16 -138h-419q2 -73 27 -124.5t69.5 -78.5t103.5 -27q71 0 118 33t61 88h38q-9 -47 -40 -82t-76.5 -54t-100.5 -19zM91 284l-5 6h393l-5 -9q1 71 -22.5 117.5t-65.5 69.5
t-99 23t-100 -25t-67.5 -71t-28.5 -111zM290 -141q-14 0 -23 9t-9 22q0 14 9 22.5t23 8.5t23 -8.5t9 -22.5q0 -13 -9 -22t-23 -9zM163 591l103 136h42l104 -136h-39l-86 112l-85 -112h-39z" />
    <glyph glyph-name="uni1EC8" unicode="&#x1ec8;" horiz-adv-x="226" 
d="M94 0v729h38v-729h-38zM89 786l-19 24q39 20 58.5 39.5t19.5 44.5q0 20 -14.5 33t-42.5 13q-13 0 -23.5 -1.5t-21.5 -6.5l-1 29q13 5 25.5 6.5t25.5 1.5q26 0 45 -9t30 -25t11 -38q0 -30 -21.5 -57.5t-71.5 -53.5z" />
    <glyph glyph-name="uni1EC9" unicode="&#x1ec9;" horiz-adv-x="207" 
d="M85 0v517h37v-517h-37zM80 574l-19 24q39 20 58.5 39.5t19.5 44.5q0 20 -14.5 33t-42.5 13q-13 0 -23.5 -1.5t-21.5 -6.5l-1 29q13 5 25.5 6.5t25.5 1.5q26 0 45 -9t30 -25t11 -38q0 -30 -21.5 -57.5t-71.5 -53.5z" />
    <glyph glyph-name="uni1ECA" unicode="&#x1eca;" horiz-adv-x="226" 
d="M94 0v729h38v-729h-38zM113 -141q-14 0 -23 9t-9 22q0 14 9 22.5t23 8.5t23 -8.5t9 -22.5q0 -13 -9 -22t-23 -9z" />
    <glyph glyph-name="uni1ECB" unicode="&#x1ecb;" horiz-adv-x="207" 
d="M85 0v517h37v-517h-37zM104 625q-14 0 -23 9t-9 22q0 14 9 22.5t23 8.5t23 -8.5t9 -22.5q0 -13 -9 -22t-23 -9zM104 -141q-14 0 -23 9t-9 22q0 14 9 22.5t23 8.5t23 -8.5t9 -22.5q0 -13 -9 -22t-23 -9z" />
    <glyph glyph-name="uni1ECC" unicode="&#x1ecc;" horiz-adv-x="810" 
d="M405 -8q-79 0 -143.5 26.5t-111 76t-71 118t-24.5 151.5q0 84 25 152.5t71 117.5t110.5 75.5t143.5 26.5q80 0 144 -26.5t110.5 -76t71 -117.5t24.5 -152t-25 -152.5t-71.5 -117.5t-110.5 -75.5t-143 -26.5zM405 28q96 0 165.5 42.5t107 118t37.5 175.5q0 76 -21.5 137.5
t-62 106t-97.5 68.5t-129 24q-96 0 -165 -42t-106.5 -117.5t-37.5 -176.5q0 -75 21.5 -137t61.5 -106.5t97 -68.5t129 -24zM405 -141q-14 0 -23 9t-9 22q0 14 9 22.5t23 8.5t23 -8.5t9 -22.5q0 -13 -9 -22t-23 -9z" />
    <glyph glyph-name="uni1ECD" unicode="&#x1ecd;" horiz-adv-x="589" 
d="M296 -8q-55 0 -99.5 19t-77 54.5t-50 84t-17.5 107.5q0 79 30.5 139.5t85.5 94.5t128 34q54 0 98.5 -19t76 -54.5t49 -84.5t17.5 -109q0 -78 -30 -138t-84.5 -94t-126.5 -34zM295 28q61 0 107 28t71.5 80t25.5 122q0 52 -14 94.5t-40.5 73.5t-64 47.5t-84.5 16.5
q-61 0 -107.5 -28.5t-72.5 -80.5t-26 -124q0 -51 14 -93.5t41 -72.5t65 -46.5t85 -16.5zM295 -141q-14 0 -23 9t-9 22q0 14 9 22.5t23 8.5t23 -8.5t9 -22.5q0 -13 -9 -22t-23 -9z" />
    <glyph glyph-name="uni1ECE" unicode="&#x1ece;" horiz-adv-x="810" 
d="M405 -8q-79 0 -143.5 26.5t-111 76t-71 118t-24.5 151.5q0 84 25 152.5t71 117.5t110.5 75.5t143.5 26.5q80 0 144 -26.5t110.5 -76t71 -117.5t24.5 -152t-25 -152.5t-71.5 -117.5t-110.5 -75.5t-143 -26.5zM405 28q96 0 165.5 42.5t107 118t37.5 175.5q0 76 -21.5 137.5
t-62 106t-97.5 68.5t-129 24q-96 0 -165 -42t-106.5 -117.5t-37.5 -176.5q0 -75 21.5 -137t61.5 -106.5t97 -68.5t129 -24zM381 786l-19 24q39 20 58.5 39.5t19.5 44.5q0 20 -14.5 33t-42.5 13q-13 0 -23.5 -1.5t-21.5 -6.5l-1 29q13 5 25.5 6.5t25.5 1.5q26 0 45 -9t30 -25
t11 -38q0 -30 -21.5 -57.5t-71.5 -53.5z" />
    <glyph glyph-name="uni1ECF" unicode="&#x1ecf;" horiz-adv-x="589" 
d="M296 -8q-55 0 -99.5 19t-77 54.5t-50 84t-17.5 107.5q0 79 30.5 139.5t85.5 94.5t128 34q54 0 98.5 -19t76 -54.5t49 -84.5t17.5 -109q0 -78 -30 -138t-84.5 -94t-126.5 -34zM295 28q61 0 107 28t71.5 80t25.5 122q0 52 -14 94.5t-40.5 73.5t-64 47.5t-84.5 16.5
q-61 0 -107.5 -28.5t-72.5 -80.5t-26 -124q0 -51 14 -93.5t41 -72.5t65 -46.5t85 -16.5zM271 574l-19 24q39 20 58.5 39.5t19.5 44.5q0 20 -14.5 33t-42.5 13q-13 0 -23.5 -1.5t-21.5 -6.5l-1 29q13 5 25.5 6.5t25.5 1.5q26 0 45 -9t30 -25t11 -38q0 -30 -21.5 -57.5
t-71.5 -53.5z" />
    <glyph glyph-name="uni1ED0" unicode="&#x1ed0;" horiz-adv-x="810" 
d="M405 -8q-79 0 -143.5 26.5t-111 76t-71 118t-24.5 151.5q0 84 25 152.5t71 117.5t110.5 75.5t143.5 26.5q80 0 144 -26.5t110.5 -76t71 -117.5t24.5 -152t-25 -152.5t-71.5 -117.5t-110.5 -75.5t-143 -26.5zM405 28q96 0 165.5 42.5t107 118t37.5 175.5q0 76 -21.5 137.5
t-62 106t-97.5 68.5t-129 24q-96 0 -165 -42t-106.5 -117.5t-37.5 -176.5q0 -75 21.5 -137t61.5 -106.5t97 -68.5t129 -24zM281 803l103 136h42l104 -136h-39l-86 112l-85 -112h-39zM496 893l92 136h41l-97 -136h-36z" />
    <glyph glyph-name="uni1ED1" unicode="&#x1ed1;" horiz-adv-x="589" 
d="M296 -8q-55 0 -99.5 19t-77 54.5t-50 84t-17.5 107.5q0 79 30.5 139.5t85.5 94.5t128 34q54 0 98.5 -19t76 -54.5t49 -84.5t17.5 -109q0 -78 -30 -138t-84.5 -94t-126.5 -34zM295 28q61 0 107 28t71.5 80t25.5 122q0 52 -14 94.5t-40.5 73.5t-64 47.5t-84.5 16.5
q-61 0 -107.5 -28.5t-72.5 -80.5t-26 -124q0 -51 14 -93.5t41 -72.5t65 -46.5t85 -16.5zM171 591l103 136h42l104 -136h-39l-86 112l-85 -112h-39zM386 681l92 136h41l-97 -136h-36z" />
    <glyph glyph-name="uni1ED2" unicode="&#x1ed2;" horiz-adv-x="810" 
d="M405 -8q-79 0 -143.5 26.5t-111 76t-71 118t-24.5 151.5q0 84 25 152.5t71 117.5t110.5 75.5t143.5 26.5q80 0 144 -26.5t110.5 -76t71 -117.5t24.5 -152t-25 -152.5t-71.5 -117.5t-110.5 -75.5t-143 -26.5zM405 28q96 0 165.5 42.5t107 118t37.5 175.5q0 76 -21.5 137.5
t-62 106t-97.5 68.5t-129 24q-96 0 -165 -42t-106.5 -117.5t-37.5 -176.5q0 -75 21.5 -137t61.5 -106.5t97 -68.5t129 -24zM281 803l103 136h42l104 -136h-39l-86 112l-85 -112h-39zM548 893l-98 136h41l95 -136h-38z" />
    <glyph glyph-name="uni1ED3" unicode="&#x1ed3;" horiz-adv-x="589" 
d="M296 -8q-55 0 -99.5 19t-77 54.5t-50 84t-17.5 107.5q0 79 30.5 139.5t85.5 94.5t128 34q54 0 98.5 -19t76 -54.5t49 -84.5t17.5 -109q0 -78 -30 -138t-84.5 -94t-126.5 -34zM295 28q61 0 107 28t71.5 80t25.5 122q0 52 -14 94.5t-40.5 73.5t-64 47.5t-84.5 16.5
q-61 0 -107.5 -28.5t-72.5 -80.5t-26 -124q0 -51 14 -93.5t41 -72.5t65 -46.5t85 -16.5zM171 591l103 136h42l104 -136h-39l-86 112l-85 -112h-39zM438 681l-98 136h41l95 -136h-38z" />
    <glyph glyph-name="uni1ED4" unicode="&#x1ed4;" horiz-adv-x="810" 
d="M405 -8q-79 0 -143.5 26.5t-111 76t-71 118t-24.5 151.5q0 84 25 152.5t71 117.5t110.5 75.5t143.5 26.5q80 0 144 -26.5t110.5 -76t71 -117.5t24.5 -152t-25 -152.5t-71.5 -117.5t-110.5 -75.5t-143 -26.5zM405 28q96 0 165.5 42.5t107 118t37.5 175.5q0 76 -21.5 137.5
t-62 106t-97.5 68.5t-129 24q-96 0 -165 -42t-106.5 -117.5t-37.5 -176.5q0 -75 21.5 -137t61.5 -106.5t97 -68.5t129 -24zM281 803l103 136h42l104 -136h-39l-86 112l-85 -112h-39zM540 850l-18 24q29 20 45 39.5t16 43.5q0 21 -13 34t-41 13q-10 0 -20.5 -1.5t-19.5 -6.5
l-1 29q11 5 23.5 6.5t22.5 1.5q38 0 60.5 -20t22.5 -53q0 -29 -18 -57t-59 -53z" />
    <glyph glyph-name="uni1ED5" unicode="&#x1ed5;" horiz-adv-x="589" 
d="M296 -8q-55 0 -99.5 19t-77 54.5t-50 84t-17.5 107.5q0 79 30.5 139.5t85.5 94.5t128 34q54 0 98.5 -19t76 -54.5t49 -84.5t17.5 -109q0 -78 -30 -138t-84.5 -94t-126.5 -34zM295 28q61 0 107 28t71.5 80t25.5 122q0 52 -14 94.5t-40.5 73.5t-64 47.5t-84.5 16.5
q-61 0 -107.5 -28.5t-72.5 -80.5t-26 -124q0 -51 14 -93.5t41 -72.5t65 -46.5t85 -16.5zM171 591l103 136h42l104 -136h-39l-86 112l-85 -112h-39zM430 638l-18 24q29 20 45 39.5t16 43.5q0 21 -13 34t-41 13q-10 0 -20.5 -1.5t-19.5 -6.5l-1 29q11 5 23.5 6.5t22.5 1.5
q38 0 60.5 -20t22.5 -53q0 -29 -18 -57t-59 -53z" />
    <glyph glyph-name="uni1ED6" unicode="&#x1ed6;" horiz-adv-x="810" 
d="M405 -8q-79 0 -143.5 26.5t-111 76t-71 118t-24.5 151.5q0 84 25 152.5t71 117.5t110.5 75.5t143.5 26.5q80 0 144 -26.5t110.5 -76t71 -117.5t24.5 -152t-25 -152.5t-71.5 -117.5t-110.5 -75.5t-143 -26.5zM405 28q96 0 165.5 42.5t107 118t37.5 175.5q0 76 -21.5 137.5
t-62 106t-97.5 68.5t-129 24q-96 0 -165 -42t-106.5 -117.5t-37.5 -176.5q0 -75 21.5 -137t61.5 -106.5t97 -68.5t129 -24zM281 803l103 136h42l104 -136h-39l-86 112l-85 -112h-39zM299 971l-18 12q17 27 33.5 38.5t41.5 11.5q18 0 37.5 -7t40 -14t39.5 -7q16 0 30.5 7
t24.5 23l18 -13q-16 -26 -34 -37.5t-44 -11.5t-45.5 7t-36.5 13.5t-36 6.5q-16 0 -28 -6t-23 -23z" />
    <glyph glyph-name="uni1ED7" unicode="&#x1ed7;" horiz-adv-x="589" 
d="M296 -8q-55 0 -99.5 19t-77 54.5t-50 84t-17.5 107.5q0 79 30.5 139.5t85.5 94.5t128 34q54 0 98.5 -19t76 -54.5t49 -84.5t17.5 -109q0 -78 -30 -138t-84.5 -94t-126.5 -34zM295 28q61 0 107 28t71.5 80t25.5 122q0 52 -14 94.5t-40.5 73.5t-64 47.5t-84.5 16.5
q-61 0 -107.5 -28.5t-72.5 -80.5t-26 -124q0 -51 14 -93.5t41 -72.5t65 -46.5t85 -16.5zM171 591l103 136h42l104 -136h-39l-86 112l-85 -112h-39zM189 759l-18 12q17 27 33.5 38.5t41.5 11.5q18 0 37.5 -7t40 -14t39.5 -7q16 0 30.5 7t24.5 23l18 -13q-16 -26 -34 -37.5
t-44 -11.5t-45.5 7t-36.5 13.5t-36 6.5q-16 0 -28 -6t-23 -23z" />
    <glyph glyph-name="uni1ED8" unicode="&#x1ed8;" horiz-adv-x="810" 
d="M405 -8q-79 0 -143.5 26.5t-111 76t-71 118t-24.5 151.5q0 84 25 152.5t71 117.5t110.5 75.5t143.5 26.5q80 0 144 -26.5t110.5 -76t71 -117.5t24.5 -152t-25 -152.5t-71.5 -117.5t-110.5 -75.5t-143 -26.5zM405 28q96 0 165.5 42.5t107 118t37.5 175.5q0 76 -21.5 137.5
t-62 106t-97.5 68.5t-129 24q-96 0 -165 -42t-106.5 -117.5t-37.5 -176.5q0 -75 21.5 -137t61.5 -106.5t97 -68.5t129 -24zM405 -141q-14 0 -23 9t-9 22q0 14 9 22.5t23 8.5t23 -8.5t9 -22.5q0 -13 -9 -22t-23 -9zM281 803l103 136h42l104 -136h-39l-86 112l-85 -112h-39z
" />
    <glyph glyph-name="uni1ED9" unicode="&#x1ed9;" horiz-adv-x="589" 
d="M296 -8q-55 0 -99.5 19t-77 54.5t-50 84t-17.5 107.5q0 79 30.5 139.5t85.5 94.5t128 34q54 0 98.5 -19t76 -54.5t49 -84.5t17.5 -109q0 -78 -30 -138t-84.5 -94t-126.5 -34zM295 28q61 0 107 28t71.5 80t25.5 122q0 52 -14 94.5t-40.5 73.5t-64 47.5t-84.5 16.5
q-61 0 -107.5 -28.5t-72.5 -80.5t-26 -124q0 -51 14 -93.5t41 -72.5t65 -46.5t85 -16.5zM295 -141q-14 0 -23 9t-9 22q0 14 9 22.5t23 8.5t23 -8.5t9 -22.5q0 -13 -9 -22t-23 -9zM171 591l103 136h42l104 -136h-39l-86 112l-85 -112h-39z" />
    <glyph glyph-name="uni1EDA" unicode="&#x1eda;" horiz-adv-x="810" 
d="M405 -8q-79 0 -143.5 26.5t-111 76t-71 118t-24.5 151.5q0 84 25 152.5t71 117.5t110.5 75.5t143.5 26.5q80 0 144 -26.5t110.5 -76t71 -117.5t24.5 -152t-25 -152.5t-71.5 -117.5t-110.5 -75.5t-143 -26.5zM405 28q96 0 165.5 42.5t107 118t37.5 175.5q0 76 -21.5 137.5
t-62 106t-97.5 68.5t-129 24q-96 0 -165 -42t-106.5 -117.5t-37.5 -176.5q0 -75 21.5 -137t61.5 -106.5t97 -68.5t129 -24zM572 670v29q38 0 61 13.5t32 42t4 72.5h33q5 -52 -8 -87t-43.5 -52.5t-78.5 -17.5zM390 803l68 136h41l-78 -136h-31z" />
    <glyph glyph-name="uni1EDB" unicode="&#x1edb;" horiz-adv-x="589" 
d="M296 -8q-55 0 -99.5 19t-77 54.5t-50 84t-17.5 107.5q0 79 30.5 139.5t85.5 94.5t128 34q54 0 98.5 -19t76 -54.5t49 -84.5t17.5 -109q0 -78 -30 -138t-84.5 -94t-126.5 -34zM295 28q61 0 107 28t71.5 80t25.5 122q0 52 -14 94.5t-40.5 73.5t-64 47.5t-84.5 16.5
q-61 0 -107.5 -28.5t-72.5 -80.5t-26 -124q0 -51 14 -93.5t41 -72.5t65 -46.5t85 -16.5zM381 478v29q38 0 61 13.5t32 42t4 72.5h33q5 -52 -8 -87t-43.5 -52.5t-78.5 -17.5zM280 591l68 136h41l-78 -136h-31z" />
    <glyph glyph-name="uni1EDC" unicode="&#x1edc;" horiz-adv-x="810" 
d="M405 -8q-79 0 -143.5 26.5t-111 76t-71 118t-24.5 151.5q0 84 25 152.5t71 117.5t110.5 75.5t143.5 26.5q80 0 144 -26.5t110.5 -76t71 -117.5t24.5 -152t-25 -152.5t-71.5 -117.5t-110.5 -75.5t-143 -26.5zM405 28q96 0 165.5 42.5t107 118t37.5 175.5q0 76 -21.5 137.5
t-62 106t-97.5 68.5t-129 24q-96 0 -165 -42t-106.5 -117.5t-37.5 -176.5q0 -75 21.5 -137t61.5 -106.5t97 -68.5t129 -24zM572 670v29q38 0 61 13.5t32 42t4 72.5h33q5 -52 -8 -87t-43.5 -52.5t-78.5 -17.5zM389 803l-78 136h41l68 -136h-31z" />
    <glyph glyph-name="uni1EDD" unicode="&#x1edd;" horiz-adv-x="589" 
d="M296 -8q-55 0 -99.5 19t-77 54.5t-50 84t-17.5 107.5q0 79 30.5 139.5t85.5 94.5t128 34q54 0 98.5 -19t76 -54.5t49 -84.5t17.5 -109q0 -78 -30 -138t-84.5 -94t-126.5 -34zM295 28q61 0 107 28t71.5 80t25.5 122q0 52 -14 94.5t-40.5 73.5t-64 47.5t-84.5 16.5
q-61 0 -107.5 -28.5t-72.5 -80.5t-26 -124q0 -51 14 -93.5t41 -72.5t65 -46.5t85 -16.5zM381 478v29q38 0 61 13.5t32 42t4 72.5h33q5 -52 -8 -87t-43.5 -52.5t-78.5 -17.5zM279 591l-78 136h41l68 -136h-31z" />
    <glyph glyph-name="uni1EDE" unicode="&#x1ede;" horiz-adv-x="810" 
d="M405 -8q-79 0 -143.5 26.5t-111 76t-71 118t-24.5 151.5q0 84 25 152.5t71 117.5t110.5 75.5t143.5 26.5q80 0 144 -26.5t110.5 -76t71 -117.5t24.5 -152t-25 -152.5t-71.5 -117.5t-110.5 -75.5t-143 -26.5zM405 28q96 0 165.5 42.5t107 118t37.5 175.5q0 76 -21.5 137.5
t-62 106t-97.5 68.5t-129 24q-96 0 -165 -42t-106.5 -117.5t-37.5 -176.5q0 -75 21.5 -137t61.5 -106.5t97 -68.5t129 -24zM572 670v29q38 0 61 13.5t32 42t4 72.5h33q5 -52 -8 -87t-43.5 -52.5t-78.5 -17.5zM381 786l-19 24q39 20 58.5 39.5t19.5 44.5q0 20 -14.5 33
t-42.5 13q-13 0 -23.5 -1.5t-21.5 -6.5l-1 29q13 5 25.5 6.5t25.5 1.5q26 0 45 -9t30 -25t11 -38q0 -30 -21.5 -57.5t-71.5 -53.5z" />
    <glyph glyph-name="uni1EDF" unicode="&#x1edf;" horiz-adv-x="589" 
d="M296 -8q-55 0 -99.5 19t-77 54.5t-50 84t-17.5 107.5q0 79 30.5 139.5t85.5 94.5t128 34q54 0 98.5 -19t76 -54.5t49 -84.5t17.5 -109q0 -78 -30 -138t-84.5 -94t-126.5 -34zM295 28q61 0 107 28t71.5 80t25.5 122q0 52 -14 94.5t-40.5 73.5t-64 47.5t-84.5 16.5
q-61 0 -107.5 -28.5t-72.5 -80.5t-26 -124q0 -51 14 -93.5t41 -72.5t65 -46.5t85 -16.5zM381 478v29q38 0 61 13.5t32 42t4 72.5h33q5 -52 -8 -87t-43.5 -52.5t-78.5 -17.5zM271 574l-19 24q39 20 58.5 39.5t19.5 44.5q0 20 -14.5 33t-42.5 13q-13 0 -23.5 -1.5t-21.5 -6.5
l-1 29q13 5 25.5 6.5t25.5 1.5q26 0 45 -9t30 -25t11 -38q0 -30 -21.5 -57.5t-71.5 -53.5z" />
    <glyph glyph-name="uni1EE0" unicode="&#x1ee0;" horiz-adv-x="810" 
d="M405 -8q-79 0 -143.5 26.5t-111 76t-71 118t-24.5 151.5q0 84 25 152.5t71 117.5t110.5 75.5t143.5 26.5q80 0 144 -26.5t110.5 -76t71 -117.5t24.5 -152t-25 -152.5t-71.5 -117.5t-110.5 -75.5t-143 -26.5zM405 28q96 0 165.5 42.5t107 118t37.5 175.5q0 76 -21.5 137.5
t-62 106t-97.5 68.5t-129 24q-96 0 -165 -42t-106.5 -117.5t-37.5 -176.5q0 -75 21.5 -137t61.5 -106.5t97 -68.5t129 -24zM572 670v29q38 0 61 13.5t32 42t4 72.5h33q5 -52 -8 -87t-43.5 -52.5t-78.5 -17.5zM470 833q-30 0 -52.5 7t-41.5 13.5t-41 6.5q-19 0 -32.5 -6
t-26.5 -23l-20 12q13 18 25 29t27 16t34 5q21 0 43.5 -7t46 -14t46.5 -7q17 0 32.5 7t27.5 23l21 -13q-12 -17 -25.5 -28t-29 -16t-34.5 -5z" />
    <glyph glyph-name="uni1EE1" unicode="&#x1ee1;" horiz-adv-x="589" 
d="M296 -8q-55 0 -99.5 19t-77 54.5t-50 84t-17.5 107.5q0 79 30.5 139.5t85.5 94.5t128 34q54 0 98.5 -19t76 -54.5t49 -84.5t17.5 -109q0 -78 -30 -138t-84.5 -94t-126.5 -34zM295 28q61 0 107 28t71.5 80t25.5 122q0 52 -14 94.5t-40.5 73.5t-64 47.5t-84.5 16.5
q-61 0 -107.5 -28.5t-72.5 -80.5t-26 -124q0 -51 14 -93.5t41 -72.5t65 -46.5t85 -16.5zM381 478v29q38 0 61 13.5t32 42t4 72.5h33q5 -52 -8 -87t-43.5 -52.5t-78.5 -17.5zM360 621q-30 0 -52.5 7t-41.5 13.5t-41 6.5q-19 0 -32.5 -6t-26.5 -23l-20 12q13 18 25 29t27 16
t34 5q21 0 43.5 -7t46 -14t46.5 -7q17 0 32.5 7t27.5 23l21 -13q-12 -17 -25.5 -28t-29 -16t-34.5 -5z" />
    <glyph glyph-name="uni1EE2" unicode="&#x1ee2;" horiz-adv-x="810" 
d="M405 -8q-79 0 -143.5 26.5t-111 76t-71 118t-24.5 151.5q0 84 25 152.5t71 117.5t110.5 75.5t143.5 26.5q80 0 144 -26.5t110.5 -76t71 -117.5t24.5 -152t-25 -152.5t-71.5 -117.5t-110.5 -75.5t-143 -26.5zM405 28q96 0 165.5 42.5t107 118t37.5 175.5q0 76 -21.5 137.5
t-62 106t-97.5 68.5t-129 24q-96 0 -165 -42t-106.5 -117.5t-37.5 -176.5q0 -75 21.5 -137t61.5 -106.5t97 -68.5t129 -24zM572 670v29q38 0 61 13.5t32 42t4 72.5h33q5 -52 -8 -87t-43.5 -52.5t-78.5 -17.5zM405 -141q-14 0 -23 9t-9 22q0 14 9 22.5t23 8.5t23 -8.5
t9 -22.5q0 -13 -9 -22t-23 -9z" />
    <glyph glyph-name="uni1EE3" unicode="&#x1ee3;" horiz-adv-x="589" 
d="M296 -8q-55 0 -99.5 19t-77 54.5t-50 84t-17.5 107.5q0 79 30.5 139.5t85.5 94.5t128 34q54 0 98.5 -19t76 -54.5t49 -84.5t17.5 -109q0 -78 -30 -138t-84.5 -94t-126.5 -34zM295 28q61 0 107 28t71.5 80t25.5 122q0 52 -14 94.5t-40.5 73.5t-64 47.5t-84.5 16.5
q-61 0 -107.5 -28.5t-72.5 -80.5t-26 -124q0 -51 14 -93.5t41 -72.5t65 -46.5t85 -16.5zM381 478v29q38 0 61 13.5t32 42t4 72.5h33q5 -52 -8 -87t-43.5 -52.5t-78.5 -17.5zM295 -141q-14 0 -23 9t-9 22q0 14 9 22.5t23 8.5t23 -8.5t9 -22.5q0 -13 -9 -22t-23 -9z" />
    <glyph glyph-name="uni1EE4" unicode="&#x1ee4;" horiz-adv-x="723" 
d="M362 -8q-86 0 -149 31.5t-97 91.5t-34 145v469h38v-465q0 -79 29.5 -131.5t84 -78t128.5 -25.5q83 0 136.5 29t79.5 82t26 124v465h37v-469q0 -80 -32 -140.5t-94 -94t-153 -33.5zM362 -141q-14 0 -23 9t-9 22q0 14 9 22.5t23 8.5t23 -8.5t9 -22.5q0 -13 -9 -22t-23 -9z
" />
    <glyph glyph-name="uni1EE5" unicode="&#x1ee5;" horiz-adv-x="581" 
d="M264 -8q-56 0 -99 23t-66.5 70.5t-23.5 118.5v313h37v-306q0 -58 16.5 -99.5t52 -63.5t91.5 -22q54 0 96.5 27t66.5 77.5t24 118.5v268h37v-517h-34l-3 121h-4q-21 -59 -72.5 -94t-118.5 -35zM286 -141q-14 0 -23 9t-9 22q0 14 9 22.5t23 8.5t23 -8.5t9 -22.5
q0 -13 -9 -22t-23 -9z" />
    <glyph glyph-name="uni1EE6" unicode="&#x1ee6;" horiz-adv-x="723" 
d="M362 -8q-86 0 -149 31.5t-97 91.5t-34 145v469h38v-465q0 -79 29.5 -131.5t84 -78t128.5 -25.5q83 0 136.5 29t79.5 82t26 124v465h37v-469q0 -80 -32 -140.5t-94 -94t-153 -33.5zM338 786l-19 24q39 20 58.5 39.5t19.5 44.5q0 20 -14.5 33t-42.5 13q-13 0 -23.5 -1.5
t-21.5 -6.5l-1 29q13 5 25.5 6.5t25.5 1.5q26 0 45 -9t30 -25t11 -38q0 -30 -21.5 -57.5t-71.5 -53.5z" />
    <glyph glyph-name="uni1EE7" unicode="&#x1ee7;" horiz-adv-x="581" 
d="M264 -8q-56 0 -99 23t-66.5 70.5t-23.5 118.5v313h37v-306q0 -58 16.5 -99.5t52 -63.5t91.5 -22q54 0 96.5 27t66.5 77.5t24 118.5v268h37v-517h-34l-3 121h-4q-21 -59 -72.5 -94t-118.5 -35zM262 574l-19 24q39 20 58.5 39.5t19.5 44.5q0 20 -14.5 33t-42.5 13
q-13 0 -23.5 -1.5t-21.5 -6.5l-1 29q13 5 25.5 6.5t25.5 1.5q26 0 45 -9t30 -25t11 -38q0 -30 -21.5 -57.5t-71.5 -53.5z" />
    <glyph glyph-name="uni1EE8" unicode="&#x1ee8;" horiz-adv-x="723" 
d="M362 -8q-86 0 -149 31.5t-97 91.5t-34 145v469h38v-465q0 -79 29.5 -131.5t84 -78t128.5 -25.5q83 0 136.5 29t79.5 82t26 124v465h37v-469q0 -80 -32 -140.5t-94 -94t-153 -33.5zM604 700v29q38 0 61 13.5t32 42t4 72.5h33q5 -52 -8 -87t-43.5 -52.5t-78.5 -17.5z
M347 803l68 136h41l-78 -136h-31z" />
    <glyph glyph-name="uni1EE9" unicode="&#x1ee9;" horiz-adv-x="609" 
d="M264 -8q-56 0 -99 23t-66.5 70.5t-23.5 118.5v313h37v-306q0 -58 16.5 -99.5t52 -63.5t91.5 -22q54 0 96.5 27t66.5 77.5t24 118.5v268h37v-517h-34l-3 121h-4q-21 -59 -72.5 -94t-118.5 -35zM459 488v29q38 0 61 13.5t32 42t4 72.5h33q5 -52 -8 -87t-43.5 -52.5
t-78.5 -17.5zM271 591l68 136h41l-78 -136h-31z" />
    <glyph glyph-name="uni1EEA" unicode="&#x1eea;" horiz-adv-x="723" 
d="M362 -8q-86 0 -149 31.5t-97 91.5t-34 145v469h38v-465q0 -79 29.5 -131.5t84 -78t128.5 -25.5q83 0 136.5 29t79.5 82t26 124v465h37v-469q0 -80 -32 -140.5t-94 -94t-153 -33.5zM604 700v29q38 0 61 13.5t32 42t4 72.5h33q5 -52 -8 -87t-43.5 -52.5t-78.5 -17.5z
M346 803l-78 136h41l68 -136h-31z" />
    <glyph glyph-name="uni1EEB" unicode="&#x1eeb;" horiz-adv-x="609" 
d="M264 -8q-56 0 -99 23t-66.5 70.5t-23.5 118.5v313h37v-306q0 -58 16.5 -99.5t52 -63.5t91.5 -22q54 0 96.5 27t66.5 77.5t24 118.5v268h37v-517h-34l-3 121h-4q-21 -59 -72.5 -94t-118.5 -35zM459 488v29q38 0 61 13.5t32 42t4 72.5h33q5 -52 -8 -87t-43.5 -52.5
t-78.5 -17.5zM270 591l-78 136h41l68 -136h-31z" />
    <glyph glyph-name="uni1EEC" unicode="&#x1eec;" horiz-adv-x="723" 
d="M362 -8q-86 0 -149 31.5t-97 91.5t-34 145v469h38v-465q0 -79 29.5 -131.5t84 -78t128.5 -25.5q83 0 136.5 29t79.5 82t26 124v465h37v-469q0 -80 -32 -140.5t-94 -94t-153 -33.5zM604 700v29q38 0 61 13.5t32 42t4 72.5h33q5 -52 -8 -87t-43.5 -52.5t-78.5 -17.5z
M338 786l-19 24q39 20 58.5 39.5t19.5 44.5q0 20 -14.5 33t-42.5 13q-13 0 -23.5 -1.5t-21.5 -6.5l-1 29q13 5 25.5 6.5t25.5 1.5q26 0 45 -9t30 -25t11 -38q0 -30 -21.5 -57.5t-71.5 -53.5z" />
    <glyph glyph-name="uni1EED" unicode="&#x1eed;" horiz-adv-x="609" 
d="M264 -8q-56 0 -99 23t-66.5 70.5t-23.5 118.5v313h37v-306q0 -58 16.5 -99.5t52 -63.5t91.5 -22q54 0 96.5 27t66.5 77.5t24 118.5v268h37v-517h-34l-3 121h-4q-21 -59 -72.5 -94t-118.5 -35zM459 488v29q38 0 61 13.5t32 42t4 72.5h33q5 -52 -8 -87t-43.5 -52.5
t-78.5 -17.5zM262 574l-19 24q39 20 58.5 39.5t19.5 44.5q0 20 -14.5 33t-42.5 13q-13 0 -23.5 -1.5t-21.5 -6.5l-1 29q13 5 25.5 6.5t25.5 1.5q26 0 45 -9t30 -25t11 -38q0 -30 -21.5 -57.5t-71.5 -53.5z" />
    <glyph glyph-name="uni1EEE" unicode="&#x1eee;" horiz-adv-x="723" 
d="M362 -8q-86 0 -149 31.5t-97 91.5t-34 145v469h38v-465q0 -79 29.5 -131.5t84 -78t128.5 -25.5q83 0 136.5 29t79.5 82t26 124v465h37v-469q0 -80 -32 -140.5t-94 -94t-153 -33.5zM604 700v29q38 0 61 13.5t32 42t4 72.5h33q5 -52 -8 -87t-43.5 -52.5t-78.5 -17.5z
M427 833q-30 0 -52.5 7t-41.5 13.5t-41 6.5q-19 0 -32.5 -6t-26.5 -23l-20 12q13 18 25 29t27 16t34 5q21 0 43.5 -7t46 -14t46.5 -7q17 0 32.5 7t27.5 23l21 -13q-12 -17 -25.5 -28t-29 -16t-34.5 -5z" />
    <glyph glyph-name="uni1EEF" unicode="&#x1eef;" horiz-adv-x="609" 
d="M264 -8q-56 0 -99 23t-66.5 70.5t-23.5 118.5v313h37v-306q0 -58 16.5 -99.5t52 -63.5t91.5 -22q54 0 96.5 27t66.5 77.5t24 118.5v268h37v-517h-34l-3 121h-4q-21 -59 -72.5 -94t-118.5 -35zM459 488v29q38 0 61 13.5t32 42t4 72.5h33q5 -52 -8 -87t-43.5 -52.5
t-78.5 -17.5zM351 621q-30 0 -52.5 7t-41.5 13.5t-41 6.5q-19 0 -32.5 -6t-26.5 -23l-20 12q13 18 25 29t27 16t34 5q21 0 43.5 -7t46 -14t46.5 -7q17 0 32.5 7t27.5 23l21 -13q-12 -17 -25.5 -28t-29 -16t-34.5 -5z" />
    <glyph glyph-name="uni1EF0" unicode="&#x1ef0;" horiz-adv-x="723" 
d="M362 -8q-86 0 -149 31.5t-97 91.5t-34 145v469h38v-465q0 -79 29.5 -131.5t84 -78t128.5 -25.5q83 0 136.5 29t79.5 82t26 124v465h37v-469q0 -80 -32 -140.5t-94 -94t-153 -33.5zM604 700v29q38 0 61 13.5t32 42t4 72.5h33q5 -52 -8 -87t-43.5 -52.5t-78.5 -17.5z
M362 -141q-14 0 -23 9t-9 22q0 14 9 22.5t23 8.5t23 -8.5t9 -22.5q0 -13 -9 -22t-23 -9z" />
    <glyph glyph-name="uni1EF1" unicode="&#x1ef1;" horiz-adv-x="609" 
d="M264 -8q-56 0 -99 23t-66.5 70.5t-23.5 118.5v313h37v-306q0 -58 16.5 -99.5t52 -63.5t91.5 -22q54 0 96.5 27t66.5 77.5t24 118.5v268h37v-517h-34l-3 121h-4q-21 -59 -72.5 -94t-118.5 -35zM459 488v29q38 0 61 13.5t32 42t4 72.5h33q5 -52 -8 -87t-43.5 -52.5
t-78.5 -17.5zM286 -141q-14 0 -23 9t-9 22q0 14 9 22.5t23 8.5t23 -8.5t9 -22.5q0 -13 -9 -22t-23 -9z" />
    <glyph glyph-name="Ygrave" unicode="&#x1ef2;" horiz-adv-x="634" 
d="M297 0v300l-270 429h46l135 -216l106 -176h5l107 176l136 216h45l-272 -429v-300h-38zM302 803l-78 136h41l68 -136h-31z" />
    <glyph glyph-name="ygrave" unicode="&#x1ef3;" horiz-adv-x="492" 
d="M53 -167v32h47q26 0 44 7.5t31 23t22 39.5l41 104v-16l-213 494h41l124 -294l60 -152h4l56 152l117 294h39l-238 -594q-12 -30 -28 -50t-39.5 -30t-58.5 -10h-49zM230 591l-78 136h41l68 -136h-31z" />
    <glyph glyph-name="uni1EF4" unicode="&#x1ef4;" horiz-adv-x="634" 
d="M297 0v300l-270 429h46l135 -216l106 -176h5l107 176l136 216h45l-272 -429v-300h-38zM318 -141q-14 0 -23 9t-9 22q0 14 9 22.5t23 8.5t23 -8.5t9 -22.5q0 -13 -9 -22t-23 -9z" />
    <glyph glyph-name="uni1EF5" unicode="&#x1ef5;" horiz-adv-x="492" 
d="M53 -167v32h47q26 0 44 7.5t31 23t22 39.5l41 104v-16l-213 494h41l124 -294l60 -152h4l56 152l117 294h39l-238 -594q-12 -30 -28 -50t-39.5 -30t-58.5 -10h-49zM343 -141q-14 0 -23 9t-9 22q0 14 9 22.5t23 8.5t23 -8.5t9 -22.5q0 -13 -9 -22t-23 -9z" />
    <glyph glyph-name="uni1EF6" unicode="&#x1ef6;" horiz-adv-x="634" 
d="M297 0v300l-270 429h46l135 -216l106 -176h5l107 176l136 216h45l-272 -429v-300h-38zM294 786l-19 24q39 20 58.5 39.5t19.5 44.5q0 20 -14.5 33t-42.5 13q-13 0 -23.5 -1.5t-21.5 -6.5l-1 29q13 5 25.5 6.5t25.5 1.5q26 0 45 -9t30 -25t11 -38q0 -30 -21.5 -57.5
t-71.5 -53.5z" />
    <glyph glyph-name="uni1EF7" unicode="&#x1ef7;" horiz-adv-x="492" 
d="M53 -167v32h47q26 0 44 7.5t31 23t22 39.5l41 104v-16l-213 494h41l124 -294l60 -152h4l56 152l117 294h39l-238 -594q-12 -30 -28 -50t-39.5 -30t-58.5 -10h-49zM222 574l-19 24q39 20 58.5 39.5t19.5 44.5q0 20 -14.5 33t-42.5 13q-13 0 -23.5 -1.5t-21.5 -6.5l-1 29
q13 5 25.5 6.5t25.5 1.5q26 0 45 -9t30 -25t11 -38q0 -30 -21.5 -57.5t-71.5 -53.5z" />
    <glyph glyph-name="uni1EF8" unicode="&#x1ef8;" horiz-adv-x="634" 
d="M297 0v300l-270 429h46l135 -216l106 -176h5l107 176l136 216h45l-272 -429v-300h-38zM383 833q-30 0 -52.5 7t-41.5 13.5t-41 6.5q-19 0 -32.5 -6t-26.5 -23l-20 12q13 18 25 29t27 16t34 5q21 0 43.5 -7t46 -14t46.5 -7q17 0 32.5 7t27.5 23l21 -13q-12 -17 -25.5 -28
t-29 -16t-34.5 -5z" />
    <glyph glyph-name="uni1EF9" unicode="&#x1ef9;" horiz-adv-x="492" 
d="M53 -167v32h47q26 0 44 7.5t31 23t22 39.5l41 104v-16l-213 494h41l124 -294l60 -152h4l56 152l117 294h39l-238 -594q-12 -30 -28 -50t-39.5 -30t-58.5 -10h-49zM311 621q-30 0 -52.5 7t-41.5 13.5t-41 6.5q-19 0 -32.5 -6t-26.5 -23l-20 12q13 18 25 29t27 16t34 5
q21 0 43.5 -7t46 -14t46.5 -7q17 0 32.5 7t27.5 23l21 -13q-12 -17 -25.5 -28t-29 -16t-34.5 -5z" />
    <glyph glyph-name="endash" unicode="&#x2013;" horiz-adv-x="475" 
d="M60 242v33h355v-33h-355z" />
    <glyph glyph-name="emdash" unicode="&#x2014;" horiz-adv-x="635" 
d="M60 242v33h515v-33h-515z" />
    <glyph glyph-name="quoteleft" unicode="&#x2018;" horiz-adv-x="179" 
d="M137 729q-30 -35 -45.5 -70.5t-17.5 -62.5l-5 1q2 5 7.5 8.5t13.5 3.5q14 0 21 -8t7 -19q0 -13 -8 -20.5t-22 -7.5q-13 0 -22.5 9.5t-9.5 30.5q0 18 5.5 37.5t14.5 38.5t19 34.5t19 24.5h23z" />
    <glyph glyph-name="quoteright" unicode="&#x2019;" horiz-adv-x="179" 
d="M42 561q30 35 46 70.5t17 62.5l5 -1q-1 -4 -7 -8t-14 -4q-13 0 -20.5 8t-7.5 19q0 13 8.5 20.5t21.5 7.5q14 0 23 -9.5t9 -30.5q0 -18 -5.5 -37.5t-14.5 -38.5t-19 -34.5t-19 -24.5h-23z" />
    <glyph glyph-name="quotesinglbase" unicode="&#x201a;" horiz-adv-x="179" 
d="M42 -124q30 35 46 70.5t17 62.5l5 -1q-1 -4 -7 -8t-14 -4q-13 0 -20.5 8t-7.5 19q0 13 8.5 20.5t21.5 7.5q14 0 23 -9.5t9 -30.5q0 -18 -5.5 -37.5t-14.5 -38.5t-19 -34.5t-19 -24.5h-23z" />
    <glyph glyph-name="quotedblleft" unicode="&#x201c;" horiz-adv-x="308" 
d="M266 707q-30 -35 -45.5 -70.5t-17.5 -62.5l-5 1q2 5 7.5 8.5t13.5 3.5q14 0 21 -8t7 -19q0 -13 -8 -20.5t-22 -7.5q-13 0 -22.5 9.5t-9.5 30.5q0 18 5.5 37.5t14.5 38.5t19 34.5t19 24.5h23zM137 707q-30 -35 -45.5 -70.5t-17.5 -62.5l-5 1q2 5 7.5 8.5t13.5 3.5
q14 0 21 -8t7 -19q0 -13 -8 -20.5t-22 -7.5q-13 0 -22.5 9.5t-9.5 30.5q0 18 5.5 37.5t14.5 38.5t19 34.5t19 24.5h23z" />
    <glyph glyph-name="quotedblright" unicode="&#x201d;" horiz-adv-x="308" 
d="M42 544q30 35 46 70.5t17 62.5l5 -1q-1 -4 -7 -8t-14 -4q-13 0 -20.5 8t-7.5 19q0 13 8.5 20.5t21.5 7.5q14 0 23 -9.5t9 -30.5q0 -18 -5.5 -37.5t-14.5 -38.5t-19 -34.5t-19 -24.5h-23zM171 544q30 35 46 70.5t17 62.5l5 -1q-1 -4 -7 -8t-14 -4q-13 0 -20.5 8t-7.5 19
q0 13 8.5 20.5t21.5 7.5q14 0 23 -9.5t9 -30.5q0 -18 -5.5 -37.5t-14.5 -38.5t-19 -34.5t-19 -24.5h-23z" />
    <glyph glyph-name="quotedblbase" unicode="&#x201e;" horiz-adv-x="308" 
d="M42 -124q30 35 46 70.5t17 62.5l5 -1q-1 -4 -7 -8t-14 -4q-13 0 -20.5 8t-7.5 19q0 13 8.5 20.5t21.5 7.5q14 0 23 -9.5t9 -30.5q0 -18 -5.5 -37.5t-14.5 -38.5t-19 -34.5t-19 -24.5h-23zM171 -124q30 35 46 70.5t17 62.5l5 -1q-1 -4 -7 -8t-14 -4q-13 0 -20.5 8t-7.5 19
q0 13 8.5 20.5t21.5 7.5q14 0 23 -9.5t9 -30.5q0 -18 -5.5 -37.5t-14.5 -38.5t-19 -34.5t-19 -24.5h-23z" />
    <glyph glyph-name="bullet" unicode="&#x2022;" horiz-adv-x="298" 
d="M149 171q-31 0 -56 14t-39 38t-14 54q0 31 14 55t39 38t56 14q49 0 78.5 -30t29.5 -77q0 -30 -13.5 -54t-37.5 -38t-57 -14z" />
    <glyph glyph-name="ellipsis" unicode="&#x2026;" horiz-adv-x="542" 
d="M85 -7q-13 0 -21.5 8t-8.5 21t8.5 21t21.5 8t21.5 -8t8.5 -21t-8.5 -21t-21.5 -8zM271 -7q-13 0 -21.5 8t-8.5 21t8.5 21t21.5 8t21.5 -8t8.5 -21t-8.5 -21t-21.5 -8zM457 -7q-13 0 -21.5 8t-8.5 21t8.5 21t21.5 8t21.5 -8t8.5 -21t-8.5 -21t-21.5 -8z" />
    <glyph glyph-name="perthousand" unicode="&#x2030;" horiz-adv-x="1167" 
d="M167 0l461 729h42l-462 -729h-41zM204 324q-42 0 -73.5 23.5t-48.5 69t-17 110.5q0 66 17.5 111t49 68t72.5 23t72 -23t48 -68t17 -111t-17.5 -111t-48 -68.5t-71.5 -23.5zM204 356q32 0 54 19.5t34 57.5t12 94t-12 94t-34 57t-54 19t-55 -19.5t-35 -57t-12 -93.5
q0 -42 7 -74t20 -53.5t32 -32.5t43 -11zM635 -5q-42 0 -73.5 23t-48.5 68.5t-17 111.5t17 111t48.5 68t73.5 23q41 0 72 -23t48 -68.5t17 -111.5q0 -65 -17.5 -110.5t-48 -68.5t-71.5 -23zM635 27q31 0 53 19t34 57t12 94q0 57 -12 95t-34 57t-53 19q-32 0 -55 -19t-35 -57
t-12 -95q0 -56 12 -94t35 -57t55 -19zM965 -5q-42 0 -73.5 23t-48.5 68.5t-17 111.5t17 111t48.5 68t73.5 23q41 0 72 -23t48 -68.5t17 -111.5q0 -65 -17.5 -110.5t-48 -68.5t-71.5 -23zM965 27q31 0 53 19t34 57t12 94q0 57 -12 95t-34 57t-53 19q-32 0 -55 -19t-35 -57
t-12 -95q0 -56 12 -94t35 -57t55 -19z" />
    <glyph glyph-name="guilsinglleft" unicode="&#x2039;" horiz-adv-x="257" 
d="M172 80l-120 219l120 218h33l-113 -218l113 -219h-33z" />
    <glyph glyph-name="guilsinglright" unicode="&#x203a;" horiz-adv-x="257" 
d="M85 517l120 -219l-120 -218h-33l113 218l-113 219h33z" />
    <glyph glyph-name="fraction" unicode="&#x2044;" horiz-adv-x="116" 
d="M-209 0l496 721h38l-497 -721h-37z" />
    <glyph glyph-name="uni2070" unicode="&#x2070;" horiz-adv-x="424" 
d="M212 331q-27 0 -50.5 9t-41.5 26.5t-31 44t-19.5 62t-6.5 79.5q0 75 18.5 124t52.5 73t78 24q27 0 50.5 -9t41.5 -26.5t31 -44t19.5 -62t6.5 -79.5q0 -75 -18.5 -124t-52 -73t-78.5 -24zM212 361q40 0 65 23t36.5 66t11.5 102q0 36 -4 65.5t-12.5 53t-22 39.5t-32 24.5
t-42.5 8.5q-40 0 -65 -23t-36.5 -65.5t-11.5 -102.5q0 -36 4 -65.5t12.5 -53t22 -39.5t32 -24.5t42.5 -8.5z" />
    <glyph glyph-name="uni2074" unicode="&#x2074;" horiz-adv-x="392" 
d="M245 336v407l10 -3l-186 -260h293v-30h-330v29l207 290h40v-433h-34z" />
    <glyph glyph-name="uni2075" unicode="&#x2075;" horiz-adv-x="403" 
d="M203 331q-41 0 -71 16t-46.5 43t-18.5 60h35q2 -26 15 -46t35.5 -31t51.5 -11q53 0 82 31t29 80q0 53 -30 82t-79 29q-34 0 -60 -15.5t-37 -40.5h-37l18 241h250v-31h-220l-14 -175l2 -1q16 25 44.5 38t60.5 13q42 0 72.5 -17.5t47.5 -48.5t17 -72q0 -43 -18 -75.5
t-51 -50.5t-78 -18z" />
    <glyph glyph-name="uni2076" unicode="&#x2076;" horiz-adv-x="417" 
d="M213 331q-38 0 -66 13t-46.5 38t-27.5 61t-9 81q0 88 17 143t52 81t88 26q56 0 92.5 -29.5t40.5 -77.5h-34q-7 41 -35 59t-65 18q-51 0 -77 -27.5t-35.5 -76.5t-10.5 -114h2q11 37 43 59.5t80 22.5q41 0 71.5 -17t47.5 -47.5t17 -71.5q0 -43 -18.5 -74.5t-51 -49
t-75.5 -17.5zM215 362q48 0 77.5 30.5t29.5 79.5q0 50 -29.5 78.5t-76.5 28.5q-52 0 -81.5 -32t-29.5 -79q0 -33 14 -56.5t39 -36.5t57 -13z" />
    <glyph glyph-name="uni2077" unicode="&#x2077;" horiz-adv-x="349" 
d="M138 336q0 89 20.5 159t53.5 129t70 114h-213v-94h-29v125h283v-24q-29 -43 -55.5 -86.5t-47.5 -91.5t-33 -105t-12 -126h-37z" />
    <glyph glyph-name="uni2078" unicode="&#x2078;" horiz-adv-x="410" 
d="M205 330q-44 0 -77 15t-51.5 42t-18.5 62q0 40 24 70t70 39v2q-34 9 -56.5 36.5t-22.5 63.5q0 35 16.5 60t46 39t69.5 14q41 0 70.5 -14t45.5 -39.5t16 -59.5q0 -36 -22.5 -63.5t-57.5 -36.5v-2q47 -9 71 -39t24 -70q0 -53 -41 -86t-106 -33zM205 360q50 0 80.5 25.5
t30.5 66.5q0 37 -25 64.5t-86 27.5t-86 -27t-25 -65q0 -41 31 -66.5t80 -25.5zM205 573q55 0 76.5 27t21.5 59q0 21 -9 40.5t-30.5 32t-58.5 12.5q-55 0 -76.5 -26.5t-21.5 -58.5q0 -21 9.5 -41t31 -32.5t57.5 -12.5z" />
    <glyph glyph-name="uni2079" unicode="&#x2079;" horiz-adv-x="417" 
d="M204 774q38 0 66 -13t46.5 -38t27.5 -61t9 -81q0 -88 -17 -143t-52 -81t-88 -26q-55 0 -91.5 29.5t-41.5 77.5h34q7 -41 35 -59t65 -18q51 0 77 27.5t35.5 76.5t10.5 114h-2q-10 -37 -42.5 -59.5t-80.5 -22.5q-40 0 -71 17t-48 48t-17 71q0 43 18.5 74.5t51.5 49t75 17.5
zM202 743q-48 0 -77.5 -30t-29.5 -80q0 -49 30 -78t76 -29q52 0 81.5 32.5t29.5 78.5q0 33 -14 56.5t-38.5 36.5t-57.5 13z" />
    <glyph glyph-name="uni2080" unicode="&#x2080;" horiz-adv-x="424" 
d="M212 -45q-27 0 -50.5 9t-41.5 26.5t-31 44t-19.5 62t-6.5 79.5q0 75 18.5 124t52.5 73t78 24q27 0 50.5 -9t41.5 -26.5t31 -44t19.5 -62t6.5 -79.5q0 -75 -18.5 -124t-52 -73t-78.5 -24zM212 -15q40 0 65 23t36.5 66t11.5 102q0 36 -4 65.5t-12.5 53t-22 39.5t-32 24.5
t-42.5 8.5q-40 0 -65 -23t-36.5 -65.5t-11.5 -102.5q0 -36 4 -65.5t12.5 -53t22 -39.5t32 -24.5t42.5 -8.5z" />
    <glyph glyph-name="uni2081" unicode="&#x2081;" horiz-adv-x="247" 
d="M128 -40v337h-100v26h16q44 0 62.5 19.5t21.5 50.5h34v-433h-34z" />
    <glyph glyph-name="uni2082" unicode="&#x2082;" horiz-adv-x="370" 
d="M53 -40v13q0 38 16.5 66.5t42.5 52t55.5 44t55.5 41.5t42.5 45.5t16.5 54.5q0 42 -26 66t-70 24t-73 -27t-28 -74h-35q-1 59 37 95t100 36q60 0 95 -32.5t35 -86.5q0 -34 -15.5 -61t-41 -48.5t-53.5 -41.5t-54.5 -40t-44 -43.5t-20.5 -52.5h232v-31h-267z" />
    <glyph glyph-name="uni2083" unicode="&#x2083;" horiz-adv-x="393" 
d="M184 -45q-40 0 -70.5 15t-47.5 42.5t-19 62.5h34q3 -43 32 -66.5t71 -23.5q50 0 79.5 26t29.5 69q0 46 -26.5 68t-70.5 22h-41v28h32q50 0 77 24t27 62q0 41 -27 62.5t-71 21.5t-72 -24.5t-30 -65.5h-35q2 38 20.5 64.5t48.5 41t68 14.5q31 0 55.5 -8t42 -22.5t26.5 -35
t9 -45.5q0 -38 -22 -64t-55 -36v-3q38 -8 59 -36.5t21 -69.5q0 -37 -18 -64.5t-50.5 -43t-76.5 -15.5z" />
    <glyph glyph-name="uni2084" unicode="&#x2084;" horiz-adv-x="392" 
d="M245 -40v407l10 -3l-186 -260h293v-30h-330v29l207 290h40v-433h-34z" />
    <glyph glyph-name="uni2085" unicode="&#x2085;" horiz-adv-x="403" 
d="M203 -45q-41 0 -71 16t-46.5 43t-18.5 60h35q2 -26 15 -46t35.5 -31t51.5 -11q53 0 82 31t29 80q0 53 -30 82t-79 29q-34 0 -60 -15.5t-37 -40.5h-37l18 241h250v-31h-220l-14 -175l2 -1q16 25 44.5 38t60.5 13q42 0 72.5 -17.5t47.5 -48.5t17 -72q0 -43 -18 -75.5
t-51 -50.5t-78 -18z" />
    <glyph glyph-name="uni2086" unicode="&#x2086;" horiz-adv-x="417" 
d="M213 -45q-38 0 -66 13t-46.5 38t-27.5 61t-9 81q0 88 17 143t52 81t88 26q56 0 92.5 -29.5t40.5 -77.5h-34q-7 41 -35 59t-65 18q-51 0 -77 -27.5t-35.5 -76.5t-10.5 -114h2q11 37 43 59.5t80 22.5q41 0 71.5 -17t47.5 -47.5t17 -71.5q0 -43 -18.5 -74.5t-51 -49
t-75.5 -17.5zM215 -14q48 0 77.5 30.5t29.5 79.5q0 50 -29.5 78.5t-76.5 28.5q-52 0 -81.5 -32t-29.5 -79q0 -33 14 -56.5t39 -36.5t57 -13z" />
    <glyph glyph-name="uni2087" unicode="&#x2087;" horiz-adv-x="349" 
d="M138 -40q0 89 20.5 159t53.5 129t70 114h-213v-94h-29v125h283v-24q-29 -43 -55.5 -86.5t-47.5 -91.5t-33 -105t-12 -126h-37z" />
    <glyph glyph-name="uni2088" unicode="&#x2088;" horiz-adv-x="410" 
d="M205 -46q-44 0 -77 15t-51.5 42t-18.5 62q0 40 24 70t70 39v2q-34 9 -56.5 36.5t-22.5 63.5q0 35 16.5 60t46 39t69.5 14q41 0 70.5 -14t45.5 -39.5t16 -59.5q0 -36 -22.5 -63.5t-57.5 -36.5v-2q47 -9 71 -39t24 -70q0 -53 -41 -86t-106 -33zM205 -16q50 0 80.5 25.5
t30.5 66.5q0 37 -25 64.5t-86 27.5t-86 -27t-25 -65q0 -41 31 -66.5t80 -25.5zM205 197q55 0 76.5 27t21.5 59q0 21 -9 40.5t-30.5 32t-58.5 12.5q-55 0 -76.5 -26.5t-21.5 -58.5q0 -21 9.5 -41t31 -32.5t57.5 -12.5z" />
    <glyph glyph-name="uni2089" unicode="&#x2089;" horiz-adv-x="417" 
d="M204 398q38 0 66 -13t46.5 -38t27.5 -61t9 -81q0 -88 -17 -143t-52 -81t-88 -26q-55 0 -91.5 29.5t-41.5 77.5h34q7 -41 35 -59t65 -18q51 0 77 27.5t35.5 76.5t10.5 114h-2q-10 -37 -42.5 -59.5t-80.5 -22.5q-40 0 -71 17t-48 48t-17 71q0 43 18.5 74.5t51.5 49t75 17.5
zM202 367q-48 0 -77.5 -30t-29.5 -80q0 -49 30 -78t76 -29q52 0 81.5 32.5t29.5 78.5q0 33 -14 56.5t-38.5 36.5t-57.5 13z" />
    <glyph glyph-name="uni20A9" unicode="&#x20a9;" horiz-adv-x="961" 
d="M252 0l-176 729h42l116 -504l44 -192h6l45 189l122 507h60l121 -505l46 -191h6l44 192l116 504h42l-176 -729h-60l-117 486l-49 206h-6l-50 -206l-117 -486h-59zM57 348v34h848v-34h-848z" />
    <glyph glyph-name="uni20AA" unicode="&#x20aa;" horiz-adv-x="797" 
d="M288 0v571h39v-534h319v692h41v-662q0 -37 -17 -52t-50 -15h-332zM111 0v729h333q33 0 49.5 -14.5t16.5 -51.5v-504h-41v533h-319v-692h-39z" />
    <glyph glyph-name="Euro" unicode="&#x20ac;" horiz-adv-x="859" 
d="M476 -8q-78 0 -141.5 27t-109 76.5t-70 117.5t-24.5 151t24.5 151.5t70.5 118t109 76t141 26.5q85 0 152 -29.5t110.5 -83.5t56.5 -129h-40q-11 61 -48 107t-95.5 72.5t-135.5 26.5q-94 0 -162.5 -42t-105 -117.5t-36.5 -176.5q0 -76 21 -137.5t60.5 -106t95.5 -68.5
t127 -24q77 0 136 26t96 73.5t47 110.5h40q-10 -75 -53 -130.5t-111 -85.5t-155 -30zM59 260v34h452l-5 -34h-447zM59 435v34h481l-5 -34h-476z" />
    <glyph glyph-name="uni20B8" unicode="&#x20b8;" horiz-adv-x="598" 
d="M280 527h38v-527h-38v527zM543 517h-488v36h488v-36zM543 693h-488v36h488v-36z" />
    <glyph glyph-name="uni20B9" unicode="&#x20b9;" horiz-adv-x="667" 
d="M483 0l-28 197q-7 53 -29.5 80t-54 36.5t-67.5 9.5h-238v36h240q94 0 141 39t52 109h-433v35h433q-6 53 -30.5 86.5t-63.5 49.5t-91 16h-248v35h546v-35h-173v-3q41 -15 69.5 -56.5t30.5 -93.5h73v-34h-72q-3 -43 -22.5 -77.5t-53 -57.5t-77.5 -32v-6q45 -9 71.5 -42
t33.5 -86l29 -206h-38z" />
    <glyph glyph-name="uni20BA" unicode="&#x20ba;" horiz-adv-x="632" 
d="M161 0v729h38v-693q106 0 177 34.5t112 98t53 148.5h37q-11 -79 -41.5 -138.5t-78.5 -99.5t-113 -59.5t-145 -19.5h-39zM59 286v35l374 150v-35zM59 445v35l374 150v-35z" />
    <glyph glyph-name="uni20BF" unicode="&#x20bf;" horiz-adv-x="702" 
d="M111 0v729h285q68 0 115.5 -23.5t73 -65t25.5 -97.5q0 -40 -13.5 -74t-41.5 -58t-72 -34v-3q49 -9 81 -34t48.5 -61t16.5 -79q0 -61 -28.5 -106t-81 -69.5t-124.5 -24.5h-284zM149 36h246q96 0 145 46.5t49 119.5q0 72 -46 113t-130 41h-264v-320zM149 391h262
q53 0 88.5 18.5t54 51.5t18.5 77q0 73 -48.5 114.5t-128.5 41.5h-246v-303zM236 -85v107h32v-107h-32zM386 -85v107h32v-107h-32zM236 714v100h32v-100h-32zM386 714v100h32v-100h-32z" />
    <glyph glyph-name="uni2113" unicode="&#x2113;" horiz-adv-x="478" 
d="M271 -8q-36 0 -62.5 18.5t-45 53t-30 83t-16.5 110t-5 132.5q0 65 7 119t20.5 97t33.5 73t46.5 45.5t58.5 15.5q57 0 84.5 -48.5t27.5 -128.5q0 -63 -15.5 -122.5t-45 -111.5t-71 -95t-93 -74.5t-112.5 -48.5v31q68 21 124 61t96.5 95t62 121.5t21.5 139.5
q0 50 -9.5 82.5t-27 48.5t-43.5 16q-25 0 -45.5 -14t-37 -41t-27.5 -65.5t-17 -87.5t-6 -108q0 -83 6 -144t17 -103t27 -67.5t36 -37t43 -11.5q42 0 68.5 24t41.5 64l30 -12q-15 -39 -37 -63.5t-49 -35.5t-56 -11z" />
    <glyph glyph-name="uni2116" unicode="&#x2116;" horiz-adv-x="1122" 
d="M111 0v729h55l482 -686h5l-4 260v426h38v-729h-55l-481 686h-5l3 -250v-436h-38zM815 231v32h202v-32h-202zM917 334q-42 0 -73.5 23.5t-48.5 69t-17 110.5q0 66 17.5 111t49 68t72.5 23t72 -23t48 -68t17 -111t-17.5 -111t-48 -68.5t-71.5 -23.5zM917 366q32 0 54 19.5
t34 57.5t12 94t-12 94t-34 57t-54 19t-55 -19.5t-35 -57t-12 -93.5t12 -94t35 -57.5t55 -19.5z" />
    <glyph glyph-name="uni2117" unicode="&#x2117;" horiz-adv-x="871" 
d="M333 165v397h151q62 0 98 -32t36 -89q0 -55 -36.5 -88.5t-98.5 -33.5h-125v28h121q50 0 77.5 25t27.5 68q0 44 -28 68t-77 24h-114v-367h-32zM435 -10q-84 0 -153 26.5t-118.5 76t-76.5 118t-27 152.5t27 152.5t76.5 118t118.5 76t153 26.5t153.5 -26.5t119 -76
t76.5 -118t27 -152.5t-27 -152.5t-76.5 -118t-119 -76t-153.5 -26.5zM435 21q102 0 179 43t120 120t43 179t-43 179.5t-120 120.5t-179 43q-101 0 -178 -43t-120 -120.5t-43 -179.5t43 -179t120 -120t178 -43z" />
    <glyph glyph-name="trademark" unicode="&#x2122;" horiz-adv-x="814" 
d="M361 419v310h44l124 -270h3l124 270h47v-310h-35v150l3 117h-3l-123 -267h-28l-123 267h-2l1 -117v-150h-32zM164 419v280h-110v30h257v-30h-114v-280h-33z" />
    <glyph glyph-name="estimated" unicode="&#x212e;" horiz-adv-x="853" 
d="M457 -9q-110 0 -192.5 46.5t-128.5 130.5t-46 196t43 196t121 130.5t182 46.5q98 0 171.5 -40t114.5 -112t41 -169v-54h-531v-255q43 -40 98 -60.5t127 -20.5q75 0 144 26t115 68l18 -30q-50 -47 -124.5 -73t-152.5 -26zM232 395h406v231q-33 41 -89.5 59.5t-112.5 18.5
q-53 0 -109.5 -20t-94.5 -64v-225z" />
    <glyph glyph-name="oneeighth" unicode="&#x215b;" horiz-adv-x="733" 
d="M122 332v309h-92v24h14q42 0 58.5 18t18.5 46h32v-397h-31zM29 0l496 721h38l-497 -721h-37zM538 -6q-40 0 -70.5 14t-47.5 39t-17 57q0 38 23 65t63 35v2q-32 8 -52.5 33t-20.5 58q0 32 15 55t42.5 36t64.5 13t64 -13t42 -36t15 -55q0 -33 -20.5 -58t-52.5 -33v-2
q41 -8 63.5 -35.5t22.5 -64.5q0 -49 -37.5 -79.5t-96.5 -30.5zM538 22q45 0 73 23.5t28 61.5q0 34 -22.5 59t-78.5 25q-55 0 -78.5 -25t-23.5 -59q0 -38 28 -61.5t74 -23.5zM538 218q50 0 69.5 24.5t19.5 53.5t-19.5 53.5t-69.5 24.5q-51 0 -70.5 -24.5t-19.5 -53.5
q0 -19 8.5 -37t28 -29.5t53.5 -11.5z" />
    <glyph glyph-name="threeeighths" unicode="&#x215c;" horiz-adv-x="854" 
d="M175 327q-55 0 -89.5 31t-36.5 80h31q2 -37 28.5 -60t66.5 -23q45 0 72 23.5t27 63.5q0 41 -24 62t-65 21h-37v25h29q46 0 71 22t25 57q0 37 -24.5 57t-65.5 20q-40 0 -66 -22.5t-28 -59.5h-31q2 52 37.5 81t87.5 29q28 0 50.5 -7.5t38.5 -21t24.5 -32t8.5 -41.5
q0 -34 -19.5 -58t-51.5 -34v-3q33 -7 53 -32t20 -65q0 -51 -36.5 -82t-95.5 -31zM150 0l496 721h38l-497 -721h-37zM659 -6q-40 0 -70.5 14t-47.5 39t-17 57q0 38 23 65t63 35v2q-32 8 -52.5 33t-20.5 58q0 32 15 55t42.5 36t64.5 13t64 -13t42 -36t15 -55q0 -33 -20.5 -58
t-52.5 -33v-2q41 -8 63.5 -35.5t22.5 -64.5q0 -49 -37.5 -79.5t-96.5 -30.5zM659 22q45 0 73 23.5t28 61.5q0 34 -22.5 59t-78.5 25q-55 0 -78.5 -25t-23.5 -59q0 -38 28 -61.5t74 -23.5zM659 218q50 0 69.5 24.5t19.5 53.5t-19.5 53.5t-69.5 24.5q-51 0 -70.5 -24.5
t-19.5 -53.5q0 -19 8.5 -37t28 -29.5t53.5 -11.5z" />
    <glyph glyph-name="fiveeighths" unicode="&#x215d;" horiz-adv-x="870" 
d="M194 327q-53 0 -88 30t-37 79h32q2 -36 27.5 -58.5t65.5 -22.5q49 0 75.5 29t26.5 74q0 48 -27.5 74.5t-72.5 26.5q-33 0 -56 -14.5t-33 -36.5h-33l16 221h229v-29h-202l-12 -160h2q13 20 38.5 33t57.5 13q56 0 91 -35t35 -92q0 -39 -17 -69t-47.5 -46.5t-70.5 -16.5z
M166 0l496 721h38l-497 -721h-37zM675 -6q-40 0 -70.5 14t-47.5 39t-17 57q0 38 23 65t63 35v2q-32 8 -52.5 33t-20.5 58q0 32 15 55t42.5 36t64.5 13t64 -13t42 -36t15 -55q0 -33 -20.5 -58t-52.5 -33v-2q41 -8 63.5 -35.5t22.5 -64.5q0 -49 -37.5 -79.5t-96.5 -30.5z
M675 22q45 0 73 23.5t28 61.5q0 34 -22.5 59t-78.5 25q-55 0 -78.5 -25t-23.5 -59q0 -38 28 -61.5t74 -23.5zM675 218q50 0 69.5 24.5t19.5 53.5t-19.5 53.5t-69.5 24.5q-51 0 -70.5 -24.5t-19.5 -53.5q0 -19 8.5 -37t28 -29.5t53.5 -11.5z" />
    <glyph glyph-name="seveneighths" unicode="&#x215e;" horiz-adv-x="781" 
d="M130 332q0 80 18 143t48 118t66 108h-195v-86h-27v114h260v-22q-27 -39 -51.5 -79t-43.5 -84.5t-30 -96.5t-11 -115h-34zM77 0l496 721h38l-497 -721h-37zM586 -6q-40 0 -70.5 14t-47.5 39t-17 57q0 38 23 65t63 35v2q-32 8 -52.5 33t-20.5 58q0 32 15 55t42.5 36
t64.5 13t64 -13t42 -36t15 -55q0 -33 -20.5 -58t-52.5 -33v-2q41 -8 63.5 -35.5t22.5 -64.5q0 -49 -37.5 -79.5t-96.5 -30.5zM586 22q45 0 73 23.5t28 61.5q0 34 -22.5 59t-78.5 25q-55 0 -78.5 -25t-23.5 -59q0 -38 28 -61.5t74 -23.5zM586 218q50 0 69.5 24.5t19.5 53.5
t-19.5 53.5t-69.5 24.5q-51 0 -70.5 -24.5t-19.5 -53.5q0 -19 8.5 -37t28 -29.5t53.5 -11.5z" />
    <glyph glyph-name="arrowleft" unicode="&#x2190;" horiz-adv-x="746" 
d="M640 383v-36h-483l122 -165h-42l-136 183l136 183h42l-122 -165h483z" />
    <glyph glyph-name="arrowup" unicode="&#x2191;" horiz-adv-x="513" 
d="M239 95v483l-165 -122v42l183 136l183 -136v-42l-165 122v-483h-36z" />
    <glyph glyph-name="arrowright" unicode="&#x2192;" horiz-adv-x="746" 
d="M106 383h483l-122 165h42l136 -183l-136 -183h-42l122 165h-483v36z" />
    <glyph glyph-name="arrowdown" unicode="&#x2193;" horiz-adv-x="491" 
d="M238 634h36v-483l165 122v-42l-183 -136l-183 136v42l165 -122v483z" />
    <glyph glyph-name="arrowboth" unicode="&#x2194;" horiz-adv-x="829" 
d="M216 182l-136 183l136 183h42l-122 -165h557l-122 165h42l136 -183l-136 -183h-42l122 165h-557l122 -165h-42z" />
    <glyph glyph-name="emptyset" unicode="&#x2205;" horiz-adv-x="823" 
d="M412 -10q-76 0 -143 27.5t-117.5 77.5t-79.5 119t-29 152q0 82 29 150t79.5 118t117.5 77.5t143 27.5q75 0 142 -27.5t117.5 -77.5t79.5 -118t29 -150q0 -83 -29 -152t-79.5 -119t-117.5 -77.5t-142 -27.5zM412 19q68 0 128.5 26t107 72.5t73 110t26.5 138.5q0 45 -10 86
t-28 77l-580 -353q46 -72 120.5 -114.5t162.5 -42.5zM114 202l579 354q-45 71 -119.5 112.5t-161.5 41.5q-68 0 -129 -25.5t-107.5 -72t-73 -109t-26.5 -137.5q0 -45 10 -86.5t28 -77.5z" />
    <glyph glyph-name="product" unicode="&#x220f;" horiz-adv-x="732" 
d="M85 -151v880h562v-880h-38v844h-486v-844h-38z" />
    <glyph glyph-name="summation" unicode="&#x2211;" horiz-adv-x="529" 
d="M28 -151v40l283 399v3l-283 398v40h477v-34h-248h-184v-3l288 -403l-288 -403v-3h184h248v-34h-477z" />
    <glyph glyph-name="minus" unicode="&#x2212;" horiz-adv-x="600" 
d="M61 345v32h478v-32h-478z" />
    <glyph glyph-name="radical" unicode="&#x221a;" horiz-adv-x="602" 
d="M254 -151l-158 486h-75v34h105l146 -459h3l263 819h42l-287 -880h-39z" />
    <glyph glyph-name="infinity" unicode="&#x221e;" horiz-adv-x="896" 
d="M235 167q-56 0 -96.5 26t-62 71t-21.5 100q0 54 21.5 99t61.5 72.5t96 27.5q53 0 91.5 -24t68 -62.5t55.5 -82.5q26 44 56 82.5t68.5 62.5t91.5 24q56 0 95.5 -28t60 -73t20.5 -98q0 -51 -20.5 -96t-60 -73t-95.5 -28q-51 0 -89.5 22.5t-68.5 61.5t-58 86
q-26 -44 -56 -83t-68.5 -63t-89.5 -24zM234 202q55 0 98.5 39.5t94.5 123.5q-51 81 -93 121.5t-101 40.5q-42 0 -74 -21t-50 -58t-18 -84q0 -73 39.5 -117.5t103.5 -44.5zM664 202q43 0 75 21.5t50 58.5t18 82q0 47 -18 83.5t-50 58t-75 21.5q-39 0 -70.5 -18t-60.5 -54
t-63 -90q35 -54 64 -90.5t60 -54.5t70 -18z" />
    <glyph glyph-name="integral" unicode="&#x222b;" horiz-adv-x="371" 
d="M18 -151v35h148v790q0 25 12.5 40t35.5 15h139v-36h-149v-792q0 -20 -9 -36t-39 -16h-138z" />
    <glyph glyph-name="approxequal" unicode="&#x2248;" horiz-adv-x="600" 
d="M377 215q-21 0 -43.5 7.5t-44 17t-40.5 16.5t-35 7q-21 0 -33.5 -16.5t-9.5 -45.5h-30q-3 44 9 66.5t30.5 30t34.5 7.5q20 0 40.5 -7t41.5 -16.5t41.5 -17t39.5 -7.5q26 0 40 16t13 48h30q2 -29 -4 -49.5t-18 -33t-28 -18t-34 -5.5zM377 418q-22 0 -44 6.5t-43.5 15.5
t-40.5 15.5t-35 6.5q-15 0 -25.5 -7t-15 -20t-2.5 -33h-30q-2 38 7.5 60t27 32t38.5 10q20 0 41 -7t42 -16.5t41.5 -17t39.5 -7.5q26 0 40 16.5t13 47.5h30q2 -25 -3 -44.5t-15.5 -32t-27 -19t-38.5 -6.5z" />
    <glyph glyph-name="notequal" unicode="&#x2260;" horiz-adv-x="600" 
d="M160 101l245 529h35l-243 -529h-37zM61 235v32h478v-32h-478zM61 455v32h478v-32h-478z" />
    <glyph glyph-name="lessequal" unicode="&#x2264;" horiz-adv-x="600" 
d="M537 133l-481 206v44l481 206v-36l-448 -190v-4l448 -190v-36zM56 0v32h481v-32h-481z" />
    <glyph glyph-name="greaterequal" unicode="&#x2265;" horiz-adv-x="600" 
d="M63 133v36l448 190v4l-448 190v36l481 -206v-44zM63 0v32h481v-32h-481z" />
    <glyph glyph-name="uni2460" unicode="&#x2460;" horiz-adv-x="871" 
d="M435 -10q-84 0 -153 26.5t-118.5 76t-76.5 118t-27 152.5t27 152.5t76.5 118t118.5 76t153 26.5t153.5 -26.5t119 -76t76.5 -118t27 -152.5t-27 -152.5t-76.5 -118t-119 -76t-153.5 -26.5zM435 21q102 0 179 43t120 120t43 179t-43 179.5t-120 120.5t-179 43
q-101 0 -178 -43t-120 -120.5t-43 -179.5t43 -179t120 -120t178 -43zM434 149v337h-100v26h16q44 0 62.5 19.5t21.5 50.5h34v-433h-34z" />
    <glyph glyph-name="uni2461" unicode="&#x2461;" horiz-adv-x="871" 
d="M435 -10q-84 0 -153 26.5t-118.5 76t-76.5 118t-27 152.5t27 152.5t76.5 118t118.5 76t153 26.5t153.5 -26.5t119 -76t76.5 -118t27 -152.5t-27 -152.5t-76.5 -118t-119 -76t-153.5 -26.5zM435 21q102 0 179 43t120 120t43 179t-43 179.5t-120 120.5t-179 43
q-101 0 -178 -43t-120 -120.5t-43 -179.5t43 -179t120 -120t178 -43zM303 149v13q0 38 16.5 66.5t42.5 52t55.5 44t55.5 41.5t42.5 45.5t16.5 54.5q0 42 -26 66t-70 24t-73 -27t-28 -74h-35q-1 59 37 95t100 36q60 0 95 -32.5t35 -86.5q0 -34 -15.5 -61t-41 -48.5
t-53.5 -41.5t-54.5 -40t-44 -43.5t-20.5 -52.5h232v-31h-267z" />
    <glyph glyph-name="uni2462" unicode="&#x2462;" horiz-adv-x="871" 
d="M435 -10q-84 0 -153 26.5t-118.5 76t-76.5 118t-27 152.5t27 152.5t76.5 118t118.5 76t153 26.5t153.5 -26.5t119 -76t76.5 -118t27 -152.5t-27 -152.5t-76.5 -118t-119 -76t-153.5 -26.5zM435 21q102 0 179 43t120 120t43 179t-43 179.5t-120 120.5t-179 43
q-101 0 -178 -43t-120 -120.5t-43 -179.5t43 -179t120 -120t178 -43zM431 144q-40 0 -70.5 15t-47.5 42.5t-19 62.5h34q3 -43 32 -66.5t71 -23.5q50 0 79.5 26t29.5 69q0 46 -26.5 68t-70.5 22h-41v28h32q50 0 77 24t27 62q0 41 -27 62.5t-71 21.5t-72 -24.5t-30 -65.5h-35
q2 38 20.5 64.5t48.5 41t68 14.5q31 0 55.5 -8t42 -22.5t26.5 -35t9 -45.5q0 -38 -22 -64t-55 -36v-3q38 -8 59 -36.5t21 -69.5q0 -37 -18 -64.5t-50.5 -43t-76.5 -15.5z" />
    <glyph glyph-name="uni2463" unicode="&#x2463;" horiz-adv-x="871" 
d="M435 -10q-84 0 -153 26.5t-118.5 76t-76.5 118t-27 152.5t27 152.5t76.5 118t118.5 76t153 26.5t153.5 -26.5t119 -76t76.5 -118t27 -152.5t-27 -152.5t-76.5 -118t-119 -76t-153.5 -26.5zM435 21q102 0 179 43t120 120t43 179t-43 179.5t-120 120.5t-179 43
q-101 0 -178 -43t-120 -120.5t-43 -179.5t43 -179t120 -120t178 -43zM483 149v407l10 -3l-186 -260h293v-30h-330v29l207 290h40v-433h-34z" />
    <glyph glyph-name="uni2464" unicode="&#x2464;" horiz-adv-x="871" 
d="M435 -10q-84 0 -153 26.5t-118.5 76t-76.5 118t-27 152.5t27 152.5t76.5 118t118.5 76t153 26.5t153.5 -26.5t119 -76t76.5 -118t27 -152.5t-27 -152.5t-76.5 -118t-119 -76t-153.5 -26.5zM435 21q102 0 179 43t120 120t43 179t-43 179.5t-120 120.5t-179 43
q-101 0 -178 -43t-120 -120.5t-43 -179.5t43 -179t120 -120t178 -43zM429 144q-41 0 -71 16t-46.5 43t-18.5 60h35q2 -26 15 -46t35.5 -31t51.5 -11q53 0 82 31t29 80q0 53 -30 82t-79 29q-34 0 -60 -15.5t-37 -40.5h-37l18 241h250v-31h-220l-14 -175l2 -1q16 25 44.5 38
t60.5 13q42 0 72.5 -17.5t47.5 -48.5t17 -72q0 -43 -18 -75.5t-51 -50.5t-78 -18z" />
    <glyph glyph-name="uni2465" unicode="&#x2465;" horiz-adv-x="871" 
d="M435 -10q-84 0 -153 26.5t-118.5 76t-76.5 118t-27 152.5t27 152.5t76.5 118t118.5 76t153 26.5t153.5 -26.5t119 -76t76.5 -118t27 -152.5t-27 -152.5t-76.5 -118t-119 -76t-153.5 -26.5zM435 21q102 0 179 43t120 120t43 179t-43 179.5t-120 120.5t-179 43
q-101 0 -178 -43t-120 -120.5t-43 -179.5t43 -179t120 -120t178 -43zM437 144q-38 0 -66 13t-46.5 38t-27.5 61t-9 81q0 88 17 143t52 81t88 26q56 0 92.5 -29.5t40.5 -77.5h-34q-7 41 -35 59t-65 18q-51 0 -77 -27.5t-35.5 -76.5t-10.5 -114h2q11 37 43 59.5t80 22.5
q41 0 71.5 -17t47.5 -47.5t17 -71.5q0 -43 -18.5 -74.5t-51 -49t-75.5 -17.5zM439 175q48 0 77.5 30.5t29.5 79.5q0 50 -29.5 78.5t-76.5 28.5q-52 0 -81.5 -32t-29.5 -79q0 -33 14 -56.5t39 -36.5t57 -13z" />
    <glyph glyph-name="uni2466" unicode="&#x2466;" horiz-adv-x="871" 
d="M435 -10q-84 0 -153 26.5t-118.5 76t-76.5 118t-27 152.5t27 152.5t76.5 118t118.5 76t153 26.5t153.5 -26.5t119 -76t76.5 -118t27 -152.5t-27 -152.5t-76.5 -118t-119 -76t-153.5 -26.5zM435 21q102 0 179 43t120 120t43 179t-43 179.5t-120 120.5t-179 43
q-101 0 -178 -43t-120 -120.5t-43 -179.5t43 -179t120 -120t178 -43zM391 149q0 89 20.5 159t53.5 129t70 114h-213v-94h-29v125h283v-24q-29 -43 -55.5 -86.5t-47.5 -91.5t-33 -105t-12 -126h-37z" />
    <glyph glyph-name="uni2467" unicode="&#x2467;" horiz-adv-x="871" 
d="M435 -10q-84 0 -153 26.5t-118.5 76t-76.5 118t-27 152.5t27 152.5t76.5 118t118.5 76t153 26.5t153.5 -26.5t119 -76t76.5 -118t27 -152.5t-27 -152.5t-76.5 -118t-119 -76t-153.5 -26.5zM435 21q102 0 179 43t120 120t43 179t-43 179.5t-120 120.5t-179 43
q-101 0 -178 -43t-120 -120.5t-43 -179.5t43 -179t120 -120t178 -43zM435 143q-44 0 -77 15t-51.5 42t-18.5 62q0 40 24 70t70 39v2q-34 9 -56.5 36.5t-22.5 63.5q0 35 16.5 60t46 39t69.5 14q41 0 70.5 -14t45.5 -39.5t16 -59.5q0 -36 -22.5 -63.5t-57.5 -36.5v-2
q47 -9 71 -39t24 -70q0 -53 -41 -86t-106 -33zM435 173q50 0 80.5 25.5t30.5 66.5q0 37 -25 64.5t-86 27.5t-86 -27t-25 -65q0 -41 31 -66.5t80 -25.5zM435 386q55 0 76.5 27t21.5 59q0 21 -9 40.5t-30.5 32t-58.5 12.5q-55 0 -76.5 -26.5t-21.5 -58.5q0 -21 9.5 -41
t31 -32.5t57.5 -12.5z" />
    <glyph glyph-name="uni2468" unicode="&#x2468;" horiz-adv-x="871" 
d="M435 -10q-84 0 -153 26.5t-118.5 76t-76.5 118t-27 152.5t27 152.5t76.5 118t118.5 76t153 26.5t153.5 -26.5t119 -76t76.5 -118t27 -152.5t-27 -152.5t-76.5 -118t-119 -76t-153.5 -26.5zM435 21q102 0 179 43t120 120t43 179t-43 179.5t-120 120.5t-179 43
q-101 0 -178 -43t-120 -120.5t-43 -179.5t43 -179t120 -120t178 -43zM433 582q38 0 66 -13t46.5 -38t27.5 -61t9 -81q0 -88 -17 -143t-52 -81t-88 -26q-55 0 -91.5 29.5t-41.5 77.5h34q7 -41 35 -59t65 -18q51 0 77 27.5t35.5 76.5t10.5 114h-2q-10 -37 -42.5 -59.5
t-80.5 -22.5q-40 0 -71 17t-48 48t-17 71q0 43 18.5 74.5t51.5 49t75 17.5zM431 551q-48 0 -77.5 -30t-29.5 -80q0 -49 30 -78t76 -29q52 0 81.5 32.5t29.5 78.5q0 33 -14 57t-38.5 36.5t-57.5 12.5z" />
    <glyph glyph-name="uni24EA" unicode="&#x24ea;" horiz-adv-x="871" 
d="M435 -10q-84 0 -153 26.5t-118.5 76t-76.5 118t-27 152.5t27 152.5t76.5 118t118.5 76t153 26.5t153.5 -26.5t119 -76t76.5 -118t27 -152.5t-27 -152.5t-76.5 -118t-119 -76t-153.5 -26.5zM435 21q102 0 179 43t120 120t43 179t-43 179.5t-120 120.5t-179 43
q-101 0 -178 -43t-120 -120.5t-43 -179.5t43 -179t120 -120t178 -43zM435 144q-27 0 -50.5 9t-41.5 26.5t-31 44t-19.5 62t-6.5 79.5q0 75 18.5 124t52.5 73t78 24q27 0 50.5 -9t41.5 -26.5t31 -44t19.5 -62t6.5 -79.5q0 -75 -18.5 -124t-52 -73t-78.5 -24zM435 174
q40 0 65 23t36.5 66t11.5 102q0 36 -4 65.5t-12.5 53t-22 39.5t-32 24.5t-42.5 8.5q-40 0 -65 -23t-36.5 -65.5t-11.5 -102.5q0 -36 4 -65.5t12.5 -53t22 -39.5t32 -24.5t42.5 -8.5z" />
    <glyph glyph-name="uni24FF" unicode="&#x24ff;" horiz-adv-x="871" 
d="M435 -10q-84 0 -153 26.5t-118.5 76t-76.5 118t-27 152.5t27 152.5t76.5 118t118.5 76t153 26.5t153.5 -26.5t119 -76t76.5 -118t27 -152.5t-27 -152.5t-76.5 -118t-119 -76t-153.5 -26.5zM436 144q45 0 78.5 24t52 73t18.5 124q0 74 -18.5 123t-51.5 73.5t-79 24.5
q-44 0 -78 -24t-52.5 -73t-18.5 -124q0 -74 18.5 -123t52 -73.5t78.5 -24.5zM436 174q-40 0 -65 23t-36.5 66t-11.5 102q0 60 11.5 102.5t36.5 65.5t65 23t65 -23t36.5 -65.5t11.5 -102.5q0 -59 -11.5 -102t-36.5 -66t-65 -23z" />
    <glyph glyph-name="circle" unicode="&#x25cb;" horiz-adv-x="871" 
d="M435 -10q-84 0 -153 26.5t-118.5 76t-76.5 118t-27 152.5t27 152.5t76.5 118t118.5 76t153 26.5t153.5 -26.5t119 -76t76.5 -118t27 -152.5t-27 -152.5t-76.5 -118t-119 -76t-153.5 -26.5zM435 21q102 0 179 43t120 120t43 179t-43 179.5t-120 120.5t-179 43
q-101 0 -178 -43t-120 -120.5t-43 -179.5t43 -179t120 -120t178 -43z" />
    <glyph glyph-name="uni25CC" unicode="&#x25cc;" horiz-adv-x="730" 
d="M365 589q-19 0 -32 13t-13 32q0 20 13 32.5t32 12.5q20 0 32.5 -12.5t12.5 -32.5q0 -19 -12.5 -32t-32.5 -13zM500 553q-19 0 -32 13t-13 32q0 20 13 32.5t32 12.5q20 0 32.5 -12.5t12.5 -32.5q0 -19 -12.5 -32t-32.5 -13zM599 454q-19 0 -32 13t-13 32q0 20 13 32.5
t32 12.5q20 0 32.5 -12.5t12.5 -32.5q0 -19 -12.5 -32t-32.5 -13zM635 320q-19 0 -32 12.5t-13 32.5t13 32t32 12q20 0 32.5 -12t12.5 -32t-12.5 -32.5t-32.5 -12.5zM599 185q-19 0 -32 13t-13 32q0 20 13 32.5t32 12.5q20 0 32.5 -12.5t12.5 -32.5q0 -19 -12.5 -32
t-32.5 -13zM500 86q-19 0 -32 13t-13 32q0 20 13 32.5t32 12.5q20 0 32.5 -12.5t12.5 -32.5q0 -19 -12.5 -32t-32.5 -13zM365 50q-19 0 -32 13t-13 32q0 20 13 32.5t32 12.5q20 0 32.5 -12.5t12.5 -32.5q0 -19 -12.5 -32t-32.5 -13zM230 86q-19 0 -32 13t-13 32
q0 20 13 32.5t32 12.5q20 0 32.5 -12.5t12.5 -32.5q0 -19 -12.5 -32t-32.5 -13zM131 185q-19 0 -32 13t-13 32q0 20 13 32.5t32 12.5q20 0 32.5 -12.5t12.5 -32.5q0 -19 -12.5 -32t-32.5 -13zM95 320q-19 0 -32 12.5t-13 32.5t13 32t32 12q20 0 32.5 -12t12.5 -32
t-12.5 -32.5t-32.5 -12.5zM131 454q-19 0 -32 13t-13 32q0 20 13 32.5t32 12.5q20 0 32.5 -12.5t12.5 -32.5q0 -19 -12.5 -32t-32.5 -13zM230 553q-19 0 -32 13t-13 32q0 20 13 32.5t32 12.5q20 0 32.5 -12.5t12.5 -32.5q0 -19 -12.5 -32t-32.5 -13z" />
    <glyph glyph-name="uni25CF" unicode="&#x25cf;" horiz-adv-x="871" 
d="M435 -10q-84 0 -153 26.5t-118.5 76t-76.5 118t-27 152.5t27 152.5t76.5 118t118.5 76t153 26.5t153.5 -26.5t119 -76t76.5 -118t27 -152.5t-27 -152.5t-76.5 -118t-119 -76t-153.5 -26.5z" />
    <glyph glyph-name="uni2639" unicode="&#x2639;" horiz-adv-x="869" 
d="M435 -10q-81 0 -149.5 27t-119 76.5t-78.5 118.5t-28 154q0 84 28 152.5t78.5 118t119 76t149.5 26.5t149.5 -26.5t119 -76t78 -118t27.5 -152.5q0 -85 -27.5 -154t-78 -118.5t-119 -76.5t-149.5 -27zM194 156q24 74 87 117t152 43q91 0 153.5 -43t87.5 -117h-34
q-22 59 -77.5 94t-129.5 35q-72 0 -127.5 -35t-78.5 -94h-33zM435 19q99 0 176 43.5t121 121.5t44 182q0 103 -44 180.5t-121 120.5t-176 43t-176.5 -43t-121.5 -120.5t-44 -180.5q0 -104 44 -182t121.5 -121.5t176.5 -43.5zM358 412q-20 0 -34 13t-14 33t14 33t34 13
t34 -13t14 -33t-14 -33t-34 -13zM512 412q-20 0 -34 13t-14 33t14 33t34 13t34 -13t14 -33t-14 -33t-34 -13z" />
    <glyph glyph-name="smileface" unicode="&#x263a;" horiz-adv-x="869" 
d="M435 -10q-81 0 -149.5 27t-119 76.5t-78.5 118.5t-28 154q0 84 28 152.5t78.5 118t119 76t149.5 26.5t149.5 -26.5t119 -76t78 -118t27.5 -152.5q0 -85 -27.5 -154t-78 -118.5t-119 -76.5t-149.5 -27zM433 105q-68 0 -121.5 25.5t-86.5 72t-42 108.5h-35v15h109v-15h-41
q7 -52 36.5 -91.5t76.5 -61.5t104 -22q59 0 106 22t76.5 61.5t35.5 91.5h-39v15h109v-15h-36q-9 -62 -42.5 -108.5t-86.5 -72t-123 -25.5zM435 19q99 0 176 43.5t121 121.5t44 182q0 103 -44 180.5t-121 120.5t-176 43t-176.5 -43t-121.5 -120.5t-44 -180.5q0 -104 44 -182
t121.5 -121.5t176.5 -43.5zM358 412q-20 0 -34 13t-14 33t14 33t34 13t34 -13t14 -33t-14 -33t-34 -13zM512 412q-20 0 -34 13t-14 33t14 33t34 13t34 -13t14 -33t-14 -33t-34 -13z" />
    <glyph glyph-name="uni2713" unicode="&#x2713;" horiz-adv-x="924" 
d="M302 137l-186 252l26 23l164 -225l479 400l23 -27z" />
    <glyph glyph-name="uni2776" unicode="&#x2776;" horiz-adv-x="871" 
d="M435 -10q-84 0 -153 26.5t-118.5 76t-76.5 118t-27 152.5t27 152.5t76.5 118t118.5 76t153 26.5t153.5 -26.5t119 -76t76.5 -118t27 -152.5t-27 -152.5t-76.5 -118t-119 -76t-153.5 -26.5zM435 149h34v433h-34q-3 -31 -21.5 -50.5t-62.5 -19.5h-16v-26h100v-337z" />
    <glyph glyph-name="uni2777" unicode="&#x2777;" horiz-adv-x="871" 
d="M435 -10q-84 0 -153 26.5t-118.5 76t-76.5 118t-27 152.5t27 152.5t76.5 118t118.5 76t153 26.5t153.5 -26.5t119 -76t76.5 -118t27 -152.5t-27 -152.5t-76.5 -118t-119 -76t-153.5 -26.5zM304 149h267v31h-232q3 29 20.5 52.5t44 43.5t54.5 40t53.5 41.5t41 48.5
t15.5 61q0 54 -35 86.5t-95 32.5q-62 0 -100 -36t-37 -95h35q-1 47 28 74t73 27t70 -24t26 -66q0 -30 -16.5 -54.5t-42.5 -45.5t-55.5 -41.5t-55.5 -44t-42.5 -52t-16.5 -66.5v-13z" />
    <glyph glyph-name="uni2778" unicode="&#x2778;" horiz-adv-x="871" 
d="M435 -10q-84 0 -153 26.5t-118.5 76t-76.5 118t-27 152.5t27 152.5t76.5 118t118.5 76t153 26.5t153.5 -26.5t119 -76t76.5 -118t27 -152.5t-27 -152.5t-76.5 -118t-119 -76t-153.5 -26.5zM432 144q65 0 105 34t40 89q0 41 -21 69.5t-59 36.5v3q33 10 55 36t22 64
q0 50 -35.5 80.5t-97.5 30.5q-38 0 -68 -14.5t-48.5 -41t-20.5 -64.5h35q2 41 30 65.5t72 24.5t71 -21.5t27 -62.5q0 -38 -27 -62t-77 -24h-32v-28h41q44 0 70.5 -22t26.5 -68q0 -43 -29.5 -69t-79.5 -26q-42 0 -71 23.5t-32 66.5h-34q2 -35 19 -62.5t47.5 -42.5t70.5 -15z
" />
    <glyph glyph-name="uni2779" unicode="&#x2779;" horiz-adv-x="871" 
d="M435 -10q-84 0 -153 26.5t-118.5 76t-76.5 118t-27 152.5t27 152.5t76.5 118t118.5 76t153 26.5t153.5 -26.5t119 -76t76.5 -118t27 -152.5t-27 -152.5t-76.5 -118t-119 -76t-153.5 -26.5zM484 149h34v114h83v30h-83v289h-40l-207 -290v-29h213v-114zM308 293l176 246
v-246h-176z" />
    <glyph glyph-name="uni277A" unicode="&#x277a;" horiz-adv-x="871" 
d="M435 -10q-84 0 -153 26.5t-118.5 76t-76.5 118t-27 152.5t27 152.5t76.5 118t118.5 76t153 26.5t153.5 -26.5t119 -76t76.5 -118t27 -152.5t-27 -152.5t-76.5 -118t-119 -76t-153.5 -26.5zM430 144q45 0 78 18t51 50.5t18 75.5q0 41 -17 72t-47.5 48.5t-72.5 17.5
q-32 0 -60.5 -13t-44.5 -38l-2 1l14 175h220v31h-250l-18 -241h37q11 25 37 40.5t60 15.5q49 0 79 -29t30 -82q0 -49 -29 -80t-82 -31q-44 0 -71.5 24t-30.5 64h-35q2 -50 38.5 -84.5t97.5 -34.5z" />
    <glyph glyph-name="uni277B" unicode="&#x277b;" horiz-adv-x="871" 
d="M435 -10q-84 0 -153 26.5t-118.5 76t-76.5 118t-27 152.5t27 152.5t76.5 118t118.5 76t153 26.5t153.5 -26.5t119 -76t76.5 -118t27 -152.5t-27 -152.5t-76.5 -118t-119 -76t-153.5 -26.5zM438 144q64 0 104.5 38.5t40.5 102.5q0 61 -37.5 98.5t-98.5 37.5
q-48 0 -80 -22.5t-43 -59.5h-2q1 65 10.5 114t35.5 76.5t77 27.5q37 0 65 -18t35 -59h34q-4 48 -40.5 77.5t-92.5 29.5q-53 0 -88 -26t-52 -81t-17 -143q0 -45 9 -81t27.5 -61t46.5 -38t66 -13zM440 175q-49 0 -79.5 28.5t-30.5 77.5q0 47 29.5 79t81.5 32q47 0 76.5 -28.5
t29.5 -78.5q0 -49 -29.5 -79.5t-77.5 -30.5z" />
    <glyph glyph-name="uni277C" unicode="&#x277c;" horiz-adv-x="871" 
d="M435 -10q-84 0 -153 26.5t-118.5 76t-76.5 118t-27 152.5t27 152.5t76.5 118t118.5 76t153 26.5t153.5 -26.5t119 -76t76.5 -118t27 -152.5t-27 -152.5t-76.5 -118t-119 -76t-153.5 -26.5zM392 149h37q0 69 12 126t33 105t47.5 91.5t55.5 86.5v24h-283v-125h29v94h213
q-37 -55 -70 -114t-53.5 -129t-20.5 -159z" />
    <glyph glyph-name="uni277D" unicode="&#x277d;" horiz-adv-x="871" 
d="M435 -10q-84 0 -153 26.5t-118.5 76t-76.5 118t-27 152.5t27 152.5t76.5 118t118.5 76t153 26.5t153.5 -26.5t119 -76t76.5 -118t27 -152.5t-27 -152.5t-76.5 -118t-119 -76t-153.5 -26.5zM436 143q65 0 106 33t41 86q0 40 -24 70t-71 39v2q35 9 57.5 36.5t22.5 63.5
q0 34 -16 59.5t-45.5 39.5t-70.5 14q-40 0 -69.5 -14t-46 -39t-16.5 -60q0 -36 22.5 -63.5t56.5 -36.5v-2q-46 -9 -70 -39t-24 -70q0 -53 40.5 -86t106.5 -33zM436 173q-49 0 -80 25.5t-31 66.5q0 38 25 65t86 27t86 -27.5t25 -64.5q0 -41 -30.5 -66.5t-80.5 -25.5zM436 386
q-55 0 -76.5 27t-21.5 59t21.5 58.5t76.5 26.5q56 0 77 -27t21 -58q0 -32 -21.5 -59t-76.5 -27z" />
    <glyph glyph-name="uni277E" unicode="&#x277e;" horiz-adv-x="871" 
d="M435 -10q-84 0 -153 26.5t-118.5 76t-76.5 118t-27 152.5t27 152.5t76.5 118t118.5 76t153 26.5t153.5 -26.5t119 -76t76.5 -118t27 -152.5t-27 -152.5t-76.5 -118t-119 -76t-153.5 -26.5zM426 139q53 0 88 26t52 81t17 143q0 45 -9 81t-27.5 61t-46.5 38t-66 13
q-64 0 -104.5 -38t-40.5 -103q0 -61 37.5 -98.5t98.5 -37.5q48 0 80.5 22.5t42.5 59.5h2q-1 -65 -10.5 -114t-35.5 -76.5t-77 -27.5q-37 0 -65 18t-35 59h-34q5 -48 41.5 -77.5t91.5 -29.5zM431 334q-46 0 -76 29t-30 78q0 50 29.5 80t77.5 30q49 0 79.5 -28t30.5 -78
q0 -46 -29.5 -78.5t-81.5 -32.5z" />
    <glyph glyph-name="uniF8FF" unicode="&#xf8ff;" horiz-adv-x="866" 
d="M310 -8q-78 25 -136.5 76.5t-91 125t-32.5 162.5q0 115 48 200.5t134 133.5t201 48t201 -48t134 -133.5t48 -200.5q0 -89 -32.5 -162.5t-91 -125t-136.5 -76.5q-10 -3 -18.5 1.5t-8.5 16.5v105q0 54 -36 71q86 9 135.5 56.5t49.5 123.5q0 38 -10.5 65t-29.5 46q8 24 7 52
t-11 50q-28 2 -57 -9t-47 -31q-24 8 -48 11t-49 3t-49 -3t-48 -11q-18 20 -46.5 31t-57.5 9q-10 -22 -10.5 -50t6.5 -52q-19 -19 -29.5 -46t-10.5 -65q0 -76 49.5 -123.5t135.5 -56.5q-29 -13 -35 -52q-18 -10 -44 -10q-24 0 -39 13t-26.5 29.5t-25.5 29.5t-36 13
q-14 0 -14 -10t15 -17.5t26 -25.5q11 -17 21 -35.5t28.5 -31.5t54.5 -13q19 0 39 4v-70q0 -12 -8.5 -16.5t-18.5 -1.5zM222 150q-7 0 -7 5t6 5q7 0 7 -5t-6 -5zM191 185q-6 0 -6 4t5 4q6 0 6 -4t-5 -4zM206 171q-6 0 -6 4t5 4q6 0 6 -4t-5 -4zM266 109q-8 0 -8 6t7 6
q8 0 8 -6t-7 -6zM297 104q-8 0 -8 6t7 6q8 0 8 -6t-7 -6zM328 110q-8 0 -8 6t7 6q8 0 8 -6t-7 -6zM240 127q-8 0 -8 6t7 6q8 0 8 -6t-7 -6z" />
    <glyph glyph-name="uni004A0301" horiz-adv-x="378" 
d="M28 0v35h101q71 0 97 35t26 105v554h38v-559q0 -56 -16.5 -94t-52 -57t-92.5 -19h-101zM256 803l68 136h41l-78 -136h-31z" />
    <glyph glyph-name="uni1EB6.ss01" horiz-adv-x="678" 
d="M31 0l282 729h53l281 -729h-40l-230 605l-34 91h-6l-34 -91l-231 -605h-41zM139 199v36h400v-36h-400zM320 -140v56h37v-56h-37zM339 793q-41 0 -69.5 16t-43 47t-15.5 77h36q0 -54 23.5 -81.5t68.5 -27.5t68.5 27.5t23.5 81.5h36q-1 -69 -33.5 -104.5t-94.5 -35.5z" />
    <glyph glyph-name="uni1EAC.ss01" horiz-adv-x="678" 
d="M31 0l282 729h53l281 -729h-40l-230 605l-34 91h-6l-34 -91l-231 -605h-41zM139 199v36h400v-36h-400zM320 -140v56h37v-56h-37zM215 803l103 136h42l104 -136h-39l-86 112l-85 -112h-39z" />
    <glyph glyph-name="Adieresis.ss01" horiz-adv-x="678" 
d="M31 0l282 729h53l281 -729h-40l-230 605l-34 91h-6l-34 -91l-231 -605h-41zM139 199v36h400v-36h-400zM396 827v112h37v-112h-37zM244 827v112h37v-112h-37z" />
    <glyph glyph-name="uni1EA0.ss01" horiz-adv-x="678" 
d="M31 0l282 729h53l281 -729h-40l-230 605l-34 91h-6l-34 -91l-231 -605h-41zM139 199v36h400v-36h-400zM320 -140v56h37v-56h-37z" />
    <glyph glyph-name="Cdotaccent.ss01" horiz-adv-x="771" 
d="M405 -8q-79 0 -143.5 26.5t-111 76t-71 118t-24.5 151.5q0 84 25 152.5t71 117.5t110.5 75.5t143.5 26.5q85 0 152 -29.5t110.5 -83.5t56.5 -129h-40q-11 61 -48 107t-95.5 72.5t-135.5 26.5q-96 0 -165 -42t-106.5 -117.5t-37.5 -176.5q0 -75 21.5 -137t61.5 -106.5
t97 -68.5t129 -24q77 0 136 26t96 73.5t47 110.5h40q-10 -75 -53 -130.5t-111 -85.5t-155 -30zM393 825v116h37v-116h-37z" />
    <glyph glyph-name="uni1EC6.ss01" horiz-adv-x="612" 
d="M94 0v729h481v-36h-454l11 11v-678l-11 11h454v-37h-481zM121 358v34h406v-34h-406zM291 -140v56h37v-56h-37zM186 803l103 136h42l104 -136h-39l-86 112l-85 -112h-39z" />
    <glyph glyph-name="Edieresis.ss01" horiz-adv-x="612" 
d="M94 0v729h481v-36h-454l11 11v-678l-11 11h454v-37h-481zM121 358v34h406v-34h-406zM367 827v112h37v-112h-37zM215 827v112h37v-112h-37z" />
    <glyph glyph-name="Edotaccent.ss01" horiz-adv-x="612" 
d="M94 0v729h481v-36h-454l11 11v-678l-11 11h454v-37h-481zM121 358v34h406v-34h-406zM291 825v116h37v-116h-37z" />
    <glyph glyph-name="uni1EB8.ss01" horiz-adv-x="612" 
d="M94 0v729h481v-36h-454l11 11v-678l-11 11h454v-37h-481zM121 358v34h406v-34h-406zM291 -140v56h37v-56h-37z" />
    <glyph glyph-name="Gdotaccent.ss01" horiz-adv-x="806" 
d="M405 -8q-79 0 -143.5 26.5t-111 76t-71 118t-24.5 151.5q0 84 25 152.5t71 117.5t110.5 75.5t143.5 26.5q84 0 151 -25.5t111 -74.5t58 -121h-40q-14 57 -51 98.5t-94.5 64t-134.5 22.5q-96 0 -165 -42t-106.5 -117.5t-37.5 -176.5q0 -75 21.5 -137t61.5 -106.5t97 -68.5
t129 -24q84 0 149 33t102 93.5t37 143.5v61l19 -19h-339v36h361v-376h-32l-5 174h-6q-17 -55 -59 -96t-100.5 -63.5t-126.5 -22.5zM386 825v116h37v-116h-37z" />
    <glyph glyph-name="Idieresis.ss01" horiz-adv-x="226" 
d="M94 0v729h38v-729h-38zM170 827v112h37v-112h-37zM18 827v112h37v-112h-37z" />
    <glyph glyph-name="Idotaccent.ss01" horiz-adv-x="226" 
d="M94 0v729h38v-729h-38zM94 825v116h37v-116h-37z" />
    <glyph glyph-name="uni1ECA.ss01" horiz-adv-x="226" 
d="M94 0v729h38v-729h-38zM94 -140v56h37v-56h-37z" />
    <glyph glyph-name="Ldot.ss01" horiz-adv-x="543" 
d="M94 0v729h38v-714l-18 22h400v-37h-420zM351 338v77h78v-77h-78z" />
    <glyph glyph-name="uni1ED8.ss01" horiz-adv-x="810" 
d="M405 -8q-79 0 -143.5 26.5t-111 76t-71 118t-24.5 151.5q0 84 25 152.5t71 117.5t110.5 75.5t143.5 26.5q80 0 144 -26.5t110.5 -76t71 -117.5t24.5 -152t-25 -152.5t-71.5 -117.5t-110.5 -75.5t-143 -26.5zM405 28q96 0 165.5 42.5t107 118t37.5 175.5q0 76 -21.5 137.5
t-62 106t-97.5 68.5t-129 24q-96 0 -165 -42t-106.5 -117.5t-37.5 -176.5q0 -75 21.5 -137t61.5 -106.5t97 -68.5t129 -24zM386 -140v56h37v-56h-37zM281 803l103 136h42l104 -136h-39l-86 112l-85 -112h-39z" />
    <glyph glyph-name="Odieresis.ss01" horiz-adv-x="810" 
d="M405 -8q-79 0 -143.5 26.5t-111 76t-71 118t-24.5 151.5q0 84 25 152.5t71 117.5t110.5 75.5t143.5 26.5q80 0 144 -26.5t110.5 -76t71 -117.5t24.5 -152t-25 -152.5t-71.5 -117.5t-110.5 -75.5t-143 -26.5zM405 28q96 0 165.5 42.5t107 118t37.5 175.5q0 76 -21.5 137.5
t-62 106t-97.5 68.5t-129 24q-96 0 -165 -42t-106.5 -117.5t-37.5 -176.5q0 -75 21.5 -137t61.5 -106.5t97 -68.5t129 -24zM462 827v112h37v-112h-37zM310 827v112h37v-112h-37z" />
    <glyph glyph-name="uni1ECC.ss01" horiz-adv-x="810" 
d="M405 -8q-79 0 -143.5 26.5t-111 76t-71 118t-24.5 151.5q0 84 25 152.5t71 117.5t110.5 75.5t143.5 26.5q80 0 144 -26.5t110.5 -76t71 -117.5t24.5 -152t-25 -152.5t-71.5 -117.5t-110.5 -75.5t-143 -26.5zM405 28q96 0 165.5 42.5t107 118t37.5 175.5q0 76 -21.5 137.5
t-62 106t-97.5 68.5t-129 24q-96 0 -165 -42t-106.5 -117.5t-37.5 -176.5q0 -75 21.5 -137t61.5 -106.5t97 -68.5t129 -24zM386 -140v56h37v-56h-37z" />
    <glyph glyph-name="uni1EE2.ss01" horiz-adv-x="810" 
d="M405 -8q-79 0 -143.5 26.5t-111 76t-71 118t-24.5 151.5q0 84 25 152.5t71 117.5t110.5 75.5t143.5 26.5q80 0 144 -26.5t110.5 -76t71 -117.5t24.5 -152t-25 -152.5t-71.5 -117.5t-110.5 -75.5t-143 -26.5zM405 28q96 0 165.5 42.5t107 118t37.5 175.5q0 76 -21.5 137.5
t-62 106t-97.5 68.5t-129 24q-96 0 -165 -42t-106.5 -117.5t-37.5 -176.5q0 -75 21.5 -137t61.5 -106.5t97 -68.5t129 -24zM572 670v29q38 0 61 13.5t32 42t4 72.5h33q5 -52 -8 -87t-43.5 -52.5t-78.5 -17.5zM386 -140v56h37v-56h-37z" />
    <glyph glyph-name="Udieresis.ss01" horiz-adv-x="723" 
d="M362 -8q-86 0 -149 31.5t-97 91.5t-34 145v469h38v-465q0 -79 29.5 -131.5t84 -78t128.5 -25.5q83 0 136.5 29t79.5 82t26 124v465h37v-469q0 -80 -32 -140.5t-94 -94t-153 -33.5zM419 827v112h37v-112h-37zM267 827v112h37v-112h-37z" />
    <glyph glyph-name="uni1EE4.ss01" horiz-adv-x="723" 
d="M362 -8q-86 0 -149 31.5t-97 91.5t-34 145v469h38v-465q0 -79 29.5 -131.5t84 -78t128.5 -25.5q83 0 136.5 29t79.5 82t26 124v465h37v-469q0 -80 -32 -140.5t-94 -94t-153 -33.5zM343 -140v56h37v-56h-37z" />
    </font>
</defs>
</svg>
